<svg viewBox="0 0 1024 1024" xmlns="http://www.w3.org/2000/svg"><path d="m150 559.57v57.88c177.44 17.42 352.99 20.17 525.31 9.33l6.93-57.17c-174.57 10.98-352.45 7.99-532.24-10.04z" fill="#f1eded"/><path d="m853.42 213.14-258.17 145.51c-.36.2-.74.37-1.11.54 1.68.75 3.48 1.18 5.33 1.22 48.53 1.02 97.23 6.17 145.56 15.59 7.26 1.42 12.12 8.28 11 15.59-5.54 36.31-19.72 117.72-20.68 122.94-2.53 13.84-19.67 109.51-24.88 135.49-1.48 7.36-2.99 14.68-4.5 21.99 2.47-9.09 5-18.04 7.6-26.77 6.86-23.01 14-46.12 21.41-69.23 2.68-8.34 50.13-156.77 64.25-194.01-.05-.01-.11-.03-.16-.04l.23-.13c13.31-35.06 49.26-105.18 73.04-150.29 6.4-12.14-6.97-25.14-18.92-18.4z" fill="#9bbe7d"/><path d="m745.03 376c-48.33-9.42-97.03-14.57-145.56-15.59-1.85-.04-3.65-.46-5.33-1.22-.37-.17-.75-.34-1.11-.54l-258.17-145.51c-11.95-6.74-25.32 6.26-18.92 18.4 23.78 45.1 59.73 115.22 73.04 150.29l.23.13c-.05.01-.11.03-.16.04 14.12 37.23 61.57 185.66 64.25 194.01 7.42 23.11 14.56 46.23 21.41 69.23 2.6 8.73 5.13 17.68 7.6 26.77 2.98 10.96 5.88 22.15 8.68 33.56h206.29c2.8-11.41 5.7-22.59 8.68-33.56 1.52-7.31 3.03-14.63 4.5-21.99 5.21-25.98 22.35-121.64 24.88-135.49.95-5.22 15.13-86.63 20.68-122.94 1.12-7.31-3.75-14.18-11-15.59z" fill="#82a663"/><path d="m336.64 730.43h687.36v-110.75l-483.77 77.24z" fill="#c8904c"/><path d="m336.64 729.43h-336.64v19.92c166.83 29.44 338.49 44.89 513.76 44.89s344.51-15.26 510.24-44.3v-20.51z" fill="#dfa562"/><path d="m625.91 509.89-1.39 57.49s292.26-26.45 399.48-32.05v-57.43c-106.77 5.62-293.37 16.34-398.09 31.99z" fill="#f1eded"/></svg>