<?xml version="1.0" encoding="UTF-8"?><svg id="Gestaltung" xmlns="http://www.w3.org/2000/svg" viewBox="0 0 1024 1024"><path id="regardio-system-pursuit-icon" d="M858.58,150.01c-119.95,4.46-350.74,33.56-350.74,33.56,0,0-226.3-24.56-342.42-26.57-8.86-.15-15.75,7.48-15.41,16.13,8.77,225.78,21.91,443.86,7.57,678.02-.53,8.65,6.92,16.57,15.42,16.13,113.53-5.8,341.38-28.12,341.38-28.12,0,0,222.85,29.08,334.61,34.84,8.51-.07,15.41-7.29,15.42-16.14.28-230.68.64-461.26,9.58-691.72.35-8.83-6.55-16.47-15.41-16.14Z" fill="#ba9e3f"/></svg>