<svg viewBox="0 0 1024 1024" xmlns="http://www.w3.org/2000/svg"><path d="m366.18 280.85c-2.36-1.07-4.72-2.1-7.01-3.07-29.43-12.45-56.23-18-86.89-18-14.7 0-29.29 1.21-45.47 2.68 0 0 0 0-.01 0-.03 0-.07-.01-.09-.03-.03-.03-.05-.06-.05-.1-3.01-56.87 6.84-121.88 29.3-193.24.02-.06.07-.1.14-.1h.03c.7.16 73.58 17.82 146.68 67.9.06.04.08.12.05.18-22.84 46.21-35.11 94.54-36.47 143.65 0 .05-.03.09-.07.12-.02.01-.05.02-.07.02s-.04 0-.06-.01z" fill="#c780aa"/><path d="m137.17 385.17s-.09-.02-.12-.06c-24.22-37.77-47.31-81.02-68.64-128.53-.02-.05-.02-.1.02-.15.03-.03.07-.05.11-.05h.03c31.99 6.51 62.17 9.68 92.25 9.68 23.39 0 43.44-1.82 62.82-3.59 0 0 3.16-.29 3.16-.29.03 0 .07.01.09.03.03.03.05.06.05.1 1.67 31.57 7.37 61.2 16.91 88.07.02.04 0 .09-.01.12-.02.04-.06.06-.11.06-35.86 2.89-71.69 14.53-106.5 34.58-.02.01-.05.02-.07.02z" fill="#a188db"/><path d="m109.77 604.38s-.05 0-.08-.02c-65.95-43.1-107.9-90.02-109.65-92-.05-.05-.05-.13 0-.18 44.18-57.5 90.3-100.32 137.07-127.27.02-.01.05-.02.07-.02.05 0 .09.02.12.06 23.35 36.42 47.98 68.1 73.19 94.15.03.03.05.08.04.12s-.04.08-.08.1c-37.9 18.14-66.42 47.12-84.78 86.14-5.22 11.09-10.53 24.15-15.76 38.82-.01.04-.05.07-.09.09-.02 0-.03 0-.05 0z" fill="#7894dc"/><path d="m223.79 824.49c-28.62-4.16-58.1-12.09-87.62-23.54-40.6-15.76-67.24-32.92-67.51-33.09 0 0-.06-.14-.06-.14 6.11-40.47 21.55-108.91 41.04-163.52.01-.04.05-.07.09-.09h.05c.03 0 .05 0 .08.02 45.19 29.54 90.54 49.98 134.78 60.76 4.56 1.11 9.37 2.17 14.3 3.14.04 0 .08.04.1.08s.02.09 0 .12c-23.9 49.67-36.03 103.65-35.07 156.12 0 .04-.02.08-.05.11-.03.02-.06.04-.09.04 0 0-.01 0-.02 0z" fill="#609dc2"/><path d="m263.8 955.67c-4.96 0-7.76-.15-7.79-.15-10.15-19.78-17.96-40.71-23.35-62.29-5.54-22.23-8.57-45.41-9-68.87 0-.04.02-.08.05-.11.03-.02.06-.04.09-.04h.02c15.6 2.27 31.07 3.42 45.99 3.42 29.63 0 57.97-4.53 84.24-13.45h.05c.06 0 .11.03.13.09 14.19 34.22 35.33 69.93 62.85 106.14.02.03.03.08.02.12 0 .04-.04.08-.08.09-64.41 31.64-128.62 35.05-153.23 35.05z" fill="#55a69e"/><path d="m512.43 1024c-19.99-17.91-58.86-55.11-95.57-103.42-.02-.03-.03-.08-.02-.12 0-.04.04-.08.08-.09 42.68-20.96 77.28-50.5 102.83-87.8 2.45-3.58 4.91-7.33 7.32-11.17.02-.04.06-.06.11-.07h.01c.04 0 .07.02.1.04 33.97 35.36 66.82 47.5 104.84 61.55l1.61.6s.07.04.08.08c.02.04.01.08 0 .12-25.09 49.45-65.9 96.64-121.29 140.25-.02.02-.06.03-.09.03z" fill="#64aa7d"/><path d="m768.06 955.52s-.06-.01-.09-.03c-55.06-42.4-99.02-58.65-134.34-71.71-.04-.01-.07-.04-.08-.08-.02-.04-.01-.08 0-.12 14.99-29.54 24.61-60.39 28.58-91.68 0-.05.03-.09.07-.11.02-.01.04-.02.07-.02s.04 0 .06.02c32.87 16.74 67.67 26.63 103.45 29.39.07 0 .12.06.13.13 3.54 41.4 4.31 86.5 2.28 134.06 0 .05-.03.1-.08.12-.02 0-.04.01-.06.01z" fill="#82a663"/><path d="m786.47 822.28c-6.88 0-13.85-.27-20.7-.8-.07 0-.12-.06-.13-.13-4.98-58.14-15.43-109.52-31.07-152.72-.02-.04 0-.1.02-.13.03-.04.07-.06.11-.06 6.29.45 12.64.68 18.9.68 43.35 0 86.19-10.97 127.33-32.6.02-.01.04-.02.07-.02.04 0 .08.02.11.05 52.38 67.02 73.95 130.92 74.16 131.55.02.06 0 .13-.06.16-54.19 35.84-110.96 54.01-168.75 54.01z" fill="#a2a55c"/><path d="m881 636.78s-.08-.02-.11-.05c-31.06-39.75-66.66-72.71-105.81-97.99-.05-.03-.07-.09-.06-.14s.05-.1.11-.11c73.62-17.95 123.45-49.65 148.1-94.21.03-.05.07-.07.12-.07.02 0 .05 0 .07.02 60.12 31.85 98.91 66.03 100.53 67.47.06.05.08.15.03.21-45.31 56.83-93.39 98.84-142.9 124.87-.02.01-.04.02-.07.02z" fill="#ba9e3f"/><path d="m923.35 444.48s-.05 0-.07-.02c-49.87-26.42-99.62-43.53-147.85-50.87-6.99-1.06-14.18-1.94-21.37-2.6-.05 0-.09-.03-.11-.07s-.02-.09 0-.13c23.4-45.26 36.53-96.11 39.01-151.14 0-.07.06-.13.14-.14 7.37-.31 14.93-.47 22.48-.47 20.54 0 41.73 1.17 62.98 3.47 45.33 4.91 76.23 13.43 76.54 13.52.06.02.1.07.1.13 1.15 37.45-3.92 116.11-22.44 167.74-2.51 7-5.63 13.9-9.28 20.5-.03.05-.07.07-.12.07z" fill="#c8904c"/><path d="m669.92 262.98s-.06 0-.08-.03c-.04-.03-.06-.07-.06-.12 2.43-41.22-2.63-79.35-15.04-113.32-.03-.07 0-.15.07-.18 38.92-17.67 79.68-38.46 112.74-80.64.03-.03.07-.05.11-.05h.02c.05 0 .09.05.11.09 19.39 58 27.95 115.51 25.44 170.94 0 .07-.06.13-.14.14-45.14 1.92-86.57 9.72-123.13 23.16-.02 0-.03 0-.05 0z" fill="#d98665"/><path d="m507.79 243.42s-.09-.03-.11-.06c-7.94-12.48-16.88-24.63-26.57-36.1-21.74-25.75-48.14-49.34-78.47-70.11-.06-.04-.08-.12-.05-.18 42.69-86.38 108.48-136.45 109.14-136.94.02-.02.05-.03.08-.03.02 0 .04 0 .06.02 72.17 36.72 120.32 86.98 143.12 149.4.03.07 0 .15-.07.18-5.34 2.43-10.71 4.82-16.09 7.21-45 20.03-91.53 40.75-130.93 86.57-.03.03-.07.05-.11.05z" fill="#dd787d"/><path d="m378.84 379.66s-.04 0-.06-.02c-20.27-10.32-40.85-18.06-61.15-23-18.53-4.52-37.28-6.81-55.72-6.81-6.04 0-12.15.25-18.17.73 0 0 0 0-.01 0-.06 0-.11-.04-.13-.09-9.56-26.89-15.25-56.55-16.93-88.15 0-.08.05-.14.13-.15 16.18-1.47 30.78-2.68 45.49-2.68 30.7 0 57.53 5.56 87 18.02 2.29.97 4.66 2.01 7.02 3.08.05.02.09.08.08.13-.46 16.73.35 33.76 2.41 50.63 2.13 17.4 5.46 33.15 10.18 48.12.02.05 0 .11-.04.15-.03.02-.06.03-.09.03z" fill="#deb2e9"/><path d="m639.02 400.79s-.08-.02-.1-.05c-.04-.04-.05-.09-.03-.14 18.01-49.15 28.41-95.51 30.89-137.78 0-.06.04-.1.09-.12 36.59-13.45 78.05-21.25 123.22-23.18s.07.02.1.04c.03.03.04.07.04.11-2.49 55.07-15.62 105.96-39.04 151.25-.02.05-.07.08-.13.08 0 0 0 0-.01 0-10.53-.97-21.1-1.46-31.43-1.46-28.65 0-56.77 3.78-83.58 11.25-.01 0-.02 0-.04 0z" fill="#edbd83"/><path d="m457.24 346.2s-.08-.02-.1-.04c-25.71-27.63-56.31-49.6-90.96-65.31-.05-.02-.08-.08-.08-.13 1.36-49.15 13.64-97.52 36.49-143.77.02-.04.05-.06.09-.07h.04c.03 0 .06 0 .08.02 30.34 20.79 56.76 44.4 78.52 70.16 9.7 11.49 18.65 23.64 26.6 36.14.03.05.03.12-.01.17-3.46 4.02-6.63 7.93-9.68 11.93-19.42 25.5-33.17 56.05-40.85 90.79-.01.05-.05.09-.1.11-.01 0-.02 0-.04 0z" fill="#f0a8c2"/><path d="m550.07 346.27c-.05-.01-.09-.05-.1-.11-8.01-36.73-22.24-71.32-42.28-102.81-.03-.05-.03-.12.01-.17 39.44-45.86 86-66.59 131.03-86.64 5.38-2.39 10.75-4.78 16.09-7.21.02 0 .04-.01.06-.01s.04 0 .06.01c.04.02.06.04.08.08 12.42 34.01 17.49 72.17 15.06 113.43 0 .06-.04.1-.09.12-45.06 16.57-83.04 41.88-112.87 75.22-2.3 2.57-4.62 5.27-6.89 8.03-.03.03-.07.05-.11.05-.01 0-.02 0-.03 0z" fill="#f3ae9f"/><path d="m210.37 479.34s-.07-.02-.1-.04c-25.22-26.06-49.86-57.75-73.22-94.19-.02-.03-.03-.07-.02-.11 0-.04.03-.07.07-.09 34.84-20.08 70.71-31.73 106.62-34.62h.01c.06 0 .11.04.13.09 10.47 29.45 25.8 56.26 45.57 79.67 7.7 9.11 16.2 17.87 25.27 26.02.04.04.06.1.04.15s-.07.09-.13.09c-40.03 1.34-75.08 9.08-104.18 23.01-.02 0-.04.01-.06.01z" fill="#bfbef3"/><path d="m258.86 668.31c-4.93-.97-9.74-2.03-14.31-3.14-44.27-10.79-89.64-31.25-134.87-60.8-.06-.04-.08-.1-.06-.17 5.23-14.67 10.54-27.74 15.77-38.84 18.38-39.08 46.95-68.11 84.91-86.28.02 0 .04-.01.06-.01.04 0 .07.02.1.04 39.89 41.22 81.93 69.09 124.96 82.83.05.02.08.05.1.1.01.05 0 .1-.04.13-31.69 30.79-57.42 66.47-76.47 106.07-.02.05-.07.08-.13.08 0 0-.02 0-.03 0z" fill="#9cc8ec"/><path d="m775.16 538.76s-.05 0-.08-.02c-16.4-10.59-33.61-19.93-51.16-27.76-3.82-1.7-7.52-3.37-11.14-5-14.55-6.55-27.11-12.2-39.62-16.96-.05-.02-.08-.06-.09-.11 0-.05.01-.1.05-.13 32.6-24.9 60.54-58.78 80.82-97.98.02-.05.07-.08.13-.08h.01c7.2.66 14.4 1.54 21.39 2.6 48.27 7.34 98.04 24.46 147.94 50.9.03.02.06.05.07.08.01.04 0 .08-.01.11-24.69 44.63-74.58 76.37-148.28 94.35-.01 0-.02 0-.03 0z" fill="#e5c761"/><path d="m269.82 827.92c-14.93 0-30.42-1.15-46.03-3.42-.07-.01-.12-.07-.12-.14-.96-52.51 11.18-106.54 35.1-156.25.02-.05.07-.08.13-.08h.03c19.54 3.86 39.04 5.82 57.96 5.82 6.69 0 13.43-.25 20.04-.73.04 0 .08.02.11.05s.04.08.03.12c-4.16 18.65-5.45 38.34-3.83 58.51 2.11 26.21 9.17 53.95 20.99 82.46.01.04.01.08 0 .11-.02.04-.05.06-.08.08-26.3 8.94-54.67 13.47-84.32 13.47z" fill="#84cfda"/><path d="m416.97 920.63s-.09-.02-.11-.06c-27.53-36.23-48.69-71.97-62.89-106.21-.01-.04-.01-.08 0-.11.02-.04.05-.06.08-.08 36.35-12.35 69.48-33.38 98.46-62.5 6.08-6.11 11.93-12.53 17.38-19.07.03-.03.07-.05.11-.05h.02c.05 0 .09.04.11.09 11.39 28.34 27.37 54.61 47.49 78.08 3.14 3.67 6.39 7.25 9.66 10.66.04.05.05.12.02.17-2.41 3.83-4.87 7.59-7.33 11.18-25.58 37.33-60.21 66.9-102.94 87.89-.02 0-.04.01-.06.01z" fill="#86d4bf"/><path d="m633.64 883.79-1.61-.6c-38.06-14.06-70.93-26.21-104.95-61.62-.04-.05-.05-.12-.02-.17 19.01-30.28 32.61-62.54 42.81-101.54.01-.05.05-.09.1-.1h.03c.04 0 .08.02.1.05 27.04 30.37 58.07 54.6 92.24 72 .05.03.08.08.08.14-3.98 31.32-13.6 62.2-28.61 91.77-.02.05-.07.08-.13.08-.02 0-.03 0-.05 0z" fill="#a2d39d"/><path d="m765.77 821.48c-35.81-2.77-70.66-12.67-103.55-29.42-.05-.03-.08-.08-.08-.14 2.36-18.55 2.78-37.59 1.25-56.58-2.35-29.18-9.33-59.13-20.77-89-.02-.05 0-.11.03-.15.03-.03.06-.04.1-.04.02 0 .04 0 .05.01 23.5 9.66 47.24 16.36 70.56 19.9 7.07 1.07 14.25 1.88 21.34 2.39.06 0 .1.04.12.09 15.65 43.23 26.11 94.64 31.09 152.8 0 .04-.01.08-.04.11s-.06.04-.1.04c0 0 0 0-.01 0z" fill="#c0d086"/><path d="m753.61 669.4c-6.26 0-12.63-.23-18.92-.68-.06 0-.1-.04-.12-.09-17.38-48-41.4-86.42-71.4-114.18-.04-.04-.06-.1-.04-.15s.07-.09.12-.09c41.48-2.44 79.12-7.73 111.87-15.72 39.28 25.31 74.91 58.3 105.99 98.07.02.03.03.08.03.12s-.03.08-.07.1c-41.18 21.65-84.07 32.63-127.46 32.63z" fill="#d8ce6b"/><path d="m451.44 428.27s-.06-.01-.09-.03c-23.8-19.85-48.21-36.19-72.58-48.59-4.8-15.08-8.13-30.84-10.26-48.26-2.06-16.88-2.87-33.93-2.41-50.67 0-.05.03-.09.07-.12.02-.01.05-.02.07-.02s.04 0 .06.01c34.68 15.72 65.31 37.72 91.05 65.37-.9 4.34-1.75 8.67-2.51 12.99-1.17 3.73-2.09 7.05-2.81 10.18-3.89 16.88-4.55 33.96-1.97 50.84.39 2.55.89 5.21 1.51 8.11.01.06-.01.12-.06.15-.02.01-.05.02-.07.02z" fill="#f8cff2"/><path d="m509.04 421.52s-.1-.03-.12-.07c-.62-1.08-1.25-2.15-1.91-3.21-13.64-26.94-30.42-51.18-49.87-72.09 7.66-34.91 21.42-65.5 40.87-91.03 3.05-4.01 6.22-7.92 9.69-11.95.03-.03.07-.05.11-.05.05 0 .09.03.11.06 20.06 31.52 34.3 66.14 42.32 102.9-24.19 29.44-34.65 55.71-41.06 75.32-.02.05-.06.09-.12.1 0 0 0 0-.01 0z" fill="#fbcfd6"/><path d="m556.17 437.76s-.05 0-.07-.02c-.05-.03-.07-.09-.06-.14 1.03-6.06 1.67-12.25 1.89-18.39.22-6.22.02-12.54-.6-18.78-1.06-18.49-3.53-36.74-7.35-54.26 2.3-2.88 4.62-5.59 6.93-8.16 29.86-33.38 67.88-58.71 112.98-75.3h.05c.03 0 .06 0 .08.03.04.03.06.07.06.12-2.49 42.29-12.89 88.68-30.91 137.86-22.55 6.34-44.57 15.3-65.54 26.72-5.4 2.64-10.6 5.66-15.47 8.98-.52.36-1.04.72-1.55 1.09l-.34.25s-.05.03-.08.03z" fill="#fbd6b5"/><path d="m423.32 465.76c-34.17-6.41-66.39-9.66-95.75-9.66-4.36 0-8.72.07-12.96.21-9.18-8.2-17.69-16.96-25.4-26.08-19.79-23.44-35.14-50.27-45.62-79.76-.02-.04 0-.09.01-.12.02-.04.06-.06.11-.06 6.03-.49 12.15-.73 18.2-.73 18.46 0 37.23 2.29 55.78 6.82 20.32 4.95 40.91 12.7 61.21 23.03 6.9 21.75 16.59 41.61 31.49 64.48 3.59 7.65 7.99 14.94 13.07 21.66.03.05.04.11 0 .16-.03.04-.07.07-.12.07 0 0-.02 0-.03 0z" fill="#ebd9fa"/><path d="m335.35 562.2c-43.07-13.75-85.15-41.64-125.08-82.9-.03-.03-.05-.08-.04-.12s.04-.08.08-.1c29.13-13.94 64.22-21.69 104.29-23.04 24.34 21.83 53.56 40.21 86.93 54.68.05.02.08.07.08.13s-.03.11-.08.13c-9.29 4.79-18.13 10.71-26.33 17.62-13.9 10.18-27.26 21.47-39.71 33.57-.03.03-.06.04-.1.04-.01 0-.03 0-.04 0z" fill="#d2e1fb"/><path d="m673.17 489.02c-9.9-3.76-18.86-6.59-27.39-8.65-11.03-2.66-24.28-5.08-39.39-7.19-1.07-.15-2.15-.28-3.22-.4-.05 0-.1-.04-.12-.09s0-.1.02-.14c6.45-7.42 11.99-15.64 16.47-24.44 2.19-4.3 4.13-8.76 5.78-13.26 4.89-11.49 9.45-23.01 13.57-34.24 26.93-7.56 55.07-11.35 83.75-11.35 10.33 0 20.91.49 31.45 1.46.05 0 .09.03.11.07s.02.09 0 .13c-20.29 39.24-48.26 73.15-80.9 98.08-.02.02-.06.03-.09.03-.02 0-.03 0-.05 0z" fill="#f9e094"/><path d="m316.88 674.13c-18.94 0-38.46-1.96-58.02-5.82-.04 0-.08-.04-.1-.08s-.02-.09 0-.12c19.07-39.62 44.82-75.33 76.53-106.15.03-.03.06-.04.1-.04h.04c19.63 6.27 39.79 9.67 59.93 10.13.06 0 .11.04.13.09s0 .11-.03.15c-30.54 30.25-50.19 64.23-58.39 100.99-.01.06-.06.11-.13.11-6.61.48-13.36.73-20.05.73z" fill="#b5e7f6"/><path d="m354.11 814.46c-.06 0-.11-.03-.13-.09-11.83-28.54-18.9-56.31-21.01-82.55-1.63-20.2-.34-39.91 3.83-58.6.01-.06.06-.11.13-.11 38.59-2.82 76.08-13.98 111.43-33.17l.73-.37s.04-.01.06-.01.05 0 .07.02c.04.02.07.07.07.11 2.26 32.89 9.27 64.17 20.84 92.95.02.05.01.1-.02.14-5.45 6.55-11.31 12.98-17.39 19.09-29.01 29.15-62.17 50.2-98.57 62.57-.02 0-.03 0-.05 0z" fill="#abebe9"/><path d="m527.18 821.62s-.07-.02-.1-.04c-3.27-3.41-6.53-7-9.67-10.67-20.14-23.49-36.13-49.79-47.54-78.16-.02-.05-.01-.1.02-.14 25.13-30.19 39.27-60.13 49.79-85.45.02-.05.07-.08.12-.09.05 0 .1.03.13.08 14.05 26.59 30.93 51.04 50.18 72.66-10.17 39.15-23.78 71.44-42.81 101.75-.02.04-.06.06-.11.07 0 0 0 0-.01 0z" fill="#b9ecd2"/><path d="m662.28 792.07s-.04 0-.06-.02c-34.2-17.42-65.26-41.66-92.32-72.06 1.47-5.89 2.93-11.88 4.3-17.93 2.62-8.06 4.69-16.29 6.18-24.5l.03-.16c1.15-6.37 1.95-12.83 2.44-19.74 1.06-14.79.33-29.54-2.19-43.86 0-.06.01-.11.06-.14.02-.02.05-.02.08-.02s.05 0 .08.02c20.42 13.06 41.26 23.99 61.94 32.49 11.52 29.98 18.51 59.95 20.86 89.16 1.53 19.01 1.11 38.07-1.25 56.64 0 .05-.03.09-.07.11-.02.01-.04.02-.07.02z" fill="#d4ebb7"/><path d="m734.69 668.72c-7.1-.51-14.29-1.32-21.37-2.39-23.34-3.55-47.1-10.25-70.62-19.92-9.08-23.61-20.9-47.28-35.21-70.44-3.18-6.98-7.11-13.65-11.69-19.85-.03-.05-.04-.11 0-.15.03-.04.07-.07.12-.07h.02c5.81.65 11.73.98 17.58.98 4.87 0 9.8-.23 14.66-.68 2.11-.2 4.32-.45 6.76-.78 9.57-.27 19.09-.68 28.33-1.22 30.13 27.83 54.18 66.28 71.57 114.33.02.05 0 .1-.02.13-.03.04-.07.06-.11.06z" fill="#e8e997"/><path d="m663.27 554.48s-.07-.01-.1-.04c-14.19-13.14-29.98-24.1-46.92-32.6-.05-.03-.08-.08-.08-.13 0-.06.04-.11.09-.12 7.89-2.85 15.52-6.49 22.69-10.81 11.73-6.24 23.23-13.65 34.17-22 12.65 4.74 25.22 10.39 39.77 16.94 3.62 1.63 7.32 3.3 11.14 5 17.56 7.84 34.79 17.19 51.2 27.78.05.03.07.09.06.14s-.05.1-.11.11c-32.76 7.99-70.42 13.28-111.92 15.72z" fill="#f3e68b"/><path d="m401.38 511.06c-33.41-14.48-62.65-32.89-86.93-54.71-.04-.04-.06-.1-.04-.15l.06-.17c.02-.05.07-.09.13-.09 4.24-.14 8.61-.21 12.97-.21 29.38 0 61.62 3.25 95.82 9.67 3.23 4.17 6.58 8.06 10.05 11.62 7.54 7.73 16.07 14.39 25.36 19.78.06.03.08.1.07.16l-.05.19c-.02.06-.07.1-.14.1 0 0-1.08-.01-1.62-.01-18.99 0-37.66 4.65-55.47 13.83-.02 0-.13.02-.15.02s-.04 0-.06-.01z" fill="#f1edfd"/><path d="m616.26 521.95c-5.61-2.8-11.33-5.35-17.04-7.59-10.72-5.32-22.14-8.73-33.97-10.15-1.34-.16-2.81-.3-4.49-.43-.06 0-.12-.05-.13-.12l-.03-.19c-.01-.06.02-.13.08-.15 16.05-6.81 30.68-17.48 42.31-30.85 1.36.05 2.5.19 3.44.32 15.13 2.11 28.4 4.54 39.43 7.2 8.56 2.07 17.54 4.9 27.44 8.67.05.02.08.06.09.11l.02.17c0 .05-.01.1-.05.13-10.95 8.37-22.46 15.78-34.21 22.03-7.18 4.33-14.84 7.98-22.75 10.83-.02 0-.03 0-.05 0h-.09z" fill="#fcf1b1"/><path d="m475.87 481.03s-.05 0-.07-.02c-5.97-3.2-12.16-5.86-18.41-7.9-6.83-2.23-13.94-3.81-21.13-4.71-4.14-.86-8.5-1.72-12.97-2.56-5.21-6.79-9.64-14.1-13.25-21.8-14.9-22.87-24.6-42.75-31.45-64.46-.02-.05 0-.11.04-.15l.14-.12s.06-.03.09-.03c.02 0 .04 0 .06.02 24.39 12.41 48.84 28.77 72.65 48.64 4.22 19.25 12.68 37.46 24.51 52.71.04.05.04.13 0 .18l-.13.15s-.07.05-.11.05z" fill="#fbe7fc"/><path d="m497.87 475.15s-.1-.02-.12-.07c-1.97-3.27-4.07-6.4-6.24-9.33-7.78-10.47-17.19-19.52-27.98-26.89-4-3.56-8.11-7.11-12.24-10.55-.69-2.94-1.2-5.62-1.6-8.27-2.59-16.94-1.93-34.07 1.95-50.91.74-3.2 1.67-6.56 2.83-10.27.74-4.27 1.6-8.6 2.54-12.85.01-.05.05-.09.1-.11 0 0 .2-.05.21-.05.04 0 .08.02.1.04 19.47 20.93 36.27 45.21 49.92 72.16.59.95 1.22 2 1.91 3.2-2.44 7.7-4.44 14.79-6.08 20.72-2.02 5.15-3.48 10.43-4.32 15.69-.92 5.77-1.14 11.58-.66 17.27 0 .07-.03.13-.1.15l-.19.06s-.03 0-.04 0z" fill="#fde5f6"/><path d="m521.75 476.54c-.06-.02-.11-.08-.1-.14.76-12.13-.7-24.13-4.35-35.64-2.1-6.64-4.95-13.12-8.47-19.25 6.38-19.76 16.83-46.09 41.08-75.52.03-.03.07-.05.11-.05.01 0 .21.05.21.05.05.01.09.05.1.11 3.83 17.54 6.3 35.82 7.36 54.31.62 6.25.82 12.58.6 18.83-.22 6.17-.85 12.37-1.89 18.44-14.71 10.55-26.55 23.96-34.3 38.86-.02.05-.07.08-.13.08-.01 0-.23-.06-.23-.06z" fill="#fee6df"/><path d="m537.05 486.66s-.07-.02-.1-.04l-.14-.14s-.05-.12-.02-.18c9.47-14.02 16.08-30.87 19.13-48.73l.41-.38c.53-.38 1.06-.75 1.59-1.12 4.88-3.33 10.1-6.36 15.51-9 20.99-11.43 43.04-20.4 65.52-26.66h.04c.04 0 .08.02.1.05l.12.13s.05.09.03.14c-4.13 11.26-8.69 22.78-13.57 34.25-1.64 4.49-3.6 8.96-5.79 13.29-4.49 8.83-10.05 17.07-16.52 24.52-4.72-.42-9.17-.66-13.37-.66-19.42 0-37.7 5.02-52.86 14.52-.02.01-.05.02-.07.02z" fill="#feecbf"/><path d="m395.36 572.44c-20.17-.46-40.37-3.87-60.03-10.15l-.13-.27c12.51-12.25 25.88-23.55 39.79-33.74 8.22-6.93 17.08-12.86 26.33-17.63l.18-.05c5.27 2.25 10.54 4.4 15.74 6.4 10.41 5.78 21.39 9.47 32.66 10.98l.27.24s.04.07.04.11-.03.08-.06.1c-4.56 2.84-8.89 5.99-12.87 9.38-15.58 10.92-29.61 22.54-41.72 34.54-.02 0-.15.07-.17.07z" fill="#ddf2fd"/><path d="m336.94 673.5s-.08-.02-.11-.05l-.1-.12c8.19-36.95 27.87-71 58.46-101.3l2-.03c1.01 0 2.01.01 3.01.01 5.08 0 10.22-.19 15.26-.55h1.36c11.58 0 22.98-1.82 33.89-5.42 2.26-.74 4.57-1.59 6.87-2.53.02 0 .04-.01.05-.01.04 0 .07.02.1.04l.13.14s.05.1.03.16c-4.16 8.9-7.02 18.28-8.52 27.87-1.3 8.35-1.57 16.85-.8 25.27.02 7.58.3 15.22.81 22.7 0 .03-.06.15-.08.18-.06.05-.65.36-.79.42-35.39 19.21-72.94 30.38-111.58 33.21z" fill="#ccf5fa"/><path d="m469.88 732.88c-11.69-28.9-18.71-60.22-20.98-93.16 0-.03.06-.15.07-.18 5.35-2.65 10.44-5.63 15.19-8.91 13.49-9.36 25.1-21.75 33.58-35.83.03-.04.07-.07.12-.07 0 0 .21.03.21.03.06 0 .1.05.12.11 1.42 5.87 3.26 11.67 5.47 17.27.73 1.86 1.52 3.73 2.34 5.56 4.28 10 8.99 19.9 14.02 29.41-10.48 25.46-24.6 55.44-49.84 85.75-.03.03-.07.05-.11.05 0 0-.19-.03-.19-.03z" fill="#cff6ef"/><path d="m569.93 720.11s-.08-.02-.1-.05c-19.26-21.64-36.16-46.11-50.23-72.73.64-1.72 1.28-3.29 1.91-4.85l1.48-3.66c4.05-7.53 7.28-15.63 9.62-24.08 2.81-10.18 4.24-20.67 4.24-31.18 0-.34 0-.57-.01-.8v-.53c-.01-.06.02-.11.08-.13l.17-.07s.04-.01.05-.01c.04 0 .07.02.1.04 8 8.4 17.48 15.51 28.17 21.13 5.16 3.6 10.38 7.09 15.52 10.38 2.62 14.44 3.37 29.25 2.3 44.12-.49 6.81-1.31 13.47-2.45 19.78l-.03.15c-1.49 8.24-3.57 16.49-6.19 24.54-1.37 6.07-2.82 12.06-4.32 17.8-.01.05-.05.09-.1.1 0 0-.19.04-.2.04z" fill="#dff6de"/><path d="m642.67 646.5c-20.7-8.51-41.56-19.45-62-32.52-4.82-26.96-15.69-51.53-31.5-71.15-.04-.05-.04-.13 0-.18l.12-.15s.07-.05.11-.05c.02 0 .04 0 .06.02 13.61 6.77 28.72 11.2 44.91 13.17.3.04 1.57.17 1.57.17 4.72 6.25 8.69 12.96 11.89 20 14.31 23.16 26.14 46.84 35.15 70.39.02.05 0 .11-.03.15l-.13.13s-.06.04-.1.04c-.02 0-.04 0-.05-.01z" fill="#f0f6c1"/><path d="m613.51 557.26c-5.87 0-11.8-.33-17.62-.98-2.79-3.63-5.57-6.96-8.37-9.94-6.13-6.53-13.06-12.3-20.6-17.15-.06-.03-.08-.1-.06-.16l.06-.18c.02-.06.07-.1.13-.1 2.3.13 4.64.2 6.94.2 12.54 0 25.03-1.92 37.12-5.72 1.53-.48 3.15-1.03 5.1-1.74 17.11 8.49 32.95 19.48 47.2 32.67.04.04.06.1.04.15l-.06.17c-.02.05-.07.09-.12.09-9.22.54-18.75.95-28.32 1.22-2.41.32-4.62.58-6.76.78-4.87.45-9.81.68-14.69.68z" fill="#f8f4ae"/><path d="m502.68 506.66c-8.16-3.57-16.72-6.17-25.44-7.74-6.05-1.09-12.29-1.69-18.56-1.78-9.38-5.43-17.94-12.11-25.51-19.87-3.53-3.62-6.87-7.51-9.94-11.57-.03-.05-.04-.11 0-.16.03-.04.07-.07.12-.07h.03c4.46.84 8.82 1.7 12.96 2.55 7.2.89 14.33 2.48 21.19 4.72 6.27 2.05 12.49 4.72 18.47 7.92 7.73 9.95 16.74 18.59 26.84 25.74.06.04.08.12.04.19-.02.05-.07.07-.12.07-.02 0-.04 0-.06-.01z" fill="#fcf4fe"/><path d="m508.72 507.23s-.08-.02-.11-.05c-9.28-10.73-20.3-19.57-32.76-26.25-11.92-15.35-20.39-33.59-24.54-52.77-.01-.06.01-.12.06-.15.02-.01.05-.02.07-.02.03 0 .06.01.09.03 4.15 3.46 8.26 7.01 12.22 10.54 10.81 7.38 20.25 16.46 28.06 26.97 2.18 2.94 4.29 6.09 6.26 9.36l.04.28.02.29c1.03 11.08 4.63 21.69 10.71 31.55.04.06.02.14-.04.19-.03.02-.06.03-.08.03z" fill="#fef2fd"/><path d="m511.77 509.49c-.07 0-.12-.05-.14-.11-2.72-12.11-7.36-23.67-13.8-34.35-.51-5.78-.28-11.62.64-17.42.85-5.29 2.31-10.59 4.33-15.75 1.64-5.96 3.66-13.06 6.1-20.53.02-.05.06-.09.12-.1h.01c.05 0 .1.03.12.07 3.53 6.16 6.39 12.67 8.5 19.33 3.66 11.56 5.13 23.6 4.36 35.78-5.48 10.56-8.88 21.63-10.12 32.95 0 .07-.06.12-.13.13z" fill="#fff1f8"/><path d="m515.69 505.26s-.05 0-.07-.02c-.06-.03-.09-.11-.06-.17 3.48-9.2 5.56-18.84 6.19-28.67 7.8-15.03 19.67-28.47 34.34-38.9.02-.02.05-.03.08-.03s.05 0 .07.02c.05.03.07.09.06.14-3.06 17.91-9.69 34.81-19.19 48.88-6.1 3.84-11.68 8.34-16.62 13.44-1.61 1.66-3.18 3.42-4.7 5.25-.03.03-.07.05-.11.05z" fill="#fff4e3"/><path d="m514.67 510.52s-.1-.03-.12-.07c-.03-.06-.02-.14.04-.18 8.5-6.54 16-14.58 22.3-23.91 15.26-9.58 33.61-14.62 53.11-14.62 4.35 0 8.79.25 13.2.75.05 0 .1.04.12.09s0 .1-.02.14c-11.66 13.42-26.34 24.12-42.45 30.95-2.72-.19-5.41-.29-8.07-.29-6.24 0-12.52.56-18.67 1.67-6.58 1.19-13.1 3.02-19.37 5.45-.02 0-.03 0-.05 0z" fill="#fef6d0"/><path d="m449.98 528.38.02-.14-.08.13c-11.41-1.53-22.43-5.23-32.86-11.02-5.22-2-10.49-4.15-15.65-6.38-.05-.02-.08-.07-.08-.12s.03-.11.08-.13c17.87-9.2 36.59-13.87 55.65-13.87.54 0 1.08 0 1.63.01 13.72 7.96 28.5 12.92 43.99 14.78.07 0 .13.07.12.14 0 .07-.06.13-.13.14-14.82.7-29.09 4.34-42.42 10.81-3.41 1.66-6.84 3.55-10.17 5.63-.02.01-.05.02-.07.02 0 0-.01 0-.02 0z" fill="#f4f7fe"/><path d="m400.2 572.39c-1.62 0-3.24-.02-4.85-.05-.06 0-.11-.04-.13-.09s0-.11.03-.15c12.13-12.01 26.18-23.64 41.75-34.57 3.99-3.39 8.33-6.55 12.91-9.41 3.83.47 7.62.72 11.36.72 9.84 0 19.54-1.71 28.84-5.08h.05c.05 0 .1.03.12.07.03.06.02.14-.04.18-13.9 10.33-25.12 24.09-32.45 39.79-2.39 1.01-4.71 1.86-6.97 2.61-10.95 3.61-22.4 5.43-34.01 5.43 0 0-.9 0-1.35 0-5.04.37-10.19.55-15.27.55z" fill="#e8fafe"/><path d="m449.15 639.85s-.05 0-.07-.02c-.04-.02-.07-.07-.07-.11-.51-7.45-.79-15.08-.81-22.7-.77-8.44-.5-16.97.81-25.35 1.5-9.63 4.38-19.04 8.55-27.97 7.47-3.08 14.53-6.91 21.04-11.47 8.26-5.77 15.58-12.65 21.76-20.43.03-.04.07-.05.11-.05.02 0 .05 0 .07.02.06.03.09.11.06.17-6.97 19.21-7.84 40.99-2.51 62.97-8.53 14.24-20.18 26.67-33.71 36.06-4.76 3.3-9.86 6.29-15.18 8.89-.02 0-.04.01-.06.01z" fill="#e1fbfb"/><path d="m519.81 647.36c-.05 0-.1-.03-.13-.08-5.04-9.54-9.76-19.44-14.03-29.43-.82-1.84-1.61-3.72-2.35-5.58-2.22-5.62-4.06-11.44-5.49-17.32 9.57-15.97 15.24-34.07 16.41-52.47 0-.07.06-.12.13-.13h.01c.06 0 .12.04.14.1 3.94 14.5 11.37 27.65 22.07 39.08.1.11.58.6.58.6l.05.66c0 .22.01.44.01.66 0 10.66-1.44 21.18-4.25 31.39-2.34 8.48-5.59 16.6-9.64 24.14-1.1 2.73-2.23 5.5-3.39 8.29-.02.05-.07.08-.12.09z" fill="#e9fbf3"/><path d="m580.79 613.92s-.05 0-.08-.02c-5.16-3.3-10.37-6.79-15.51-10.37-10.72-5.63-20.23-12.76-28.25-21.2-.28-22.54-6.87-44.24-19.09-62.87-.04-.06-.03-.14.03-.19.03-.02.06-.03.09-.03.04 0 .08.02.1.05 8.4 9.28 18.94 17.11 31.33 23.27 15.91 19.72 26.8 44.33 31.52 71.2 0 .06-.01.11-.06.14-.02.02-.05.02-.08.02z" fill="#f4fbe3"/><path d="m594.33 556.01c-16.24-1.97-31.39-6.42-45.04-13.2-7.56-9.37-16.12-17.48-25.49-24.15-.06-.04-.08-.12-.04-.19.03-.05.07-.07.12-.07.02 0 .04 0 .06.01 7.2 3.2 14.73 5.71 22.38 7.48 6.82 1.57 13.8 2.57 20.74 2.97 7.63 4.89 14.59 10.68 20.74 17.23 2.88 3.06 5.65 6.39 8.23 9.88.03.05.04.11 0 .15-.03.04-.07.07-.12.07 0 0-1.27-.13-1.59-.17z" fill="#fafacf"/><path d="m574.01 529.33c-2.31 0-4.66-.07-6.97-.2-13.95-8.96-29.31-14.5-45.71-16.52-.07 0-.13-.07-.12-.15s.06-.13.13-.14c1.13-.05 2.27-.12 3.4-.2 12.43-.93 24.53-3.86 35.98-8.71 1.75.12 3.23.26 4.57.42 11.87 1.42 23.33 4.84 34.07 10.17 5.7 2.23 11.43 4.78 17.01 7.58.05.03.08.08.08.13 0 .06-.04.11-.09.12-1.95.7-3.58 1.26-5.11 1.74-12.13 3.8-24.66 5.73-37.24 5.73z" fill="#fdf9c8"/><path d="m510.95 510.65s-.05 0-.07-.02c-2.68-1.43-5.44-2.77-8.2-3.98-10.15-7.17-19.18-15.84-26.88-25.77-.04-.05-.04-.13 0-.18.03-.03.07-.05.11-.05.02 0 .05 0 .07.02 12.5 6.7 23.54 15.56 32.84 26.32.73 1.18 1.48 2.33 2.24 3.44.04.05.03.13-.01.17-.03.03-.07.05-.1.05z" fill="#fef9fe"/><path d="m511.54 510.64s-.06 0-.07-.02c-.93-1.16-1.88-2.31-2.85-3.43-6.12-9.91-9.73-20.57-10.76-31.69l-.04-.52c0-.06.03-.13.1-.15h.04c.05 0 .1.03.12.07 6.45 10.7 11.1 22.29 13.83 34.43l-.1 1.09s-.06.11-.07.13c-.03.04-.09.09-.13.09-.02 0-.04 0-.06 0z" fill="#fff8fd"/><path d="m511.89 510.18c-.06-.01-.1-.05-.11-.11l-.15-.7c1.24-11.4 4.65-22.5 10.13-33.04.02-.05.07-.08.13-.08h.04c.06.02.11.08.1.14-.62 9.86-2.71 19.53-6.2 28.75-1.29 1.57-2.52 3.18-3.79 4.96-.03.04-.07.06-.11.06 0 0-.02 0-.03 0z" fill="#fff9f9"/><path d="m461.28 529.13c-3.75 0-7.55-.25-11.3-.75-.06 0-.11-.05-.12-.11s.01-.12.06-.15c3.34-2.09 6.78-3.98 10.2-5.65 13.36-6.49 27.67-10.14 42.53-10.84 2.34.28 4.74.49 7.15.62.06 0 .12.05.13.12.01.06-.02.13-.08.15-6.88 3.08-13.48 6.94-19.59 11.49-9.37 3.4-19.11 5.12-28.98 5.12z" fill="#f7fcfe"/><path d="m457.68 563.89s-.07-.02-.1-.04c-.04-.04-.05-.1-.03-.16 7.35-15.75 18.6-29.54 32.54-39.9 5.05-1.84 9.92-4.12 14.53-6.8 1.34-.79 2.67-1.62 4.24-2.65.02-.02.05-.02.08-.02.04 0 .07.01.1.04.05.05.06.12.02.18-3.38 5.38-6.22 11.23-8.45 17.39-6.22 7.85-13.57 14.74-21.84 20.53-6.53 4.57-13.61 8.42-21.02 11.43-.02 0-.04.01-.05.01z" fill="#f2fdfe"/><path d="m497.93 595.06c-.06 0-.1-.05-.12-.11-5.34-22.03-4.47-43.86 2.52-63.13 4.19-5.29 7.85-10.98 10.88-16.95.02-.05.07-.08.13-.08h.04c.06.02.11.08.1.14-.24 5.11-.04 10.23.58 15.21.52 4.11 1.34 8.23 2.45 12.3-1.17 18.49-6.86 36.64-16.43 52.54-.03.04-.07.07-.12.07 0 0-.01 0-.02 0z" fill="#f1fdfc"/><path d="m537.06 582.37s-.08-.02-.1-.04c0 0-.48-.49-.58-.6-10.73-11.47-18.18-24.66-22.13-39.2.34-5.41.31-10.85-.09-16.2-.34-4.53-.95-9.07-1.82-13.57 0-.05.01-.11.06-.14.02-.02.05-.03.08-.03.02 0 .05 0 .07.02.02 0 .15.09.16.11 1.66 2.24 3.47 4.45 5.39 6.57 12.27 18.69 18.87 40.45 19.11 62.95 0 .06-.03.11-.09.13-.02 0-.03.01-.05.01z" fill="#f7fdf5"/><path d="m549.35 542.82s-.04 0-.06-.02c-12.42-6.18-22.99-14.03-31.41-23.33-1.33-2.02-2.7-3.97-4.08-5.83-.04-.05-.04-.13 0-.18.03-.03.07-.05.11-.05.02 0 .05 0 .07.02 3.23 1.8 6.58 3.47 9.96 4.97 9.41 6.7 17.99 14.83 25.52 24.18.04.05.04.13 0 .18-.03.03-.07.05-.11.05z" fill="#fcfde9"/><path d="m567.04 529.13c-6.96-.39-13.95-1.39-20.79-2.97-7.67-1.77-15.22-4.29-22.44-7.5-3.04-2.16-6.14-4.17-9.23-5.96-.06-.03-.08-.1-.06-.16s.07-.1.14-.1c0 0 1.04.01 1.56.01 1.71 0 3.44-.04 5.12-.12 16.47 2.02 31.86 7.58 45.78 16.54.06.03.08.1.06.16s-.07.1-.13.1z" fill="#fefcdf"/><path d="m502.64 511.92c-15.53-1.86-30.34-6.84-44.03-14.8-.06-.03-.08-.1-.07-.16.02-.06.07-.1.14-.1 6.28.09 12.54.69 18.6 1.78 8.74 1.58 17.32 4.19 25.51 7.76 2.59 1.83 5.25 3.56 7.94 5.17.05.03.08.1.06.16s-.07.1-.14.1c-.92-.02-1.83-.03-2.75-.03-1.73 0-3.5.04-5.24.12s-.01 0-.02 0z" fill="#fdfafe"/><path d="m513.27 511.07s-.07-.02-.1-.04c-.04-.04-.05-.1-.03-.16.93-2.05 1.72-3.95 2.42-5.8 1.55-1.88 3.12-3.64 4.69-5.27 5-5.15 10.59-9.67 16.67-13.48.02-.01.05-.02.07-.02.04 0 .07.02.1.04.05.05.05.12.02.18-6.31 9.35-13.84 17.42-22.36 23.97-.51.2-.97.38-1.44.57-.02 0-.03.01-.05.01z" fill="#fffaeb"/><path d="m521.34 512.61c-2.67-.33-5.39-.56-8.08-.69l-.19-.09-.13-.07s-.07-.07-.07-.11c0-.05.02-.09.06-.12.56-.41 1.11-.83 1.66-1.26 6.32-2.46 12.85-4.29 19.45-5.49 6.17-1.11 12.47-1.68 18.72-1.68 2.66 0 5.36.1 8.03.31.06 0 .12.05.13.12s-.02.13-.08.15c-11.47 4.86-23.61 7.8-36.06 8.73-1.14.08-2.28.15-3.41.2s-.01 0-.02 0z" fill="#fffbde"/><path d="m514.27 542.66c-.06 0-.12-.04-.14-.1-1.11-4.09-1.94-8.22-2.45-12.28-.59-4.69-.8-9.48-.64-14.25-2.94 5.64-6.44 11.02-10.4 16-.03.04-.07.05-.11.05-.02 0-.05 0-.07-.02l-.17-.1c-.06-.03-.09-.11-.06-.17 2.12-5.84 4.78-11.4 7.92-16.54-1.19.77-2.25 1.42-3.29 2.03-4.66 2.72-9.58 5.02-14.61 6.84-.02 0-.03 0-.05 0-.05 0-.1-.03-.12-.07l-.09-.17c-.03-.06-.02-.14.04-.18 5.87-4.37 12.19-8.11 18.78-11.13-2.09-.13-4.16-.32-6.18-.57-.07 0-.13-.07-.12-.14v-.2c0-.07.07-.13.14-.14 1.76-.08 3.53-.12 5.27-.12.61 0 1.23 0 1.84.02-2.44-1.48-4.84-3.06-7.16-4.7-.06-.04-.08-.12-.04-.18l.1-.17s.07-.07.12-.07c.02 0 .04 0 .06.01 2.47 1.08 4.95 2.27 7.37 3.53-.58-.86-1.14-1.74-1.69-2.63-.04-.06-.02-.14.04-.19l.16-.12s.06-.03.08-.03c.04 0 .08.02.11.05.87 1 1.73 2.03 2.56 3.07.02-.23.04-.45.07-.68 0-.07.06-.12.13-.13h.2c.07 0 .12.05.14.11l.04.16c1.16-1.61 2.3-3.08 3.47-4.5.03-.03.07-.05.11-.05.02 0 .05 0 .07.02l.17.1c.06.04.08.11.06.17-.64 1.69-1.36 3.43-2.19 5.28.28-.11.57-.22.85-.33h.05c.05 0 .1.03.12.07l.1.17c.03.06.02.14-.04.18-.41.32-.83.64-1.25.95 2.81.18 5.37.41 7.81.71.07 0 .13.07.12.14v.2c0 .07-.07.13-.14.14-1.7.08-3.43.11-5.14.11h-.66c2.85 1.69 5.69 3.54 8.45 5.51.06.04.08.12.04.19l-.1.17s-.07.07-.12.07c-.02 0-.04 0-.06-.01-3.05-1.35-6.09-2.85-9.02-4.45 1.16 1.59 2.31 3.25 3.42 4.94.04.06.03.14-.03.19l-.16.12s-.06.03-.09.03c-.04 0-.08-.02-.1-.05-1.74-1.92-3.39-3.92-4.93-5.95.78 4.21 1.34 8.45 1.65 12.63.4 5.42.43 10.91.09 16.29 0 .07-.06.12-.13.13 0 0-.21.02-.21.02z" fill="#fffdfb"/></svg>