<svg viewBox="0 0 1024 1024" xmlns="http://www.w3.org/2000/svg"><path d="m408.9 348.57c-1.67-.76-3.34-1.49-4.96-2.17-20.81-8.8-39.75-12.73-61.43-12.73-10.4 0-20.71.86-32.15 1.89-.02 0-.05 0-.07-.02s-.03-.04-.03-.07c-2.13-40.21 4.84-86.18 20.71-136.62.01-.04.05-.07.1-.07h.02c.5.11 52.02 12.6 103.7 48.01.04.03.05.08.03.13-16.15 32.67-24.82 66.84-25.78 101.56 0 .03-.02.06-.05.08-.02 0-.03.02-.05.02-.01 0-.03 0-.04 0z" fill="#c780aa"/><path d="m246.98 422.33s-.07-.02-.08-.05c-17.12-26.71-33.45-57.28-48.53-90.88-.02-.03-.01-.07.01-.1.02-.02.05-.04.08-.04h.02c22.62 4.6 43.95 6.84 65.22 6.84 16.54 0 30.71-1.29 44.42-2.54 0 0 2.23-.2 2.24-.2.02 0 .05 0 .07.02s.03.04.03.07c1.18 22.32 5.21 43.27 11.96 62.27.01.03 0 .06 0 .09-.02.03-.04.04-.08.05-25.36 2.04-50.69 10.27-75.3 24.45-.02 0-.03.01-.05.01z" fill="#a188db"/><path d="m227.61 577.32s-.04 0-.05-.02c-46.63-30.47-76.29-63.65-77.53-65.05-.03-.04-.04-.09 0-.13 31.24-40.65 63.84-70.93 96.91-89.99.02 0 .03-.01.05-.01.03 0 .07.02.08.05 16.51 25.75 33.92 48.15 51.75 66.57.02.02.03.06.03.09s-.03.06-.06.07c-26.8 12.82-46.96 33.32-59.94 60.91-3.69 7.84-7.44 17.08-11.14 27.45 0 .03-.03.05-.06.06-.01 0-.02 0-.03 0z" fill="#7894dc"/><path d="m308.23 732.94c-20.23-2.94-41.08-8.54-61.95-16.64-28.71-11.14-47.54-23.27-47.73-23.39 0 0-.04-.1-.04-.1 4.32-28.61 15.24-77 29.01-115.62 0-.03.03-.05.06-.06h.03c.02 0 .04 0 .05.02 31.95 20.88 64.02 35.34 95.29 42.96 3.22.79 6.63 1.53 10.11 2.22.03 0 .06.03.07.05.01.03.01.06 0 .09-16.9 35.12-25.47 73.29-24.8 110.38 0 .03-.01.06-.03.08s-.04.02-.07.02c0 0 0 0-.01 0z" fill="#609dc2"/><path d="m336.52 825.69c-3.51 0-5.49-.11-5.51-.11-7.18-13.98-12.7-28.78-16.51-44.04-3.92-15.72-6.06-32.1-6.36-48.69 0-.03.01-.06.03-.08s.04-.02.07-.02h.01c11.03 1.61 21.97 2.42 32.52 2.42 20.95 0 40.99-3.2 59.56-9.51h.03c.04 0 .08.02.09.06 10.03 24.19 24.98 49.44 44.44 75.05.02.02.02.05.02.08s-.03.05-.05.07c-45.54 22.37-90.94 24.78-108.34 24.78z" fill="#55a69e"/><path d="m512.3 874c-14.14-12.66-41.62-38.97-67.57-73.12-.02-.02-.02-.05-.02-.08s.03-.05.05-.07c30.18-14.82 54.64-35.71 72.71-62.08 1.73-2.53 3.47-5.19 5.17-7.89.02-.03.04-.04.08-.05.03 0 .05.01.07.03 24.02 25 47.24 33.58 74.13 43.52l1.14.42s.05.03.06.06 0 .06 0 .08c-17.74 34.96-46.59 68.33-85.76 99.16-.02.01-.04.02-.06.02z" fill="#64aa7d"/><path d="m693.05 825.58s-.04 0-.06-.02c-38.93-29.98-70.01-41.47-94.98-50.7-.03 0-.05-.03-.06-.06s0-.06 0-.08c10.6-20.89 17.4-42.7 20.21-64.82 0-.03.02-.06.05-.08.01 0 .03-.01.05-.01s.03 0 .04.01c23.24 11.83 47.85 18.83 73.14 20.78.05 0 .09.04.09.09 2.51 29.27 3.05 61.16 1.61 94.79 0 .04-.02.07-.06.09-.01 0-.03 0-.04 0z" fill="#82a663"/><path d="m706.06 731.38c-4.87 0-9.79-.19-14.64-.57-.05 0-.09-.04-.09-.09-3.52-41.1-10.91-77.43-21.97-107.98-.01-.03 0-.07.01-.09.02-.02.05-.04.08-.04 4.44.32 8.94.48 13.36.48 30.65 0 60.94-7.76 90.03-23.05.01 0 .03-.01.05-.01.03 0 .06.01.08.04 37.03 47.39 52.28 92.56 52.43 93.01.01.04 0 .09-.04.12-38.31 25.34-78.45 38.18-119.31 38.18z" fill="#a2a55c"/><path d="m772.9 600.23s-.06-.01-.08-.04c-21.96-28.1-47.13-51.41-74.81-69.28-.03-.02-.05-.06-.04-.1s.04-.07.08-.08c52.05-12.69 87.28-35.11 104.71-66.61.02-.03.05-.05.09-.05.02 0 .03 0 .05.01 42.51 22.52 69.93 46.69 71.08 47.7.04.04.05.1.02.14-32.04 40.18-66.03 69.88-101.04 88.29-.01 0-.03.01-.05.01z" fill="#ba9e3f"/><path d="m802.84 464.26s-.03 0-.05-.01c-35.26-18.68-70.43-30.78-104.54-35.96-4.94-.75-10.02-1.37-15.11-1.84-.03 0-.06-.02-.08-.05s-.02-.06 0-.09c16.55-32 25.83-67.95 27.58-106.86 0-.05.04-.09.1-.1 5.21-.22 10.56-.33 15.89-.33 14.52 0 29.5.83 44.53 2.45 32.05 3.47 53.9 9.5 54.12 9.56.04.01.07.05.07.09.81 26.48-2.77 82.09-15.86 118.6-1.77 4.95-3.98 9.83-6.56 14.5-.02.03-.05.05-.09.05z" fill="#c8904c"/><path d="m623.65 335.93s-.04 0-.06-.02c-.03-.02-.04-.05-.04-.09 1.72-29.14-1.86-56.1-10.64-80.12-.02-.05 0-.1.05-.12 27.52-12.49 56.34-27.19 79.71-57.02.02-.02.05-.04.08-.04h.02c.04 0 .07.03.08.07 13.71 41.01 19.76 81.67 17.99 120.86 0 .05-.04.09-.1.1-31.92 1.36-61.21 6.87-87.06 16.37-.01 0-.02 0-.03 0z" fill="#d98665"/><path d="m509.02 322.1s-.06-.02-.08-.05c-5.62-8.82-11.94-17.41-18.79-25.53-15.37-18.2-34.04-34.88-55.48-49.57-.04-.03-.05-.08-.03-.13 30.18-61.06 76.7-96.46 77.16-96.81.02-.01.04-.02.06-.02s.03 0 .04.01c51.02 25.96 85.07 61.5 101.19 105.63.02.05 0 .1-.05.12-3.78 1.72-7.57 3.41-11.38 5.1-31.82 14.16-64.71 28.81-92.57 61.2-.02.02-.05.04-.08.04z" fill="#dd787d"/><path d="m417.85 418.43s-.03 0-.04-.01c-14.33-7.29-28.88-12.77-43.23-16.26-13.1-3.19-26.36-4.81-39.39-4.81-4.27 0-8.59.17-12.85.52-.04 0-.08-.03-.09-.07-6.76-19.01-10.79-39.98-11.97-62.32 0-.05.04-.1.09-.1 11.44-1.04 21.76-1.9 32.17-1.9 21.71 0 40.68 3.93 61.51 12.74 1.62.69 3.29 1.42 4.96 2.17.04.02.06.05.06.09-.33 11.83.25 23.87 1.7 35.8 1.5 12.31 3.86 23.44 7.2 34.03.01.04 0 .08-.03.11-.02.02-.04.02-.06.02z" fill="#deb2e9"/><path d="m601.81 433.37s-.05-.01-.07-.03c-.03-.03-.03-.07-.02-.1 12.74-34.75 20.08-67.53 21.84-97.41 0-.04.03-.07.07-.09 25.87-9.51 55.18-15.03 87.12-16.39s.05.01.07.03.03.05.03.08c-1.76 38.94-11.04 74.92-27.6 106.94-.02.03-.05.05-.09.05-7.45-.69-14.92-1.03-22.22-1.03-20.26 0-40.14 2.68-59.09 7.95 0 0-.02 0-.03 0z" fill="#edbd83"/><path d="m473.29 394.78s-.05-.01-.07-.03c-18.18-19.53-39.81-35.07-64.31-46.17-.04-.02-.06-.05-.06-.09.96-34.75 9.64-68.95 25.8-101.65.01-.03.04-.04.06-.05h.03c.02 0 .04 0 .06.02 21.45 14.7 40.13 31.39 55.52 49.61 6.86 8.12 13.18 16.72 18.8 25.55.02.04.02.09 0 .12-2.45 2.84-4.68 5.6-6.84 8.44-13.73 18.03-23.45 39.63-28.88 64.19 0 .04-.04.07-.07.08 0 0-.02 0-.03 0z" fill="#f0a8c2"/><path d="m538.91 394.82s-.07-.04-.07-.08c-5.67-25.97-15.72-50.42-29.89-72.69-.02-.04-.02-.09 0-.12 27.88-32.43 60.8-47.08 92.64-61.26 3.8-1.69 7.6-3.38 11.38-5.1h.04.04c.03.01.04.03.05.06 8.78 24.04 12.37 51.03 10.65 80.2 0 .04-.03.07-.07.09-31.86 11.71-58.71 29.61-79.8 53.18-1.62 1.82-3.26 3.73-4.87 5.68-.02.02-.05.04-.08.04z" fill="#f3ae9f"/><path d="m298.74 488.91s-.05-.01-.07-.03c-17.83-18.43-35.25-40.83-51.77-66.6-.01-.02-.02-.05-.01-.08 0-.03.02-.05.05-.06 24.63-14.2 49.99-22.43 75.38-24.48.04 0 .08.03.09.07 7.4 20.82 18.24 39.77 32.22 56.33 5.44 6.44 11.45 12.63 17.87 18.4.03.03.04.07.03.11s-.05.06-.09.07c-28.3.95-53.08 6.42-73.66 16.27-.01 0-.03 0-.04 0z" fill="#bfbef3"/><path d="m333.03 622.51c-3.49-.69-6.89-1.44-10.12-2.22-31.3-7.63-63.38-22.09-95.35-42.99-.04-.02-.05-.07-.04-.12 3.7-10.38 7.45-19.62 11.15-27.46 13-27.63 33.2-48.16 60.04-61h.04c.03 0 .05.01.07.03 28.2 29.15 57.93 48.85 88.35 58.56.03.01.06.04.07.07 0 .03 0 .07-.03.09-22.41 21.77-40.6 47-54.07 74.99-.02.04-.05.06-.09.06 0 0-.01 0-.02 0z" fill="#9cc8ec"/><path d="m698.06 530.92s-.04 0-.05-.02c-11.6-7.49-23.77-14.09-36.17-19.63-2.7-1.2-5.32-2.38-7.87-3.53-10.29-4.63-19.17-8.63-28.01-11.99-.03-.01-.06-.04-.06-.08s0-.07.04-.09c23.05-17.6 42.81-41.56 57.14-69.28.02-.03.05-.05.09-.05 5.09.47 10.18 1.09 15.12 1.84 34.13 5.19 69.32 17.3 104.6 35.99.02.01.04.03.05.06v.08c-17.46 31.55-52.73 54-104.84 66.71h-.02z" fill="#e5c761"/><path d="m340.77 735.36c-10.56 0-21.51-.81-32.55-2.42-.05 0-.08-.05-.08-.1-.68-37.13 7.9-75.33 24.81-110.47.02-.04.05-.06.09-.06h.02c13.82 2.73 27.61 4.11 40.98 4.11 4.73 0 9.5-.17 14.17-.51.03 0 .06.01.08.03s.03.06.02.09c-2.94 13.19-3.85 27.11-2.71 41.37 1.49 18.53 6.49 38.15 14.84 58.3v.08c-.01.03-.03.04-.06.05-18.59 6.32-38.65 9.52-59.62 9.52z" fill="#84cfda"/><path d="m444.81 800.92s-.06-.01-.08-.04c-19.47-25.62-34.43-50.88-44.46-75.09 0-.03 0-.05 0-.08.01-.03.03-.04.06-.05 25.7-8.73 49.12-23.6 69.61-44.19 4.3-4.32 8.43-8.86 12.28-13.49.02-.02.05-.04.08-.04h.02c.04 0 .06.03.08.06 8.06 20.04 19.35 38.61 33.58 55.2 2.22 2.59 4.52 5.13 6.83 7.53.03.03.04.08.01.12-1.7 2.71-3.44 5.37-5.18 7.9-18.08 26.4-42.57 47.3-72.78 62.14-.01 0-.03.01-.04.01z" fill="#86d4bf"/><path d="m598 774.86-1.14-.42c-26.91-9.94-50.15-18.53-74.2-43.56-.03-.03-.04-.08-.01-.12 13.44-21.41 23.06-44.22 30.27-71.79 0-.04.04-.06.07-.07h.02c.03 0 .06.01.07.03 19.12 21.48 41.06 38.6 65.21 50.9.04.02.06.06.05.1-2.81 22.15-9.62 43.98-20.23 64.89-.02.03-.05.05-.09.05-.01 0-.02 0-.04 0z" fill="#a2d39d"/><path d="m691.42 730.81c-25.32-1.96-49.96-8.96-73.22-20.8-.04-.02-.06-.06-.05-.1 1.67-13.12 1.96-26.58.88-40-1.66-20.63-6.6-41.81-14.68-62.93-.01-.04 0-.08.02-.11.02-.02.04-.03.07-.03h.04c16.62 6.83 33.4 11.56 49.88 14.07 5 .76 10.08 1.33 15.09 1.69.04 0 .07.03.09.07 11.07 30.56 18.46 66.91 21.98 108.03 0 .03 0 .06-.03.08-.02.02-.04.03-.07.03z" fill="#c0d086"/><path d="m682.82 623.29c-4.43 0-8.93-.16-13.37-.48-.04 0-.07-.03-.09-.07-12.29-33.94-29.27-61.1-50.48-80.73-.03-.03-.04-.07-.03-.11s.05-.06.09-.07c29.33-1.73 55.94-5.47 79.09-11.11 27.78 17.9 52.96 41.22 74.94 69.34.02.02.02.05.02.08s-.02.05-.05.07c-29.12 15.31-59.44 23.07-90.12 23.07z" fill="#d8ce6b"/><path d="m469.18 452.8s-.05 0-.06-.02c-16.82-14.03-34.09-25.59-51.32-34.35-3.39-10.66-5.75-21.8-7.25-34.12-1.46-11.93-2.03-23.99-1.7-35.83 0-.03.02-.06.05-.08.02 0 .03-.02.05-.02h.04c24.52 11.12 46.18 26.67 64.37 46.22-.64 3.07-1.24 6.13-1.77 9.19-.83 2.63-1.47 4.99-1.98 7.2-2.75 11.93-3.21 24.01-1.39 35.95.28 1.8.63 3.68 1.07 5.74 0 .04 0 .08-.05.11-.02 0-.03.01-.05.01z" fill="#f8cff2"/><path d="m509.91 448.03s-.07-.02-.09-.05c-.44-.76-.88-1.52-1.35-2.27-9.65-19.04-21.51-36.19-35.26-50.97 5.41-24.68 15.14-46.31 28.89-64.36 2.16-2.84 4.4-5.6 6.85-8.45.02-.02.05-.03.08-.03.03 0 .06.02.08.05 14.18 22.28 24.25 46.76 29.92 72.75-17.1 20.81-24.5 39.39-29.03 53.26-.01.04-.04.06-.08.07z" fill="#fbcfd6"/><path d="m543.23 459.51s-.04 0-.05-.02c-.04-.02-.05-.06-.05-.1.73-4.28 1.18-8.66 1.33-13 .15-4.4.01-8.87-.42-13.28-.75-13.07-2.5-25.98-5.2-38.36 1.63-2.04 3.27-3.95 4.9-5.77 21.11-23.6 47.99-41.51 79.88-53.24h.03c.02 0 .04 0 .06.02.03.02.04.05.04.09-1.76 29.9-9.11 62.7-21.86 97.47-15.94 4.48-31.51 10.82-46.34 18.89-3.82 1.87-7.5 4-10.94 6.35-.37.25-.73.51-1.09.77l-.24.17s-.04.02-.06.02z" fill="#fbd6b5"/><path d="m449.3 479.31c-24.16-4.53-46.94-6.83-67.7-6.83-3.08 0-6.17.05-9.17.15-6.49-5.8-12.51-11.99-17.96-18.44-14-16.57-24.85-35.54-32.26-56.39-.01-.03 0-.06 0-.09.02-.03.04-.04.08-.05 4.26-.34 8.59-.52 12.86-.52 13.05 0 26.32 1.62 39.44 4.82 14.37 3.5 28.93 8.98 43.28 16.28 4.88 15.38 11.73 29.42 22.26 45.59 2.54 5.41 5.65 10.56 9.24 15.32.02.03.03.08 0 .11-.02.03-.05.05-.08.05 0 0-.01 0-.02 0z" fill="#ebd9fa"/><path d="m387.1 547.49c-30.45-9.72-60.21-29.44-88.43-58.61-.02-.02-.03-.06-.03-.09s.03-.06.06-.07c20.6-9.86 45.41-15.34 73.74-16.29 17.21 15.43 37.87 28.43 61.46 38.66.04.02.06.05.06.09s-.02.08-.05.09c-6.57 3.39-12.82 7.57-18.62 12.46-9.83 7.2-19.28 15.18-28.08 23.74-.02.02-.04.03-.07.03 0 0-.02 0-.03 0z" fill="#d2e1fb"/><path d="m625.95 495.75c-7-2.66-13.33-4.66-19.37-6.12-7.8-1.88-17.17-3.59-27.85-5.09-.76-.11-1.52-.2-2.27-.29-.04 0-.07-.03-.08-.06s0-.07.02-.1c4.56-5.25 8.48-11.06 11.64-17.28 1.55-3.04 2.92-6.2 4.09-9.37 3.46-8.13 6.68-16.27 9.59-24.21 19.04-5.34 38.94-8.02 59.21-8.02 7.3 0 14.79.35 22.24 1.04.03 0 .06.02.08.05s.02.06 0 .09c-14.35 27.74-34.12 51.72-57.2 69.34-.02.01-.04.02-.06.02-.01 0-.02 0-.04 0z" fill="#f9e094"/><path d="m374.05 626.63c-13.39 0-27.19-1.38-41.02-4.12-.03 0-.06-.03-.07-.05-.01-.03-.01-.06 0-.09 13.48-28.01 31.69-53.26 54.11-75.05.02-.02.04-.03.07-.03h.03c13.88 4.43 28.13 6.84 42.37 7.16.04 0 .08.03.09.06.01.04 0 .08-.02.11-21.59 21.39-35.48 45.41-41.28 71.4 0 .04-.05.07-.09.08-4.67.34-9.44.52-14.18.52z" fill="#b5e7f6"/><path d="m400.36 725.85s-.08-.02-.09-.06c-8.36-20.18-13.36-39.81-14.86-58.36-1.15-14.28-.24-28.22 2.71-41.43 0-.04.05-.07.09-.08 27.28-2 53.79-9.89 78.79-23.45l.52-.26s.03-.01.04-.01c.02 0 .03 0 .05.01.03.02.05.05.05.08 1.6 23.26 6.56 45.37 14.74 65.72.01.03 0 .07-.02.1-3.86 4.63-7.99 9.17-12.3 13.5-20.51 20.61-43.96 35.49-69.69 44.24-.01 0-.02 0-.03 0z" fill="#abebe9"/><path d="m522.73 730.91s-.05-.01-.07-.03c-2.31-2.41-4.61-4.95-6.84-7.54-14.24-16.61-25.55-35.2-33.61-55.26-.01-.03 0-.07.02-.1 17.77-21.34 27.76-42.52 35.2-60.41.02-.04.05-.06.09-.06s.07.02.09.05c9.93 18.8 21.87 36.09 35.48 51.37-7.19 27.68-16.82 50.51-30.27 71.94-.02.03-.04.04-.08.05z" fill="#b9ecd2"/><path d="m618.25 710.02s-.03 0-.04-.01c-24.18-12.31-46.14-29.45-65.27-50.95 1.04-4.16 2.07-8.4 3.04-12.68 1.85-5.7 3.32-11.52 4.37-17.32l.02-.11c.81-4.51 1.38-9.07 1.73-13.96.75-10.45.23-20.89-1.55-31.01 0-.04 0-.08.04-.1.02-.01.04-.02.06-.02s.04 0 .05.02c14.44 9.23 29.17 16.96 43.8 22.97 8.14 21.2 13.09 42.39 14.75 63.04 1.08 13.44.78 26.91-.88 40.05 0 .03-.02.06-.05.08-.01 0-.03.01-.05.01z" fill="#d4ebb7"/><path d="m669.45 622.8c-5.02-.36-10.1-.93-15.11-1.69-16.5-2.51-33.3-7.25-49.93-14.08-6.42-16.69-14.78-33.43-24.89-49.8-2.25-4.93-5.03-9.65-8.27-14.03-.02-.03-.03-.08 0-.11.02-.03.05-.05.09-.05h.01c4.11.46 8.29.69 12.43.69 3.44 0 6.93-.16 10.36-.48 1.49-.14 3.06-.32 4.78-.55 6.76-.19 13.5-.48 20.03-.86 21.3 19.68 38.31 46.86 50.6 80.83.01.03 0 .07-.01.09-.02.02-.05.04-.08.04z" fill="#e8e997"/><path d="m618.95 542.04s-.05 0-.07-.03c-10.03-9.29-21.19-17.04-33.17-23.05-.04-.02-.06-.06-.05-.1 0-.04.03-.07.07-.09 5.58-2.01 10.98-4.59 16.04-7.64 8.29-4.41 16.42-9.65 24.16-15.56 8.94 3.35 17.83 7.35 28.12 11.98 2.56 1.15 5.18 2.33 7.87 3.53 12.42 5.54 24.6 12.15 36.2 19.64.03.02.05.06.04.1s-.04.07-.08.08c-23.16 5.65-49.79 9.39-79.13 11.12z" fill="#f3e68b"/><path d="m433.79 511.34c-23.62-10.24-44.3-23.25-61.46-38.68-.03-.03-.04-.07-.03-.11l.04-.12s.05-.06.09-.07c3-.1 6.08-.15 9.17-.15 20.78 0 43.57 2.3 67.75 6.83 2.28 2.95 4.65 5.7 7.11 8.22 5.33 5.47 11.36 10.17 17.93 13.99.04.02.06.07.05.11l-.04.13s-.05.07-.1.07c0 0-.77 0-1.15 0-13.43 0-26.63 3.29-39.22 9.78-.01 0-.09.01-.1.01s-.03 0-.04 0z" fill="#f1edfd"/><path d="m585.72 519.04c-3.97-1.98-8.01-3.78-12.05-5.36-7.58-3.76-15.66-6.17-24.01-7.17-.95-.11-1.99-.21-3.18-.3-.05 0-.08-.04-.09-.08l-.02-.14s.02-.09.06-.11c11.35-4.81 21.69-12.36 29.91-21.81.96.03 1.76.14 2.43.23 10.7 1.49 20.08 3.21 27.88 5.09 6.05 1.46 12.4 3.47 19.4 6.13.03.01.06.04.06.08l.02.12s0 .07-.04.09c-7.74 5.92-15.88 11.16-24.19 15.58-5.08 3.06-10.49 5.64-16.08 7.66-.01 0-.02 0-.03 0h-.06z" fill="#fcf1b1"/><path d="m486.45 490.11s-.03 0-.05-.01c-4.22-2.26-8.6-4.14-13.02-5.58-4.83-1.58-9.85-2.7-14.94-3.33-2.92-.61-6.01-1.21-9.17-1.81-3.68-4.8-6.81-9.97-9.37-15.42-10.53-16.17-17.39-30.23-22.23-45.57-.01-.04 0-.08.03-.11l.1-.08s.04-.02.06-.02.03 0 .04.01c17.25 8.77 34.53 20.34 51.37 34.39 2.98 13.61 8.96 26.48 17.33 37.27.03.04.03.09 0 .13l-.09.11s-.05.04-.08.04z" fill="#fbe7fc"/><path d="m502.01 485.95s-.07-.02-.09-.05c-1.39-2.31-2.88-4.53-4.41-6.59-5.5-7.41-12.15-13.8-19.78-19.01-2.83-2.52-5.74-5.03-8.65-7.46-.49-2.08-.85-3.97-1.13-5.85-1.83-11.98-1.36-24.09 1.38-36 .52-2.26 1.18-4.64 2-7.26.53-3.02 1.13-6.08 1.79-9.09 0-.04.04-.06.07-.08 0 0 .14-.04.15-.04.03 0 .05.01.07.03 13.77 14.8 25.64 31.96 35.3 51.02.42.67.86 1.41 1.35 2.26-1.72 5.45-3.14 10.46-4.3 14.65-1.43 3.64-2.46 7.37-3.05 11.1-.65 4.08-.81 8.19-.46 12.21 0 .05-.02.09-.07.1l-.13.04s-.02 0-.03 0z" fill="#fde5f6"/><path d="m518.89 486.93s-.08-.06-.07-.1c.54-8.58-.49-17.06-3.07-25.2-1.49-4.7-3.5-9.28-5.99-13.61 4.51-13.97 11.9-32.59 29.05-53.4.02-.02.05-.04.08-.04 0 0 .15.03.15.03.04 0 .07.04.07.08 2.71 12.4 4.46 25.32 5.2 38.4.44 4.42.58 8.9.42 13.31-.15 4.36-.6 8.75-1.34 13.04-10.4 7.46-18.78 16.94-24.25 27.48-.02.03-.05.05-.09.05 0 0-.16-.04-.16-.04z" fill="#fee6df"/><path d="m529.71 494.09s-.05-.01-.07-.03l-.1-.1s-.04-.09-.01-.13c6.69-9.91 11.37-21.83 13.52-34.45l.29-.27c.38-.27.75-.53 1.12-.79 3.45-2.35 7.14-4.49 10.97-6.37 14.84-8.08 30.43-14.43 46.32-18.85h.03c.03 0 .05.01.07.03l.08.09s.03.07.02.1c-2.92 7.96-6.15 16.11-9.6 24.22-1.16 3.17-2.54 6.34-4.1 9.39-3.18 6.24-7.11 12.07-11.68 17.34-3.33-.3-6.48-.47-9.45-.47-13.73 0-26.66 3.55-37.38 10.26-.02.01-.03.02-.05.02z" fill="#feecbf"/><path d="m429.53 554.73c-14.26-.32-28.54-2.74-42.45-7.17l-.09-.19c8.85-8.66 18.3-16.65 28.13-23.85 5.81-4.9 12.07-9.09 18.61-12.46l.13-.03c3.73 1.59 7.45 3.11 11.13 4.52 7.36 4.09 15.12 6.7 23.09 7.76l.19.17s.03.05.03.08-.02.06-.05.07c-3.22 2.01-6.28 4.24-9.1 6.63-11.01 7.72-20.94 15.94-29.5 24.42-.01 0-.11.05-.12.05z" fill="#ddf2fd"/><path d="m388.23 626.18s-.06-.01-.08-.03l-.07-.09c5.79-26.13 19.71-50.2 41.34-71.62l1.41-.02c.72 0 1.42.01 2.13.01 3.59 0 7.22-.13 10.79-.39h.96c8.19 0 16.25-1.29 23.96-3.83 1.6-.53 3.23-1.13 4.86-1.79h.04c.03 0 .05.01.07.03l.09.1s.04.07.02.11c-2.94 6.29-4.96 12.92-6.02 19.7-.92 5.9-1.11 11.91-.57 17.87.02 5.36.21 10.76.57 16.05 0 .02-.04.11-.05.13-.04.04-.46.25-.56.3-25.02 13.58-51.57 21.48-78.89 23.48z" fill="#ccf5fa"/><path d="m482.22 668.17c-8.27-20.44-13.23-42.58-14.83-65.86 0-.02.04-.11.05-.12 3.79-1.87 7.38-3.98 10.74-6.3 9.54-6.61 17.75-15.38 23.74-25.34.02-.03.05-.05.09-.05 0 0 .15.02.15.02.04 0 .07.04.08.08 1 4.15 2.31 8.25 3.87 12.21.52 1.31 1.08 2.64 1.65 3.93 3.02 7.07 6.36 14.07 9.91 20.79-7.41 18-17.4 39.2-35.24 60.63-.02.02-.05.04-.08.04 0 0-.14-.02-.14-.02z" fill="#cff6ef"/><path d="m552.96 659.14s-.06-.01-.07-.03c-13.62-15.3-25.57-32.6-35.52-51.42.45-1.22.9-2.33 1.35-3.43l1.05-2.59c2.86-5.32 5.15-11.05 6.8-17.03 1.99-7.2 3-14.61 3-22.04 0-.24 0-.4 0-.57v-.38s.02-.08.05-.09l.12-.05s.03 0 .04 0c.03 0 .05.01.07.03 5.65 5.94 12.36 10.97 19.92 14.94 3.65 2.55 7.34 5.01 10.97 7.34 1.85 10.21 2.38 20.68 1.63 31.19-.35 4.82-.93 9.52-1.73 13.99l-.02.11c-1.05 5.82-2.53 11.66-4.38 17.35-.97 4.29-2 8.53-3.06 12.58 0 .04-.04.06-.07.07 0 0-.14.03-.14.03z" fill="#dff6de"/><path d="m604.38 607.1c-14.64-6.02-29.39-13.75-43.84-22.99-3.41-19.06-11.1-36.44-22.27-50.31-.03-.04-.03-.09 0-.13l.09-.11s.05-.04.08-.04c.01 0 .03 0 .04.01 9.62 4.79 20.31 7.92 31.76 9.31.21.03 1.11.12 1.11.12 3.34 4.42 6.14 9.16 8.41 14.14 10.12 16.37 18.48 33.12 24.85 49.77.01.04 0 .08-.02.11l-.09.09s-.04.03-.07.03c-.01 0-.03 0-.04 0z" fill="#f0f6c1"/><path d="m583.77 544c-4.15 0-8.34-.23-12.46-.69-1.97-2.57-3.94-4.92-5.92-7.03-4.33-4.61-9.24-8.69-14.56-12.12-.04-.02-.06-.07-.04-.12l.04-.13s.05-.07.09-.07c1.63.09 3.28.14 4.91.14 8.86 0 17.7-1.36 26.25-4.04 1.08-.34 2.23-.73 3.61-1.23 12.1 6 23.3 13.77 33.37 23.1.03.03.04.07.03.11l-.04.12s-.05.06-.09.06c-6.52.38-13.26.67-20.03.86-1.7.23-3.27.41-4.78.55-3.44.32-6.94.48-10.39.48z" fill="#f8f4ae"/><path d="m505.41 508.23c-5.77-2.52-11.82-4.36-17.99-5.47-4.28-.77-8.69-1.19-13.12-1.26-6.63-3.84-12.68-8.56-18.04-14.05-2.49-2.56-4.86-5.31-7.03-8.18-.02-.03-.03-.08 0-.11.02-.03.05-.05.08-.05h.02c3.16.59 6.24 1.2 9.16 1.81 5.09.63 10.13 1.76 14.98 3.34 4.44 1.45 8.83 3.33 13.06 5.6 5.46 7.03 11.84 13.15 18.97 18.2.04.03.05.09.03.13-.02.03-.05.05-.09.05-.01 0-.03 0-.04 0z" fill="#fcf4fe"/><path d="m509.68 508.63s-.06-.01-.08-.03c-6.56-7.59-14.35-13.83-23.16-18.56-8.43-10.86-14.42-23.75-17.35-37.31 0-.04 0-.08.05-.11.02 0 .03-.01.05-.01s.05 0 .06.02c2.93 2.45 5.84 4.95 8.64 7.45 7.64 5.22 14.32 11.64 19.84 19.07 1.54 2.08 3.03 4.31 4.43 6.62l.03.2.02.21c.73 7.83 3.27 15.34 7.57 22.31.03.04.02.1-.03.13-.02.01-.04.02-.06.02z" fill="#fef2fd"/><path d="m511.84 510.23s-.09-.03-.1-.08c-1.92-8.57-5.21-16.74-9.76-24.28-.36-4.09-.2-8.22.45-12.32.6-3.74 1.63-7.49 3.06-11.14 1.16-4.21 2.59-9.24 4.31-14.51.01-.04.04-.06.08-.07.04 0 .07.02.09.05 2.5 4.36 4.52 8.95 6.01 13.66 2.59 8.17 3.63 16.69 3.09 25.3-3.87 7.47-6.28 15.29-7.16 23.3 0 .05-.04.09-.09.09z" fill="#fff1f8"/><path d="m514.61 507.23s-.03 0-.05-.01c-.04-.02-.06-.08-.04-.12 2.46-6.5 3.93-13.32 4.37-20.27 5.52-10.63 13.91-20.13 24.28-27.5.02-.01.04-.02.06-.02s.04 0 .05.02c.04.02.05.06.05.1-2.16 12.66-6.85 24.61-13.57 34.56-4.31 2.71-8.26 5.9-11.75 9.5-1.14 1.18-2.25 2.42-3.32 3.72-.02.02-.05.04-.08.04z" fill="#fff4e3"/><path d="m513.89 510.95s-.07-.02-.09-.05c-.02-.04-.01-.1.03-.13 6.01-4.62 11.31-10.31 15.76-16.9 10.79-6.77 23.76-10.33 37.55-10.33 3.07 0 6.21.18 9.33.53.04 0 .07.03.08.06s0 .07-.02.1c-8.25 9.49-18.62 17.06-30.01 21.89-1.92-.14-3.83-.21-5.71-.21-4.41 0-8.85.4-13.2 1.18-4.65.84-9.26 2.14-13.69 3.85-.01 0-.02 0-.04 0z" fill="#fef6d0"/><path d="m468.15 523.58v-.1s-.04.09-.04.09c-8.06-1.08-15.86-3.7-23.23-7.79-3.69-1.41-7.42-2.93-11.06-4.51-.04-.02-.06-.05-.06-.09s.02-.07.05-.09c12.63-6.51 25.87-9.81 39.35-9.81h1.15c9.7 5.63 20.15 9.14 31.1 10.45.05 0 .09.05.09.1s-.04.09-.09.1c-10.48.5-20.57 3.07-29.99 7.64-2.41 1.17-4.83 2.51-7.19 3.98-.02 0-.03.02-.05.02 0 0 0 0-.01 0z" fill="#f4f7fe"/><path d="m432.96 554.7c-1.15 0-2.29-.01-3.43-.04-.04 0-.08-.03-.09-.06-.01-.04 0-.08.02-.11 8.57-8.49 18.51-16.72 29.52-24.44 2.82-2.39 5.89-4.63 9.13-6.65 2.71.34 5.39.51 8.03.51 6.95 0 13.82-1.21 20.39-3.59h.03c.04 0 .07.02.09.05.02.04.01.1-.03.13-9.83 7.3-17.76 17.03-22.94 28.13-1.69.71-3.33 1.32-4.93 1.84-7.74 2.55-15.84 3.84-24.05 3.84 0 0-.64 0-.95 0-3.57.26-7.2.39-10.8.39z" fill="#e8fafe"/><path d="m467.56 602.39s-.03 0-.05-.01c-.03-.02-.05-.05-.05-.08-.36-5.26-.56-10.67-.57-16.05-.54-5.97-.35-12 .57-17.92 1.06-6.81 3.09-13.46 6.04-19.78 5.28-2.18 10.27-4.89 14.88-8.11 5.84-4.08 11.01-8.94 15.39-14.45.02-.02.05-.04.08-.04.02 0 .03 0 .05.01.04.02.06.08.04.12-4.93 13.58-5.54 28.98-1.77 44.52-6.03 10.07-14.27 18.86-23.83 25.49-3.36 2.33-6.97 4.44-10.73 6.28-.01 0-.03.01-.04.01z" fill="#e1fbfb"/><path d="m517.52 607.7s-.07-.02-.09-.05c-3.56-6.75-6.9-13.75-9.92-20.81-.58-1.3-1.14-2.63-1.66-3.94-1.57-3.97-2.87-8.09-3.88-12.24 6.77-11.29 10.77-24.09 11.6-37.1 0-.05.04-.09.09-.09.04 0 .08.03.1.07 2.79 10.25 8.04 19.55 15.6 27.63.07.08.41.42.41.42l.04.46v.47c0 7.53-1.02 14.98-3.01 22.2-1.66 5.99-3.95 11.74-6.82 17.07-.78 1.93-1.58 3.89-2.39 5.86-.02.04-.05.06-.09.06z" fill="#e9fbf3"/><path d="m560.64 584.06s-.04 0-.05-.02c-3.65-2.33-7.33-4.8-10.96-7.33-7.58-3.98-14.3-9.02-19.98-14.99-.2-15.93-4.86-31.28-13.5-44.45-.03-.04-.02-.1.02-.13.02-.01.04-.02.06-.02.03 0 .05.01.07.03 5.94 6.56 13.39 12.1 22.15 16.45 11.25 13.95 18.95 31.34 22.28 50.34 0 .04 0 .08-.04.1-.02.01-.04.02-.06.02z" fill="#f4fbe3"/><path d="m570.21 543.11c-11.48-1.4-22.2-4.54-31.85-9.34-5.35-6.62-11.4-12.36-18.02-17.08-.04-.03-.05-.09-.03-.13.02-.03.05-.05.09-.05h.04c5.09 2.26 10.42 4.04 15.83 5.29 4.82 1.11 9.76 1.82 14.66 2.1 5.4 3.46 10.31 7.55 14.66 12.18 2.04 2.17 3.99 4.52 5.82 6.98.02.03.03.08 0 .11-.02.03-.05.05-.09.05 0 0-.9-.09-1.12-.12z" fill="#fafacf"/><path d="m555.85 524.25c-1.64 0-3.29-.05-4.93-.14-9.86-6.33-20.72-10.26-32.32-11.68-.05 0-.09-.05-.09-.1s.04-.09.09-.1c.8-.04 1.6-.08 2.41-.14 8.79-.66 17.35-2.73 25.44-6.16 1.24.08 2.28.18 3.23.3 8.39 1.01 16.5 3.43 24.09 7.19 4.03 1.58 8.08 3.38 12.03 5.36.04.02.06.06.05.1 0 .04-.03.07-.07.09-1.38.5-2.53.89-3.62 1.23-8.58 2.69-17.44 4.05-26.33 4.05z" fill="#fdf9c8"/><path d="m511.26 511.05s-.03 0-.05-.01c-1.89-1.01-3.85-1.96-5.8-2.81-7.17-5.07-13.56-11.2-19-18.22-.03-.04-.03-.09 0-.13.02-.02.05-.04.08-.04.02 0 .03 0 .05.01 8.83 4.74 16.65 11 23.22 18.61.51.83 1.04 1.64 1.58 2.43.03.04.02.09 0 .12-.02.02-.05.03-.07.03z" fill="#fef9fe"/><path d="m511.67 511.03s-.04 0-.05-.02c-.66-.82-1.33-1.63-2.02-2.42-4.32-7.01-6.88-14.54-7.61-22.41l-.03-.37s.02-.09.07-.1h.03c.03 0 .07.02.09.05 4.56 7.57 7.85 15.76 9.78 24.34l-.07.77s-.04.08-.05.09c-.02.03-.06.06-.09.06-.01 0-.03 0-.04 0z" fill="#fff8fd"/><path d="m511.92 510.72s-.07-.04-.08-.08l-.11-.49c.88-8.06 3.29-15.91 7.16-23.36.02-.03.05-.05.09-.05h.03c.05.01.08.06.07.1-.44 6.97-1.92 13.81-4.39 20.33-.91 1.11-1.78 2.25-2.68 3.51-.02.03-.05.04-.08.04 0 0-.01 0-.02 0z" fill="#fff9f9"/><path d="m476.14 524.11c-2.65 0-5.34-.18-7.99-.53-.04 0-.08-.04-.08-.08s0-.08.04-.11c2.36-1.47 4.79-2.82 7.21-3.99 9.45-4.59 19.56-7.17 30.07-7.66 1.65.2 3.35.34 5.06.44.05 0 .08.04.09.08 0 .05-.02.09-.06.11-4.87 2.18-9.53 4.91-13.85 8.12-6.63 2.4-13.51 3.62-20.49 3.62z" fill="#f7fcfe"/><path d="m473.59 548.69s-.05-.01-.07-.03c-.03-.03-.04-.07-.02-.11 5.2-11.13 13.15-20.89 23-28.21 3.57-1.3 7.02-2.91 10.27-4.81.95-.56 1.89-1.14 3-1.87.02-.01.04-.02.05-.02.03 0 .05 0 .07.03.03.03.04.08.01.12-2.39 3.8-4.4 7.94-5.98 12.29-4.4 5.55-9.59 10.42-15.44 14.51-4.62 3.23-9.62 5.95-14.87 8.08-.01 0-.03 0-.04 0z" fill="#f2fdfe"/><path d="m502.05 570.73s-.07-.04-.08-.08c-3.78-15.58-3.16-31.01 1.78-44.63 2.97-3.74 5.55-7.77 7.69-11.98.02-.03.05-.05.09-.05h.03c.05.01.08.05.07.1-.17 3.61-.03 7.23.41 10.75.37 2.91.95 5.82 1.73 8.7-.83 13.07-4.85 25.91-11.62 37.15-.02.03-.05.05-.09.05 0 0 0 0-.02 0z" fill="#f1fdfc"/><path d="m529.72 561.75s-.05-.01-.07-.03c0 0-.34-.35-.41-.42-7.59-8.11-12.85-17.43-15.65-27.71.24-3.83.22-7.67-.06-11.46-.24-3.2-.67-6.41-1.29-9.6 0-.04 0-.08.04-.1.02-.01.04-.02.06-.02s.03 0 .05.01c.01 0 .11.06.12.08 1.18 1.59 2.46 3.15 3.81 4.64 8.67 13.22 13.34 28.6 13.51 44.5 0 .04-.02.08-.06.09-.01 0-.02 0-.04 0z" fill="#f7fdf5"/><path d="m538.41 533.79s-.03 0-.04-.01c-8.78-4.37-16.25-9.92-22.21-16.5-.94-1.43-1.91-2.81-2.88-4.12-.03-.04-.03-.09 0-.13.02-.02.05-.03.08-.03.02 0 .03 0 .05.01 2.28 1.27 4.65 2.46 7.04 3.52 6.65 4.74 12.72 10.49 18.04 17.1.03.04.03.09 0 .13-.02.02-.05.04-.08.04z" fill="#fcfde9"/><path d="m550.92 524.11c-4.92-.28-9.86-.99-14.7-2.1-5.42-1.25-10.76-3.03-15.86-5.3-2.15-1.53-4.34-2.94-6.53-4.22-.04-.02-.06-.07-.05-.11s.05-.07.1-.07h1.1c1.21 0 2.43-.03 3.62-.08 11.64 1.43 22.53 5.36 32.37 11.69.04.02.06.07.04.11-.01.04-.05.07-.09.07z" fill="#fefcdf"/><path d="m505.38 511.94c-10.98-1.32-21.45-4.84-31.13-10.46-.04-.02-.06-.07-.05-.11s.05-.07.1-.07c4.44.06 8.87.49 13.15 1.26 6.18 1.11 12.25 2.96 18.03 5.49 1.83 1.29 3.71 2.52 5.61 3.65.04.02.06.07.04.11-.01.04-.05.07-.1.07-.65-.02-1.3-.02-1.94-.02-1.23 0-2.47.03-3.71.09s0 0-.01 0z" fill="#fdfafe"/><path d="m512.89 511.34s-.05-.01-.07-.03c-.03-.03-.04-.07-.02-.11.66-1.45 1.22-2.79 1.71-4.1 1.09-1.33 2.21-2.58 3.32-3.73 3.53-3.64 7.49-6.84 11.79-9.53.02-.01.03-.02.05-.02.03 0 .05.01.07.03.03.03.04.09.01.13-4.46 6.61-9.78 12.31-15.81 16.95-.36.14-.69.27-1.02.41-.01 0-.02 0-.04 0z" fill="#fffaeb"/><path d="m518.6 512.43c-1.89-.23-3.81-.4-5.71-.49l-.14-.07-.09-.05s-.05-.05-.05-.08.01-.07.04-.09c.4-.29.79-.59 1.18-.89 4.47-1.74 9.09-3.04 13.76-3.88 4.36-.79 8.82-1.19 13.24-1.19 1.88 0 3.79.07 5.68.22.05 0 .08.04.09.08s-.02.09-.06.11c-8.11 3.44-16.69 5.52-25.5 6.17-.81.06-1.61.11-2.41.14s0 0-.01 0z" fill="#fffbde"/><path d="m513.61 533.68s-.08-.03-.1-.07c-.79-2.89-1.37-5.81-1.73-8.69-.41-3.32-.56-6.7-.45-10.08-2.08 3.99-4.55 7.79-7.35 11.31-.02.02-.05.04-.08.04-.02 0-.03 0-.05-.01l-.12-.07s-.06-.08-.04-.12c1.5-4.13 3.38-8.06 5.6-11.69-.84.54-1.59 1-2.33 1.44-3.3 1.92-6.77 3.55-10.33 4.84-.01 0-.02 0-.03 0-.04 0-.07-.02-.09-.05l-.07-.12s-.01-.1.03-.13c4.15-3.09 8.62-5.73 13.28-7.87-1.48-.1-2.94-.23-4.37-.4-.05 0-.09-.05-.09-.1v-.14c0-.05.05-.09.1-.1 1.24-.06 2.5-.09 3.72-.09.43 0 .87 0 1.3.01-1.72-1.05-3.42-2.17-5.06-3.32-.04-.03-.05-.09-.03-.13l.07-.12s.05-.05.09-.05h.04c1.75.76 3.5 1.6 5.21 2.5-.41-.61-.81-1.23-1.2-1.86-.03-.04-.02-.1.03-.13l.11-.08s.04-.02.06-.02c.03 0 .06.01.08.03.61.71 1.22 1.44 1.81 2.17.01-.16.03-.32.05-.48 0-.05.05-.09.09-.09h.14c.05 0 .09.03.1.08l.03.12c.82-1.14 1.62-2.18 2.45-3.18.02-.02.05-.04.08-.04.02 0 .04 0 .05.01l.12.07s.06.08.04.12c-.45 1.2-.96 2.42-1.55 3.73.2-.08.4-.16.6-.24h.04c.04 0 .07.02.09.05l.07.12s.01.1-.03.13c-.29.23-.59.45-.89.67 1.98.13 3.8.29 5.52.5.05 0 .09.05.09.1v.14c0 .05-.05.09-.1.1-1.2.05-2.42.08-3.63.08h-.47c2.02 1.19 4.03 2.5 5.98 3.89.04.03.05.09.03.13l-.07.12s-.05.05-.09.05c-.01 0-.03 0-.04 0-2.16-.96-4.3-2.02-6.38-3.15.82 1.12 1.63 2.3 2.42 3.49.03.04.02.1-.02.13l-.11.09s-.04.02-.06.02c-.03 0-.05-.01-.07-.03-1.23-1.36-2.4-2.77-3.48-4.21.55 2.98.95 5.98 1.17 8.93.29 3.83.31 7.71.06 11.52 0 .05-.04.09-.09.09 0 0-.15.01-.15.01z" fill="#fffdfb"/></svg>