<svg viewBox="0 0 1024 1024" xmlns="http://www.w3.org/2000/svg"><path d="m512 0c-39.96 0-78.84 4.58-116.16 13.24-4.83 1.12-7.56 6.24-5.81 10.87 8.25 21.9 23.48 65.32 24.7 68.85 2.18 6.3 17.31 51.26 23.65 71.25 1.25 3.94 5.24 6.32 9.3 5.56 20.85-3.9 42.34-5.94 64.32-5.94 33.19 0 65.3 4.65 95.7 13.32 4.41 1.26 9-1.32 10.17-5.76 5.7-21.5 16.79-64.13 18.67-71.16.82-3.05 13.09-50.51 18.14-71.95 1.01-4.29-1.55-8.61-5.8-9.78-43.57-12.05-89.47-18.5-136.88-18.5z" fill="#dd787d"/><path d="m385 100.99c-1.03-2.98-17.47-49.36-25.2-69.79-1.56-4.12-6.1-6.26-10.28-4.87-27.48 9.19-53.92 20.64-79.1 34.14-1.19.64-2.51.97-3.85.97h-174.95c-8.14 0-11.3 10.58-4.5 15.04 26.64 17.48 68.33 45.28 81.2 56.02l.75.63c16.36 13.69 74.63 67.68 87.52 79.72 1.52 1.42 3.51 2.2 5.59 2.2h65.74c1.49 0 2.95-.41 4.23-1.19 22.45-13.57 46.55-24.67 71.93-32.93 4.37-1.42 6.73-6.13 5.23-10.46-7.31-21.06-21.93-62.58-24.3-69.47z" fill="#c780aa"/><path d="m133.12 143.52c-11.56-9.02-41.55-28.84-59.06-40.13-5.45-3.51-12.62.4-12.62 6.89v156.29c0 1.34-.34 2.67-.97 3.85-10.19 19-19.2 38.72-26.97 59.06-1.76 4.6.94 9.7 5.73 10.87 21.18 5.14 67.46 17.04 70.97 17.98 6.62 1.76 49.42 13.37 72.19 20.28 3.99 1.21 8.24-.77 9.9-4.6 6.26-14.49 13.47-28.47 21.57-41.86.77-1.28 1.19-2.74 1.19-4.23v-107.99c0-2.33-.98-4.54-2.72-6.09-13.91-12.48-75.2-67.18-79.2-70.31z" fill="#a188db"/><path d="m177.16 416.3c1.26-4.41-1.32-9-5.76-10.17-21.5-5.7-64.13-16.79-71.16-18.67-3.05-.82-50.51-13.09-71.95-18.14-4.29-1.01-8.61 1.55-9.78 5.8-12.06 43.57-18.51 89.47-18.51 136.88 0 39.96 4.58 78.84 13.24 116.16 1.12 4.83 6.24 7.56 10.87 5.81 21.9-8.25 65.32-23.48 68.85-24.7 6.3-2.18 51.26-17.31 71.25-23.65 3.94-1.25 6.32-5.24 5.56-9.3-3.9-20.85-5.94-42.34-5.94-64.32 0-33.19 4.65-65.3 13.32-95.7z" fill="#7894dc"/><path d="m180.92 619.93c-1.42-4.37-6.13-6.73-10.46-5.23-21.06 7.31-62.58 21.93-69.47 24.3-2.98 1.03-49.36 17.47-69.79 25.2-4.12 1.56-6.26 6.1-4.87 10.28 9.19 27.48 20.64 53.92 34.14 79.1.64 1.19.97 2.51.97 3.85v175.06c0 8.14 10.57 11.3 15.04 4.5 17.5-26.67 45.37-68.54 56.02-81.3l.63-.75c13.69-16.36 67.68-74.63 79.72-87.52 1.42-1.52 2.2-3.51 2.2-5.59v-65.74c0-1.49-.41-2.95-1.19-4.23-13.57-22.45-24.67-46.55-32.93-71.93z" fill="#609dc2"/><path d="m327.91 808.96h-107.99c-2.33 0-4.54.98-6.09 2.72-12.48 13.91-67.18 75.2-70.31 79.2-9.02 11.56-28.84 41.55-40.13 59.06-3.51 5.45.4 12.62 6.89 12.62h156.29c1.34 0 2.67.34 3.85.97 19 10.19 38.72 19.2 59.06 26.97 4.6 1.76 9.7-.94 10.87-5.73 5.14-21.18 17.04-67.46 17.98-70.97 1.76-6.62 13.37-49.42 20.28-72.19 1.21-3.99-.77-8.24-4.6-9.9-14.49-6.26-28.47-13.47-41.86-21.57-1.28-.77-2.74-1.19-4.23-1.19z" fill="#55a69e"/><path d="m609.27 931.03c-2.18-6.3-17.31-51.26-23.65-71.25-1.25-3.94-5.24-6.32-9.3-5.56-20.85 3.9-42.34 5.94-64.32 5.94-33.19 0-65.3-4.65-95.7-13.32-4.41-1.26-9 1.32-10.17 5.76-5.7 21.5-16.79 64.13-18.67 71.16-.82 3.05-13.09 50.51-18.14 71.95-1.01 4.29 1.55 8.61 5.8 9.78 43.57 12.06 89.47 18.51 136.88 18.51 39.96 0 78.84-4.58 116.16-13.24 4.83-1.12 7.56-6.24 5.81-10.87-8.25-21.9-23.48-65.32-24.7-68.85z" fill="#64aa7d"/><path d="m855.68 891.51c-.25-.21-.5-.42-.75-.63-16.36-13.69-74.63-67.68-87.52-79.72-1.52-1.42-3.51-2.2-5.59-2.2h-65.74c-1.49 0-2.95.41-4.23 1.19-22.45 13.57-46.55 24.67-71.93 32.93-4.37 1.42-6.73 6.13-5.23 10.46 7.31 21.06 21.93 62.58 24.3 69.47 1.03 2.98 17.47 49.36 25.2 69.79 1.56 4.12 6.1 6.26 10.28 4.87 27.48-9.19 53.92-20.64 79.1-34.14 1.19-.64 2.51-.97 3.85-.97h174.95c8.14 0 11.3-10.58 4.5-15.04-26.64-17.48-68.33-45.28-81.2-56.02z" fill="#82a663"/><path d="m913.8 665.68c-6.62-1.76-49.42-13.37-72.19-20.28-3.99-1.21-8.24.77-9.9 4.6-6.26 14.49-13.47 28.47-21.57 41.86-.77 1.28-1.19 2.74-1.19 4.23v107.99c0 2.33.98 4.54 2.72 6.09 13.91 12.48 75.2 67.18 79.2 70.31 11.56 9.02 41.55 28.84 59.06 40.13 5.45 3.51 12.62-.4 12.62-6.89v-156.29c0-1.34.34-2.67.97-3.85 10.19-19 19.2-38.72 26.97-59.06 1.76-4.6-.94-9.7-5.73-10.87-21.18-5.14-67.46-17.04-70.97-17.98z" fill="#a2a55c"/><path d="m1010.76 395.84c-1.12-4.83-6.24-7.56-10.87-5.81-21.9 8.25-65.32 23.48-68.85 24.7-6.3 2.18-51.26 17.31-71.25 23.65-3.94 1.25-6.32 5.24-5.56 9.3 3.9 20.85 5.94 42.34 5.94 64.32 0 33.19-4.65 65.29-13.32 95.7-1.26 4.41 1.32 9 5.76 10.17 21.5 5.7 64.13 16.79 71.16 18.67 3.05.82 50.51 13.09 71.95 18.14 4.29 1.01 8.61-1.55 9.78-5.8 12.06-43.57 18.51-89.47 18.51-136.88 0-39.96-4.58-78.84-13.24-116.16z" fill="#ba9e3f"/><path d="m962.56 266.57v-174.95c0-8.14-10.58-11.3-15.04-4.5-17.48 26.64-45.28 68.33-56.02 81.2-.21.25-.42.5-.63.75-13.69 16.36-67.68 74.63-79.72 87.52-1.42 1.52-2.2 3.51-2.2 5.59v65.74c0 1.49.41 2.95 1.19 4.23 13.57 22.45 24.67 46.55 32.93 71.93 1.42 4.37 6.13 6.73 10.46 5.23 21.06-7.31 62.58-21.93 69.47-24.3 2.98-1.03 49.36-17.47 69.79-25.2 4.12-1.56 6.26-6.1 4.87-10.28-9.19-27.48-20.64-53.92-34.14-79.1-.64-1.19-.97-2.51-.97-3.85z" fill="#c8904c"/><path d="m753.58 60.47c-19-10.19-38.72-19.2-59.06-26.97-4.6-1.76-9.7.94-10.87 5.73-5.14 21.18-17.04 67.46-17.98 70.97-1.76 6.62-13.37 49.42-20.28 72.19-1.21 3.99.77 8.24 4.6 9.9 14.49 6.26 28.47 13.47 41.86 21.57 1.28.77 2.74 1.19 4.23 1.19h107.99c2.33 0 4.54-.98 6.09-2.72 12.48-13.91 67.18-75.2 70.31-79.2 9.02-11.56 28.84-41.55 40.13-59.06 3.51-5.45-.4-12.62-6.89-12.62h-156.29c-1.34 0-2.67-.34-3.85-.97z" fill="#d98665"/></svg>