<svg viewBox="0 0 1024 1024" xmlns="http://www.w3.org/2000/svg"><path d="m827.99 688.37c-4.08-117.55-7.08-235.11-9.08-352.69-.1-5.87-3.1-11.32-7.9-14.28-96.08-59.57-195.08-117.07-291.39-169.57-4.81-2.63-10.73-2.42-15.54.54-96.25 59.18-195.18 120.04-291.34 179.68-4.8 2.97-7.8 8.2-7.91 13.73-2.04 110.76-4.97 221.46-8.83 332.07-.19 5.52 2.63 10.75 7.43 13.73 96.2 59.73 198.07 120.73 300.17 180.02 5.1 2.97 11.39 3.19 16.5.56 102.17-52.38 204.28-109.92 300.48-169.52 4.8-2.97 7.62-8.41 7.41-14.28z" fill="#55a69e"/></svg>