<svg viewBox="0 0 1024 1024" xmlns="http://www.w3.org/2000/svg"><path d="m873.99 712.41c-4.67-117.6-11.57-283.54-13.85-401.16-.12-5.87-3.37-11.68-9.05-14.29-117.72-54.12-208.32-90.01-330.36-145.32-5.56-2.52-12.07-1.96-17.8.54-123.05 53.77-203.28 91.2-329.17 141.01-5.81 2.3-8.94 8.21-9.06 13.74-2.34 110.81-10.27 296.31-14.69 406.97-.22 5.52 2.85 11.09 8.51 13.73 117.44 54.91 221.29 91.4 343.86 144.08 6.02 2.59 13.08 3.25 18.9.56 124.9-57.61 224.6-90.43 344.22-145.58 5.68-2.62 8.72-8.42 8.49-14.29z" fill="#82a663"/></svg>