<svg viewBox="0 0 419.53 297.64" xmlns="http://www.w3.org/2000/svg"><path d="M419.53 285.33V14.17c0-7.83-6.35-14.17-14.17-14.17H12.31C5.51 0 0 5.51 0 12.31v273.02c0 6.8 5.51 12.31 12.31 12.31h394.91c6.8 0 12.31-5.51 12.31-12.31z" fill="#363434"/><path d="M209.76 206.93H0v53.52c68.12 12.02 138.21 18.34 209.76 18.39h.72c71.3 0 141.15-6.24 209.04-18.13v-53.77H209.76z" fill="#babb77"/><path d="M209.76 206.93v71.9h.72c71.3 0 141.15-6.24 209.04-18.13v-53.77z" fill="#a1a55b"/><path d="M209.99 17.01c-3.02 0-5.92 1.24-8.24 3.33a.58.58 0 0 0-.17.43c0 2.95-.22 9.6-.32 12.55-.01.39.31.66.55.45 2.08-1.77 5.04-3.32 7.95-3.29s6.01 1.43 7.95 3.45c.23.24.56-.05.55-.45-.11-3.07-.39-9.65-.39-12.72 0-.18-.06-.35-.17-.45-2.32-2.14-4.23-3.3-7.71-3.3z" fill="#b06993"/></svg>