<?xml version="1.0" encoding="UTF-8"?><svg xmlns="http://www.w3.org/2000/svg" viewBox="0 0 419.53 297.64"><g id="Zugabe"><path d="M-8.5,223.19v35.74c2.83.52,5.67,1.02,8.5,1.52v-37.94l-8.5.67Z" fill="#7fc395"/><path d="M428.03,206.96l-8.5.57v53.17c2.84-.5,5.67-.99,8.5-1.5v-52.24Z" fill="#66ac7e"/></g><g id="Karte"><path d="M419.53,285.33V14.17c0-7.83-6.35-14.17-14.17-14.17H12.31C5.51,0,0,5.51,0,12.31v273.02c0,6.8,5.51,12.31,12.31,12.31h394.91c6.8,0,12.31-5.51,12.31-12.31Z" fill="#363434"/></g><g id="Gestaltung"><path d="M209.52,222.51v-7.79c0-4.7-4.43-8.39-9.58-7.98L0,222.52v37.94c55.71,9.83,112.75,15.84,170.82,17.73,12.85.42,25.75.64,38.7.65.32,0,.64,0,.97,0,71.3,0,141.15-6.24,209.04-18.13v-52.17l-210.01,13.99Z" fill="#7fc395"/><path d="M209.52,221.51v57.31c.32,0,.64,0,.97,0,71.3,0,141.15-6.24,209.04-18.13v-53.17l-210.01,13.99Z" fill="#66ac7e"/></g><g id="Symbole"><path id="regardio-system-bridge-icon" d="M209.99,17.01c-3.02,0-5.92,1.24-8.24,3.33-.11.1-.17.26-.17.43,0,2.95-.22,9.6-.32,12.55-.01.39.31.66.55.45,2.08-1.77,5.04-3.32,7.95-3.29,2.91.03,6.01,1.43,7.95,3.45.23.24.56-.05.55-.45-.11-3.07-.39-9.65-.39-12.72,0-.18-.06-.35-.17-.45-2.32-2.14-4.23-3.3-7.71-3.3Z" fill="#897f7f"/></g></svg>