<?xml version="1.0" encoding="UTF-8"?><svg xmlns="http://www.w3.org/2000/svg" viewBox="0 0 419.53 297.64"><g id="Karte"><path d="M419.53,285.33V14.17c0-7.83-6.35-14.17-14.17-14.17H12.31C5.51,0,0,5.51,0,12.31v273.02c0,6.8,5.51,12.31,12.31,12.31h394.91c6.8,0,12.31-5.51,12.31-12.31Z" fill="#363434"/></g><g id="Gestaltung"><path d="M209.76,236.93H0v23.51c68.12,12.02,138.45,18.35,210,18.39.24,0-.24,0,0,0,71.15,0,141.76-6.19,209.52-18.04l.04-23.86h-209.8Z" fill="#a09392"/><path d="M0,236.93v23.51c68.09,12.01,138.48,18.35,210,18.39l-.24-41.9H0Z" fill="#cec3c1"/></g><g id="Symbole"><path id="regardio-system-bridge-icon" d="M209.99,17.01c-3.02,0-5.92,1.24-8.24,3.33-.11.1-.17.26-.17.43,0,2.95-.22,9.6-.32,12.55-.01.39.31.66.55.45,2.08-1.77,5.04-3.32,7.95-3.29,2.91.03,6.01,1.43,7.95,3.45.23.24.56-.05.55-.45-.11-3.07-.39-9.65-.39-12.72,0-.18-.06-.35-.17-.45-2.32-2.14-4.23-3.3-7.71-3.3Z" fill="#897f7f"/></g></svg>