<svg viewBox="0 0 419.53 297.64" xmlns="http://www.w3.org/2000/svg"><path d="m419.53 285.33v-271.16c0-7.83-6.35-14.17-14.17-14.17h-393.05c-6.8 0-12.31 5.51-12.31 12.31v273.02c0 6.8 5.51 12.31 12.31 12.31h394.91c6.8 0 12.31-5.51 12.31-12.31z" fill="#363434"/><path d="m84.67 272.31c10.48 1.09 20.99 2.04 31.55 2.86 7.78.6 15.57 1.13 23.39 1.59-7.82-.46-15.61-.99-23.39-1.59-10.56-.82-21.07-1.77-31.55-2.86z" fill="#629fc5"/><path d="m68.98 270.58c-10.44-1.22-20.83-2.58-31.19-4.07 10.35 1.49 20.75 2.84 31.19 4.07z" fill="#77b3dc"/><path d="m151.35 277.39c19.59.95 39.31 1.44 59.13 1.44 11.74 0 23.44-.17 35.1-.51-11.66.34-23.36.51-35.1.51-19.83 0-39.54-.49-59.13-1.44z" fill="#77b3dc"/><path d="m125.35 227.48c-5.16.36-9.13 3.83-9.13 7.98v12.01l-116.22 8.06v4.91c2.29.4 4.57.83 6.86 1.22 10.27 1.75 20.58 3.37 30.93 4.86s20.75 2.84 31.19 4.07c5.22.61 10.45 1.19 15.69 1.73 10.48 1.09 20.99 2.04 31.55 2.86 7.78.6 15.57 1.13 23.39 1.59 3.91.23 7.82.44 11.74.63 19.59.95 39.31 1.44 59.13 1.44 11.74 0 23.44-.17 35.1-.51 3.89-.11 7.77-.24 11.65-.39 15.51-.6 30.94-1.49 46.29-2.67 39.23-3.01 77.92-7.9 116-14.58v-53.19l-294.18 19.98z" fill="#629fc5"/><path d="m293.94 234.15-177.72 12.32-116.22 8.06v5.91c38.15 6.73 76.92 11.69 116.22 14.74 31.11 2.42 62.54 3.66 94.26 3.66s62.33-1.21 93.04-3.57v-33.13c0-4.7-4.43-8.39-9.58-7.98z" fill="#77b3dc"/><path d="m209.99 19.5c-2.99.04-6.07.9-8.4 2.81-.11.09-.17.24-.17.4 0 2.7-.06 5.41-.16 8.11-.01.36.29.59.55.42 2.37-1.6 5.04-2.54 7.95-2.52 2.91.03 5.58 1.01 7.96 2.74.26.19.56-.04.55-.42-.11-2.81-.17-5.63-.17-8.44 0-.17-.06-.32-.17-.41-2.32-1.96-4.94-2.74-7.94-2.69z" fill="#897f7f" opacity=".5"/></svg>