<svg viewBox="0 0 419.53 297.64" xmlns="http://www.w3.org/2000/svg"><path d="m419.53 285.33v-271.16c0-7.83-6.35-14.17-14.17-14.17h-393.05c-6.8 0-12.31 5.51-12.31 12.31v273.02c0 6.8 5.51 12.31 12.31 12.31h394.91c6.8 0 12.31-5.51 12.31-12.31z" fill="#363434"/><path d="m346.26 206.93h-272.99c-4.7 0-8.5 3.81-8.5 8.5v37.85h290v-37.85c0-4.7-3.81-8.5-8.5-8.5z" fill="#9c88bf"/><path d="m0 252.28v8.18c21.44 3.78 43.07 6.98 64.88 9.61 3.77.46 7.55.89 11.33 1.31 1.33.15 2.66.29 3.99.43 3.15.34 6.3.67 9.45.98l3.93.39c4.3.42 8.61.82 12.92 1.19h.09c13.95 1.19 27.96 2.15 42.04 2.87 20.49 1.04 41.11 1.59 61.85 1.59s41.37-.55 61.86-1.59c13.84-.7 27.62-1.64 41.33-2.81h.02c4.28-.36 8.56-.76 12.83-1.17 1.29-.12 2.57-.25 3.85-.38 3.18-.32 6.36-.64 9.54-.98 1.25-.13 2.51-.26 3.76-.4 3.66-.4 7.31-.82 10.96-1.26 21.82-2.6 43.46-5.78 64.9-9.53v-8.43z" fill="#ad9bcb"/><path d="m209.99 19.5c-2.99.04-6.07.9-8.4 2.81-.11.09-.17.24-.17.4 0 2.7-.06 5.41-.16 8.11-.01.36.29.59.55.42 2.37-1.6 5.04-2.54 7.95-2.52 2.91.03 5.58 1.01 7.96 2.74.26.19.56-.04.55-.42-.11-2.81-.17-5.63-.17-8.44 0-.17-.06-.32-.17-.41-2.32-1.96-4.94-2.74-7.94-2.69z" fill="#716c6b"/></svg>