<?xml version="1.0" encoding="UTF-8"?><svg xmlns="http://www.w3.org/2000/svg" viewBox="0 0 419.53 297.64"><g id="Zugabe"><path d="M-8.5,255.12v3.81c2.83.52,5.67,1.01,8.5,1.51v-5.91l-8.5.59Z" fill="#77b3dc"/></g><g id="Karte"><path d="M419.53,285.33V14.17c0-7.83-6.35-14.17-14.17-14.17H12.31C5.51,0,0,5.51,0,12.31v273.02c0,6.8,5.51,12.31,12.31,12.31h394.91c6.8,0,12.31-5.51,12.31-12.31Z" fill="#363434"/></g><g id="Gestaltung"><path d="M84.67,272.31c10.48,1.09,20.99,2.04,31.55,2.86,7.78.6,15.57,1.13,23.39,1.59-7.82-.46-15.61-.99-23.39-1.59-10.56-.82-21.07-1.77-31.55-2.86Z" fill="#629fc5"/><path d="M68.98,270.58c-10.44-1.22-20.83-2.58-31.19-4.07,10.35,1.49,20.75,2.84,31.19,4.07Z" fill="#77b3dc"/><path d="M151.35,277.39c19.59.95,39.31,1.44,59.13,1.44,11.74,0,23.44-.17,35.1-.51-11.66.34-23.36.51-35.1.51-19.83,0-39.54-.49-59.13-1.44Z" fill="#77b3dc"/><path d="M125.35,227.48c-5.16.36-9.13,3.83-9.13,7.98v12.01L0,255.53v4.91c2.29.4,4.57.83,6.86,1.22,10.27,1.75,20.58,3.37,30.93,4.86,10.35,1.49,20.75,2.84,31.19,4.07,5.22.61,10.45,1.19,15.69,1.73,10.48,1.09,20.99,2.04,31.55,2.86,7.78.6,15.57,1.13,23.39,1.59,3.91.23,7.82.44,11.74.63,19.59.95,39.31,1.44,59.13,1.44,11.74,0,23.44-.17,35.1-.51,3.89-.11,7.77-.24,11.65-.39,15.51-.6,30.94-1.49,46.29-2.67,39.23-3.01,77.92-7.9,116-14.58v-53.19l-294.18,19.98Z" fill="#629fc5"/><path d="M293.94,234.15l-177.72,12.32L0,254.53v5.91c38.15,6.73,76.92,11.69,116.22,14.74,31.11,2.42,62.54,3.66,94.26,3.66s62.33-1.21,93.04-3.57v-33.13c0-4.7-4.43-8.39-9.58-7.98Z" fill="#77b3dc"/></g><g id="Symbole"><path id="regardio-system-bridge-icon" d="M209.99,17.01c-3.02,0-5.92,1.24-8.24,3.33-.11.1-.17.26-.17.43,0,2.95-.22,9.6-.32,12.55-.01.39.31.66.55.45,2.08-1.77,5.04-3.32,7.95-3.29,2.91.03,6.01,1.43,7.95,3.45.23.24.56-.05.55-.45-.11-3.07-.39-9.65-.39-12.72,0-.18-.06-.35-.17-.45-2.32-2.14-4.23-3.3-7.71-3.3Z" fill="#897f7f"/></g></svg>