<svg viewBox="0 0 419.53 297.64" xmlns="http://www.w3.org/2000/svg"><path d="m419.53 285.33v-271.16c0-7.83-6.35-14.17-14.17-14.17h-393.05c-6.8 0-12.31 5.51-12.31 12.31v273.02c0 6.8 5.51 12.31 12.31 12.31h394.91c6.8 0 12.31-5.51 12.31-12.31z" fill="#363434"/><path d="m137.92 253.28h281.61v-43.99z" fill="#c9914c"/><path d="m0 252.28v8.16c68.35 12.06 138.68 18.39 210.48 18.39s141.98-6.04 209.04-17.54v-9.01z" fill="#dfa663"/><path d="m209.99 19.5c-2.99.04-6.07.9-8.4 2.81-.11.09-.17.24-.17.4 0 2.7-.06 5.41-.16 8.11-.01.36.29.59.55.42 2.37-1.6 5.04-2.54 7.95-2.52 2.91.03 5.58 1.01 7.96 2.74.26.19.56-.04.55-.42-.11-2.81-.17-5.63-.17-8.44 0-.17-.06-.32-.17-.41-2.32-1.96-4.94-2.74-7.94-2.69z" fill="#897f7f" opacity=".5"/></svg>