<svg viewBox="0 0 419.53 297.64" xmlns="http://www.w3.org/2000/svg"><path d="m419.53 285.33v-271.16c0-7.83-6.35-14.17-14.17-14.17h-393.05c-6.8 0-12.31 5.51-12.31 12.31v273.02c0 6.8 5.51 12.31 12.31 12.31h394.91c6.8 0 12.31-5.51 12.31-12.31z" fill="#363434"/><path d="m209.52 222.51v-7.79c0-4.7-4.43-8.39-9.58-7.98l-199.94 15.78v37.94c55.71 9.83 112.75 15.84 170.82 17.73 12.85.42 25.75.64 38.7.65h.97c71.3 0 141.15-6.24 209.04-18.13v-52.17l-210.01 13.99z" fill="#7fc395"/><path d="m209.52 221.51v57.31h.97c71.3 0 141.15-6.24 209.04-18.13v-53.17z" fill="#66ac7e"/><path d="m209.99 17.01c-3.02 0-5.92 1.24-8.24 3.33-.11.1-.17.26-.17.43 0 2.95-.22 9.6-.32 12.55-.01.39.31.66.55.45 2.08-1.77 5.04-3.32 7.95-3.29s6.01 1.43 7.95 3.45c.23.24.56-.05.55-.45-.11-3.07-.39-9.65-.39-12.72 0-.18-.06-.35-.17-.45-2.32-2.14-4.23-3.3-7.71-3.3z" fill="#c780ab"/><path d="m210.4 74.26c-1.46 0-2.66-.28-3.61-.85s-1.66-1.46-2.12-2.68-.7-2.8-.7-4.75c0-2.1.26-3.81.79-5.14s1.3-2.3 2.3-2.93c1.01-.62 2.25-.94 3.72-.94.58 0 1.13.04 1.67.11s1.06.18 1.56.31 1 .3 1.5.49l-.31.72c-.48-.14-.96-.28-1.43-.41s-.95-.22-1.43-.29c-.48-.06-.98-.1-1.51-.1-1.3 0-2.38.3-3.26.89s-1.54 1.49-1.99 2.69-.67 2.72-.67 4.56c0 1.34.12 2.49.35 3.43s.58 1.72 1.03 2.33c.46.61 1.03 1.05 1.73 1.32s1.5.41 2.41.41c1.49 0 2.65-.4 3.49-1.19s1.26-1.89 1.26-3.3c0-.9-.18-1.66-.54-2.29s-.87-1.11-1.54-1.43c-.66-.32-1.47-.48-2.41-.48-.78 0-1.55.11-2.29.34-.74.22-1.43.54-2.05.94s-1.13.88-1.51 1.44l-.07-.91c.38-.51.9-.96 1.56-1.33.66-.38 1.38-.68 2.16-.9s1.58-.34 2.4-.34c1.09 0 2.02.19 2.79.56.78.38 1.37.92 1.79 1.64s.62 1.62.62 2.69c0 1.67-.5 2.98-1.49 3.94s-2.39 1.44-4.2 1.44z" fill="#fff"/></svg>