<svg viewBox="0 0 419.53 297.64" xmlns="http://www.w3.org/2000/svg"><path d="m419.53 285.33v-271.16c0-7.83-6.35-14.17-14.17-14.17h-393.05c-6.8 0-12.31 5.51-12.31 12.31v273.02c0 6.8 5.51 12.31 12.31 12.31h394.91c6.8 0 12.31-5.51 12.31-12.31z" fill="#363434"/><path d="m137.92 253.28h281.61v-43.99z" fill="#c9914c"/><path d="m0 252.28v8.16c68.35 12.06 138.68 18.39 210.48 18.39s141.98-6.04 209.04-17.54v-9.01z" fill="#dfa663"/><path d="m209.99 17.01c-3.02 0-5.92 1.24-8.24 3.33-.11.1-.17.26-.17.43 0 2.95-.22 9.6-.32 12.55-.01.39.31.66.55.45 2.08-1.77 5.04-3.32 7.95-3.29s6.01 1.43 7.95 3.45c.23.24.56-.05.55-.45-.11-3.07-.39-9.65-.39-12.72 0-.18-.06-.35-.17-.45-2.32-2.14-4.23-3.3-7.71-3.3z" fill="#b06993"/></svg>