<svg viewBox="0 0 419.53 297.64" xmlns="http://www.w3.org/2000/svg"><path d="m419.53 285.33v-271.16c0-7.83-6.35-14.17-14.17-14.17h-393.05c-6.8 0-12.31 5.51-12.31 12.31v273.02c0 6.8 5.51 12.31 12.31 12.31h394.91c6.8 0 12.31-5.51 12.31-12.31z" fill="#363434"/><path d="m281.61 253.28h-281.61v-43.99z" fill="#df797e"/><path d="m419.53 252.28v8.16c-68.35 12.06-138.68 18.39-210.48 18.39-70.08 0-141.98-6.04-209.04-17.54v-9.01h419.53z" fill="#ec9597"/><path d="m209.99 17.01c-3.02 0-5.92 1.24-8.24 3.33-.11.1-.17.26-.17.43 0 2.95-.22 9.6-.32 12.55-.01.39.31.66.55.45 2.08-1.77 5.04-3.32 7.95-3.29s6.01 1.43 7.95 3.45c.23.24.56-.05.55-.45-.11-3.07-.39-9.65-.39-12.72 0-.18-.06-.35-.17-.45-2.32-2.14-4.23-3.3-7.71-3.3z" fill="#c780ab"/><g fill="#fff"><path d="m206.71 74.02h-.94v-15.65l-5.93 3.17-.38-.79 6.74-3.62h.5v16.9z"/><path d="m208.55 73.3c1.42-1.28 2.64-2.42 3.63-3.41 1-.99 1.83-1.87 2.48-2.64.66-.77 1.17-1.47 1.55-2.11s.64-1.23.78-1.76c.14-.54.22-1.07.22-1.6 0-.9-.15-1.63-.46-2.2-.3-.57-.74-1-1.31-1.28-.57-.29-1.24-.43-2.03-.43-.72 0-1.43.1-2.14.31s-1.36.53-1.97.96l-.41-.72c.45-.32.92-.59 1.43-.82s1.03-.38 1.58-.48 1.1-.14 1.64-.14c.96 0 1.78.18 2.47.53s1.21.88 1.57 1.58c.36.71.54 1.58.54 2.62 0 .56-.07 1.12-.2 1.68-.14.56-.38 1.16-.73 1.79s-.84 1.33-1.45 2.1c-.62.77-1.4 1.64-2.36 2.6-.96.97-2.13 2.07-3.5 3.3h10.1v.84h-11.35l-.1-.72z"/></g></svg>