<svg xmlns="http://www.w3.org/2000/svg" viewBox="0 0 419.53 297.64"><path d="M419.53 285.33V14.17c0-7.83-6.35-14.17-14.17-14.17H12.31C5.51 0 0 5.51 0 12.31v273.02c0 6.8 5.51 12.31 12.31 12.31h394.91c6.8 0 12.31-5.51 12.31-12.31z" fill="#363434"/><path d="M84.67 272.31a1211.58 1211.58 0 0 1 0 0z" fill="#629fc5"/><path d="M68.98 270.58a1186.01 1186.01 0 0 1-31.19-4.07c10.35 1.49 20.75 2.84 31.19 4.07zm82.37 6.81a1220.545 1220.545 0 0 1 0 0z" fill="#77b3dc"/><path d="M125.35 227.48c-5.16.36-9.13 3.83-9.13 7.98v12.01L0 255.53v4.91c2.29.4 4.57.83 6.86 1.22 10.27 1.75 20.58 3.37 30.93 4.86 10.35 1.49 20.75 2.84 31.19 4.07 5.22.61 10.45 1.19 15.69 1.73 10.48 1.09 20.99 2.04 31.55 2.86 7.78.6 15.57 1.13 23.39 1.59 3.91.23 7.82.44 11.74.63 19.59.95 39.31 1.44 59.13 1.44 11.74 0 23.44-.17 35.1-.51 3.89-.11 7.77-.24 11.65-.39 15.51-.6 30.94-1.49 46.29-2.67 39.23-3.01 77.92-7.9 116-14.58V207.5l-294.18 19.98z" fill="#629fc5"/><path d="M293.94 234.15l-177.72 12.32L0 254.53v5.91c38.15 6.73 76.92 11.69 116.22 14.74 31.11 2.42 62.54 3.66 94.26 3.66s62.33-1.21 93.04-3.57v-33.13c0-4.7-4.43-8.39-9.58-7.98z" fill="#77b3dc"/><g><path d="M209.99 17.01c-3.02 0-5.92 1.24-8.24 3.33a.58.58 0 0 0-.17.43c0 2.95-.22 9.6-.32 12.55-.01.39.31.66.55.45 2.08-1.77 5.04-3.32 7.95-3.29 2.91.03 6.01 1.43 7.95 3.45.23.24.56-.05.55-.45-.11-3.07-.39-9.65-.39-12.72 0-.18-.06-.35-.17-.45-2.32-2.14-4.23-3.3-7.71-3.3z" fill="#c780ab"/></g><g><path d="M211.14 65.24c.83-.4 1.49-.8 1.98-1.2.49-.4.84-.84 1.06-1.32.22-.48.32-1 .32-1.56 0-1.14-.39-1.98-1.18-2.54-.78-.56-1.94-.84-3.48-.84-1.02 0-1.89.12-2.6.37-.71.25-1.26.62-1.64 1.1-.38.49-.58 1.08-.58 1.76 0 .62.13 1.14.38 1.55s.6.74 1.02 1.01.92.49 1.48.67c.56.18 1.14.34 1.75.48.61.14 1.21.28 1.81.44.6.16 1.18.35 1.74.58.56.22 1.05.5 1.48.84s.76.76 1.01 1.27.37 1.14.37 1.87c0 .99-.25 1.82-.74 2.5-.5.67-1.22 1.18-2.16 1.52-.94.34-2.11.52-3.5.52-2.02 0-3.56-.4-4.63-1.21-1.07-.81-1.61-1.93-1.61-3.37 0-.75.13-1.43.4-2.03.26-.6.68-1.15 1.25-1.66.57-.5 1.3-.94 2.2-1.31l.77.36c-1.25.48-2.17 1.09-2.76 1.84-.59.74-.89 1.64-.89 2.68 0 1.23.46 2.19 1.38 2.88.92.69 2.24 1.03 3.97 1.03s3.06-.31 3.98-.94 1.39-1.54 1.39-2.74c0-.66-.12-1.21-.37-1.67s-.58-.84-1.01-1.14-.91-.55-1.46-.74c-.55-.19-1.13-.36-1.74-.5-.61-.14-1.21-.29-1.81-.43-.6-.14-1.18-.32-1.74-.53a5.77 5.77 0 0 1-1.46-.78c-.42-.31-.75-.7-1.01-1.18-.26-.47-.38-1.06-.38-1.76 0-1.31.5-2.32 1.51-3.02s2.42-1.06 4.22-1.06 3.2.34 4.14 1.02c.94.68 1.4 1.7 1.4 3.06 0 .62-.12 1.2-.36 1.74s-.61 1.03-1.12 1.48-1.17.86-2 1.25l-.77-.29z" fill="#fff"/></g></svg>