<svg xmlns="http://www.w3.org/2000/svg" viewBox="0 0 419.53 297.64"><path d="M419.53 285.33V14.17c0-7.83-6.35-14.17-14.17-14.17H12.31C5.51 0 0 5.51 0 12.31v273.02c0 6.8 5.51 12.31 12.31 12.31h394.91c6.8 0 12.31-5.51 12.31-12.31z" fill="#363434"/><path d="M346.26 206.93H73.27a8.5 8.5 0 0 0-8.5 8.5v37.85h290v-37.85a8.5 8.5 0 0 0-8.5-8.5z" fill="#9c88bf"/><path d="M0 252.28v8.18c21.44 3.78 43.07 6.98 64.88 9.61 3.77.46 7.55.89 11.33 1.31 1.33.15 2.66.29 3.99.43 3.15.34 6.3.67 9.45.98l3.93.39c4.3.42 8.61.82 12.92 1.19h.09c13.95 1.19 27.96 2.15 42.04 2.87 20.49 1.04 41.11 1.59 61.85 1.59s41.37-.55 61.86-1.59c13.84-.7 27.62-1.64 41.33-2.81h.02c4.28-.36 8.56-.76 12.83-1.17 1.29-.12 2.57-.25 3.85-.38 3.18-.32 6.36-.64 9.54-.98 1.25-.13 2.51-.26 3.76-.4 3.66-.4 7.31-.82 10.96-1.26 21.82-2.6 43.46-5.78 64.9-9.53v-8.43H0z" fill="#ad9bcb"/><g><path d="M209.99 17.01c-3.02 0-5.92 1.24-8.24 3.33a.58.58 0 0 0-.17.43c0 2.95-.22 9.6-.32 12.55-.01.39.31.66.55.45 2.08-1.77 5.04-3.32 7.95-3.29 2.91.03 6.01 1.43 7.95 3.45.23.24.56-.05.55-.45-.11-3.07-.39-9.65-.39-12.72 0-.18-.06-.35-.17-.45-2.32-2.14-4.23-3.3-7.71-3.3z" fill="#c780ab"/></g></svg>