<svg viewBox="0 0 419.53 297.64" xmlns="http://www.w3.org/2000/svg"><path d="m419.53 285.33v-271.16c0-7.83-6.35-14.17-14.17-14.17h-393.05c-6.8 0-12.31 5.51-12.31 12.31v273.02c0 6.8 5.51 12.31 12.31 12.31h394.91c6.8 0 12.31-5.51 12.31-12.31z" fill="#363434"/><path d="m346.26 206.93h-272.99c-4.7 0-8.5 3.81-8.5 8.5v37.85h290v-37.85c0-4.7-3.81-8.5-8.5-8.5z" fill="#9c88bf"/><path d="m0 252.28v8.18c21.44 3.78 43.07 6.98 64.88 9.61 3.77.46 7.55.89 11.33 1.31 1.33.15 2.66.29 3.99.43 3.15.34 6.3.67 9.45.98l3.93.39c4.3.42 8.61.82 12.92 1.19h.09c13.95 1.19 27.96 2.15 42.04 2.87 20.49 1.04 41.11 1.59 61.85 1.59s41.37-.55 61.86-1.59c13.84-.7 27.62-1.64 41.33-2.81h.02c4.28-.36 8.56-.76 12.83-1.17 1.29-.12 2.57-.25 3.85-.38 3.18-.32 6.36-.64 9.54-.98 1.25-.13 2.51-.26 3.76-.4 3.66-.4 7.31-.82 10.96-1.26 21.82-2.6 43.46-5.78 64.9-9.53v-8.43z" fill="#ad9bcb"/><path d="m209.99 17.01c-3.02 0-5.92 1.24-8.24 3.33-.11.1-.17.26-.17.43 0 2.95-.22 9.6-.32 12.55-.01.39.31.66.55.45 2.08-1.77 5.04-3.32 7.95-3.29s6.01 1.43 7.95 3.45c.23.24.56-.05.55-.45-.11-3.07-.39-9.65-.39-12.72 0-.18-.06-.35-.17-.45-2.32-2.14-4.23-3.3-7.71-3.3z" fill="#c780ab"/><g fill="#fff"><path d="m205.45 74.02h-.94v-15.65l-5.93 3.17-.38-.79 6.74-3.62h.5v16.9z"/><path d="m207.82 65.62c0-1.68.15-3.08.46-4.19s.73-2 1.28-2.65c.55-.66 1.2-1.12 1.96-1.39.75-.27 1.58-.41 2.47-.41s1.7.14 2.46.41 1.41.74 1.96 1.39.97 1.54 1.27 2.66.46 2.51.46 4.18-.15 3.05-.46 4.16c-.3 1.11-.73 2-1.28 2.65s-1.2 1.12-1.96 1.4c-.75.28-1.57.42-2.45.42s-1.71-.14-2.46-.41c-.74-.27-1.39-.74-1.94-1.4s-.98-1.55-1.3-2.66c-.31-1.11-.47-2.5-.47-4.16zm.94.02c0 1.52.13 2.79.38 3.8.26 1.02.62 1.81 1.1 2.39s1.04.99 1.67 1.24 1.32.37 2.08.37 1.42-.12 2.05-.37 1.18-.66 1.66-1.24c.47-.58.84-1.37 1.1-2.39s.4-2.28.4-3.8-.13-2.82-.4-3.84c-.26-1.02-.63-1.83-1.1-2.41s-1.02-1-1.66-1.24-1.32-.36-2.05-.36-1.44.12-2.08.36-1.18.65-1.66 1.24-.84 1.39-1.1 2.41-.4 2.3-.4 3.84z"/></g></svg>