<svg viewBox="0 0 419.53 297.64" xmlns="http://www.w3.org/2000/svg"><path d="m419.53 285.33v-271.16c0-7.83-6.35-14.17-14.17-14.17h-393.05c-6.8 0-12.31 5.51-12.31 12.31v273.02c0 6.8 5.51 12.31 12.31 12.31h394.91c6.8 0 12.31-5.51 12.31-12.31z" fill="#363434"/><path d="m209.52 222.51v-7.79c0-4.7-4.43-8.39-9.58-7.98l-199.94 15.78v37.94c55.71 9.83 112.75 15.84 170.82 17.73 12.85.42 25.75.64 38.7.65h.97c71.3 0 141.15-6.24 209.04-18.13v-52.17l-210.01 13.99z" fill="#7fc395"/><path d="m209.52 221.51v57.31h.97c71.3 0 141.15-6.24 209.04-18.13v-53.17z" fill="#66ac7e"/><path d="m209.99 19.5c-2.99.04-6.07.9-8.4 2.81-.11.09-.17.24-.17.4 0 2.7-.06 5.41-.16 8.11-.01.36.29.59.55.42 2.37-1.6 5.04-2.54 7.95-2.52 2.91.03 5.58 1.01 7.96 2.74.26.19.56-.04.55-.42-.11-2.81-.17-5.63-.17-8.44 0-.17-.06-.32-.17-.41-2.32-1.96-4.94-2.74-7.94-2.69z" fill="#716c6b"/></svg>