<?xml version="1.0" encoding="UTF-8"?><svg xmlns="http://www.w3.org/2000/svg" viewBox="0 0 297.64 419.53"><g id="Karte"><path d="M12.31,419.53h271.16c7.83,0,14.17-6.35,14.17-14.17V12.31C297.64,5.51,292.13,0,285.33,0H12.31C5.51,0,0,5.51,0,12.31v394.91c0,6.8,5.51,12.31,12.31,12.31Z" fill="#dfd6d4"/></g><g id="Gestaltung"><path d="M43.26,23.81c2.6,6.93,23.51,62.4,27.79,74.5,4.98,14.07,9.77,28.07,14.36,41.91,26.29,79.25,42.1,184.87,53.53,248.8,1.81,10.12,15.94,11.08,19.11,1.3,20.57-63.53,50.58-170.77,73.46-253.92,3.11-11.3,6.16-22.74,9.14-34.29,3.85-14.94,16.58-69.02,18.46-76.88.33-1.38,2.81-12.09,5.8-25.23H34.15c4.73,12.29,8.52,22.25,9.11,23.81Z" fill="#ba9f40"/></g><g id="Symbole"><path id="regardio-system-facet-icon" d="M157.32,30.22c-.11-2.76-.27-6.66-.33-9.42,0-.14-.08-.27-.21-.34-2.59-1.4-4.87-2.22-7.76-3.41-.13-.05-.28-.05-.42.01-2.89,1.26-5.14,1.91-7.73,3.31-.13.07-.21.19-.21.32-.05,2.6-.24,6.96-.35,9.56,0,.13.07.26.2.32,2.76,1.29,5.2,2.15,8.08,3.39.14.06.31.08.44.01,2.93-1.35,5.28-2.12,8.09-3.42.13-.06.2-.2.2-.34Z" fill="#897f7f"/></g></svg>