<svg viewBox="0 0 297.64 419.53" xmlns="http://www.w3.org/2000/svg"><path d="m12.31 419.53h271.16c7.83 0 14.17-6.35 14.17-14.17v-393.05c0-6.8-5.51-12.31-12.31-12.31h-273.02c-6.8 0-12.31 5.51-12.31 12.31v394.91c0 6.8 5.51 12.31 12.31 12.31z" fill="#dfd6d4"/><path d="m63.69 19.98c2.26 7.05 18.77 57.94 24.13 75.78 2.47 8.24 4.88 16.46 7.23 24.64 23.7 82.56 36.49 200.35 46.18 269.98 1.19 8.53 13.22 9.28 15.45.96 19.53-72.9 48.05-200.09 66.5-292.92 3.49-17.55 6.79-35.33 9.81-53.18.86-5.09 1.73-10.04 2.59-14.89.21-1.17 2.27-14.03 4.86-30.36h-183.34c3.48 10.5 6.16 18.63 6.59 19.98z" fill="#57a89f"/><path d="m156.29 29.66c-.1-2.76-.17-5.52-.21-8.29 0-.14-.07-.27-.19-.34-2.27-1.4-4.61-2.75-6.89-3.98-.11-.06-.25-.06-.37.01-2.28 1.39-4.61 2.82-6.89 4.22-.11.07-.18.19-.19.32-.05 2.6-.12 5.2-.21 7.8 0 .13.06.25.18.32 2.27 1.4 4.68 2.84 7.1 4.23.12.07.27.07.39.01 2.42-1.23 4.83-2.58 7.1-3.98.11-.07.18-.2.18-.34z" fill="#897f7f" opacity=".5"/></svg>