<svg xmlns="http://www.w3.org/2000/svg" viewBox="0 0 297.64 419.53"><path d="M12.31 419.53h271.16c7.83 0 14.17-6.35 14.17-14.17V12.31c0-6.8-5.51-12.31-12.31-12.31H12.31C5.51 0 0 5.51 0 12.31v394.91c0 6.8 5.51 12.31 12.31 12.31z" fill="#ad9bcb"/><path d="M178.49 290.2c3.77.6 7.34-1.92 8.06-5.67 8.77-45.63 17.29-92.88 23.97-133.03 1.63-9.77 4.71-30.86 6.85-45.65.89-6.13-5.95-10.38-11.06-6.87l-67.34 46.29a7.1 7.1 0 0 1-3.61 1.23 301.6 301.6 0 0 0-38.78 4.81c-4.19.8-6.72 5.14-5.38 9.19 1.59 4.81 3.15 9.6 4.68 14.38 10.4 32.36 19.1 70.91 26.48 109.25.71 3.7 4.21 6.22 7.94 5.68 16.07-2.32 32.32-2.16 48.18.38z" fill="#f2edee"/><path d="M157.32 30.22c-.11-2.76-.27-6.66-.33-9.42 0-.14-.08-.27-.21-.34-2.59-1.4-4.87-2.22-7.76-3.41a.556.556 0 0 0-.42.01c-2.89 1.26-5.14 1.91-7.73 3.31a.37.37 0 0 0-.21.32c-.05 2.6-.24 6.96-.35 9.56 0 .13.07.26.2.32 2.76 1.29 5.2 2.15 8.08 3.39.14.06.31.08.44.01 2.93-1.35 5.28-2.12 8.09-3.42.13-.06.2-.2.2-.34z" fill="#b4d49a"/></svg>