<?xml version="1.0" encoding="UTF-8"?><svg xmlns="http://www.w3.org/2000/svg" viewBox="0 0 297.64 419.53"><g id="Karte"><path d="M12.31,419.53h271.16c7.83,0,14.17-6.35,14.17-14.17V12.31C297.64,5.51,292.13,0,285.33,0H12.31C5.51,0,0,5.51,0,12.31v394.91c0,6.8,5.51,12.31,12.31,12.31Z" fill="#dfd6d4"/></g><g id="Gestaltung"><path d="M63.69,19.98c2.26,7.05,18.77,57.94,24.13,75.78,2.47,8.24,4.88,16.46,7.23,24.64,23.7,82.56,36.49,200.35,46.18,269.98,1.19,8.53,13.22,9.28,15.45.96,19.53-72.9,48.05-200.09,66.5-292.92,3.49-17.55,6.79-35.33,9.81-53.18.86-5.09,1.73-10.04,2.59-14.89.21-1.17,2.27-14.03,4.86-30.36H57.1c3.48,10.5,6.16,18.63,6.59,19.98Z" fill="#57a89f"/></g><g id="Symbole"><path id="regardio-system-facet-icon" d="M157.32,30.22c-.11-2.76-.27-6.66-.33-9.42,0-.14-.08-.27-.21-.34-2.59-1.4-4.87-2.22-7.76-3.41-.13-.05-.28-.05-.42.01-2.89,1.26-5.14,1.91-7.73,3.31-.13.07-.21.19-.21.32-.05,2.6-.24,6.96-.35,9.56,0,.13.07.26.2.32,2.76,1.29,5.2,2.15,8.08,3.39.14.06.31.08.44.01,2.93-1.35,5.28-2.12,8.09-3.42.13-.06.2-.2.2-.34Z" fill="#897f7f"/></g></svg>