<svg viewBox="0 0 297.64 419.53" xmlns="http://www.w3.org/2000/svg"><path d="m12.31 419.53h271.16c7.83 0 14.17-6.35 14.17-14.17v-393.05c0-6.8-5.51-12.31-12.31-12.31h-273.02c-6.8 0-12.31 5.51-12.31 12.31v394.91c0 6.8 5.51 12.31 12.31 12.31z" fill="#cec3c1"/><path d="m231.24 280.63c-.41-1.75-2.26-2.74-3.95-2.1-7.94 2.99-23.71 8.53-24.98 8.97-2.63.91-23.71 8.23-28.3 9.72-5.34 1.74-10.66 3.4-15.91 4.99-29.71 9-69 13.9-93.24 17.56-4.06.61-4.59 6.25-.71 7.61 23.8 8.36 63.27 20.53 93.95 29.85 4.22 1.28 8.5 2.54 12.81 3.78 5.58 1.6 25.8 6.92 28.74 7.71 1.11.3 18.35 4.76 26.12 6.59 1.56.37 3.12-.56 3.55-2.1 4.44-15.92 6.82-32.7 6.82-50.03 0-14.63-1.69-28.87-4.89-42.53z" fill="#a09392"/><path d="m156.29 29.66c-.1-2.76-.17-5.52-.21-8.29 0-.14-.07-.27-.19-.34-2.27-1.4-4.61-2.75-6.89-3.98-.11-.06-.25-.06-.37.01-2.28 1.39-4.61 2.82-6.89 4.22-.11.07-.18.19-.19.32-.05 2.6-.12 5.2-.21 7.8 0 .13.06.25.18.32 2.27 1.4 4.68 2.84 7.1 4.23.12.07.27.07.39.01 2.42-1.23 4.83-2.58 7.1-3.98.11-.07.18-.2.18-.34z" fill="#897f7f" opacity=".5"/></svg>