<svg viewBox="0 0 297.64 419.53" xmlns="http://www.w3.org/2000/svg"><path d="M12.31 419.53h271.16c7.83 0 14.17-6.35 14.17-14.17V12.31c0-6.8-5.51-12.31-12.31-12.31H12.31C5.51 0 0 5.51 0 12.31v394.91c0 6.8 5.51 12.31 12.31 12.31z" fill="#ec9597"/><path d="M226.85 146.37c4.3.95 7.02 5.21 6.08 9.51-5.97 27.41-25.03 113.29-31.21 140.69-.96 4.28-5.2 7-9.48 6.06-15.99-3.53-32.74-4.93-49.9-3.88-8.66.53-17.13 1.67-25.39 3.36-4.05.83-8.04-1.63-9.21-5.59-7.55-25.72-32.86-109.97-41.77-138.02-1.4-4.4 1.2-9.08 5.68-10.18 19.65-4.84 40-7.99 60.91-9.27 32.42-1.98 64.07.65 94.28 7.32z" fill="#f2edee"/><path d="M157.32 30.22c-.11-2.76-.27-6.66-.33-9.42 0-.14-.08-.27-.21-.34-2.59-1.4-4.87-2.22-7.76-3.41a.556.556 0 0 0-.42.01c-2.89 1.26-5.14 1.91-7.73 3.31a.37.37 0 0 0-.21.32c-.05 2.6-.24 6.96-.35 9.56 0 .13.07.26.2.32 2.76 1.29 5.2 2.15 8.08 3.39.14.06.31.08.44.01 2.93-1.35 5.28-2.12 8.09-3.42.13-.06.2-.2.2-.34z" fill="#86a965"/></svg>