<svg viewBox="0 0 297.64 419.53" xmlns="http://www.w3.org/2000/svg"><path d="m12.31 419.53h271.16c7.83 0 14.17-6.35 14.17-14.17v-393.05c-0-6.8-5.51-12.31-12.31-12.31h-273.02c-6.8 0-12.31 5.51-12.31 12.31v394.91c0 6.8 5.51 12.31 12.31 12.31z" fill="#dfd6d4"/><path d="m43.26 23.81c2.6 6.93 23.51 62.4 27.79 74.5 4.98 14.07 9.77 28.07 14.36 41.91 26.29 79.25 42.1 184.87 53.53 248.8 1.81 10.12 15.94 11.08 19.11 1.3 20.57-63.53 50.58-170.77 73.46-253.92 3.11-11.3 6.16-22.74 9.14-34.29 3.85-14.94 16.58-69.02 18.46-76.88.33-1.38 2.81-12.09 5.8-25.23h-230.76c4.73 12.29 8.52 22.25 9.11 23.81z" fill="#91aad9"/><path d="m157.32 30.22c-.11-2.76-.27-6.66-.33-9.42 0-.14-.08-.27-.21-.34-2.59-1.4-4.87-2.22-7.76-3.41-.13-.05-.28-.05-.42.01-2.89 1.26-5.14 1.91-7.73 3.31-.13.07-.21.19-.21.32-.05 2.6-.24 6.96-.35 9.56 0 .13.07.26.2.32 2.76 1.29 5.2 2.15 8.08 3.39.14.06.31.08.44.01 2.93-1.35 5.28-2.12 8.09-3.42.13-.06.2-.2.2-.34z" fill="#86a965"/><path d="m147.79 74.26c-.56 0-1.11-.04-1.64-.11-.54-.07-1.06-.18-1.58-.31s-1.04-.3-1.55-.49l.34-.7c.48.13.96.26 1.44.4s.96.24 1.45.3 1 .1 1.52.1c1.31 0 2.4-.3 3.28-.9.87-.6 1.52-1.5 1.94-2.71s.64-2.72.64-4.55c0-1.34-.11-2.49-.32-3.43-.22-.94-.54-1.72-.97-2.32s-.97-1.04-1.61-1.33-1.4-.43-2.28-.43c-1.01 0-1.89.18-2.65.53s-1.36.86-1.79 1.52-.65 1.48-.65 2.44c0 .9.19 1.66.58 2.29s.92 1.11 1.6 1.44 1.46.49 2.34.49c.8 0 1.58-.12 2.34-.36s1.46-.57 2.09-.98c.63-.42 1.13-.93 1.5-1.54l-.02 1.08c-.38.48-.9.92-1.54 1.32s-1.36.71-2.15.92-1.6.32-2.41.32c-1.09 0-2.02-.19-2.79-.58-.78-.38-1.38-.94-1.8-1.68s-.64-1.62-.64-2.66c0-1.14.25-2.1.74-2.9.5-.8 1.19-1.41 2.09-1.82.9-.42 1.97-.62 3.21-.62 1.36 0 2.49.28 3.38.85.9.57 1.57 1.46 2.01 2.66.45 1.21.67 2.8.67 4.79s-.25 3.78-.74 5.11c-.5 1.33-1.24 2.3-2.24 2.93-1 .62-2.26.94-3.78.94z" fill="#21211f"/></svg>