<svg viewBox="0 0 419.53 297.64" xmlns="http://www.w3.org/2000/svg"><path d="m419.53 285.33v-271.16c0-7.83-6.35-14.17-14.17-14.17h-393.05c-6.8 0-12.31 5.51-12.31 12.31v273.02c0 6.8 5.51 12.31 12.31 12.31h394.91c6.8 0 12.31-5.51 12.31-12.31z" fill="#dfd6d4"/><path d="m298.03 196.46c.55-3 8.69-49.74 11.87-70.58.64-4.2-2.15-8.14-6.32-8.95-27.75-5.41-55.71-8.37-83.57-8.95-1.3-.03-2.57-.37-3.7-1.01l-148.21-83.54c-6.86-3.87-14.54 3.6-10.86 10.56 13.65 25.9 34.29 66.15 41.93 86.28l.13.07s-.06.02-.09.02c8.11 21.38 35.35 106.59 36.89 111.38 4.26 13.27 8.36 26.54 12.29 39.75 2.51 8.41 4.91 17.15 7.21 26.13h123.3c1.65-7.75 3.27-15.54 4.85-23.39 2.99-14.92 12.83-69.84 14.28-77.79z" fill="#86a965"/><path d="m217.23 29.66c-.1-2.76-.17-5.52-.21-8.29 0-.14-.07-.27-.19-.34-2.27-1.4-4.61-2.75-6.89-3.98-.11-.06-.25-.06-.37.01-2.28 1.39-4.61 2.82-6.89 4.22-.11.07-.18.19-.19.32-.05 2.6-.12 5.2-.21 7.8 0 .13.06.25.18.32 2.27 1.4 4.68 2.84 7.1 4.23.12.07.27.07.39.01 2.42-1.23 4.83-2.58 7.1-3.98.11-.07.18-.2.18-.34z" fill="#897f7f" opacity=".5"/></svg>