<?xml version="1.0" encoding="UTF-8"?><svg xmlns="http://www.w3.org/2000/svg" viewBox="0 0 419.53 297.64"><g id="Zugabe"><path d="M157.75,306.14h119.32c.61-2.82,1.21-5.67,1.81-8.5h-123.27c.72,2.81,1.43,5.65,2.14,8.5Z" fill="#c780ab"/></g><g id="Karte"><path d="M419.53,285.33V14.17c0-7.83-6.35-14.17-14.17-14.17H12.31C5.51,0,0,5.51,0,12.31v273.02c0,6.8,5.51,12.31,12.31,12.31h394.91c6.8,0,12.31-5.51,12.31-12.31Z" fill="#dfd6d4"/></g><g id="Gestaltung"><path d="M298.03,196.4c.55-3,8.69-49.74,11.87-70.58.64-4.2-2.15-8.14-6.32-8.95-27.75-5.41-55.71-8.37-83.57-8.95-1.3-.03-2.57-.37-3.7-1.01L68.1,23.37c-6.86-3.87-14.54,3.6-10.86,10.56,13.65,25.9,34.29,66.15,41.93,86.28l.13.07s-.06.01-.09.02c8.11,21.38,35.35,106.59,36.89,111.38,4.26,13.27,8.36,26.54,12.29,39.75,2.51,8.43,4.92,17.19,7.23,26.19h123.27c1.65-7.77,3.28-15.57,4.86-23.45,2.99-14.92,12.83-69.84,14.28-77.79Z" fill="#c780ab"/></g><g id="Symbole"><path id="regardio-system-facet-icon" d="M218.27,30.22c-.11-2.76-.27-6.66-.33-9.42,0-.14-.08-.27-.21-.34-2.59-1.4-4.87-2.22-7.76-3.41-.13-.05-.28-.05-.42.01-2.89,1.26-5.14,1.91-7.73,3.31-.13.07-.21.19-.21.32-.05,2.6-.24,6.96-.35,9.56,0,.13.07.26.2.32,2.76,1.29,5.2,2.15,8.08,3.39.14.06.31.08.44.01,2.93-1.35,5.28-2.12,8.09-3.42.13-.06.2-.2.2-.34Z" fill="#b4a8a6"/></g></svg>