<svg xmlns="http://www.w3.org/2000/svg" viewBox="0 0 419.53 297.64"><path d="M419.53 285.33V14.17c0-7.83-6.35-14.17-14.17-14.17H12.31C5.51 0 0 5.51 0 12.31v273.02c0 6.8 5.51 12.31 12.31 12.31h394.91c6.8 0 12.31-5.51 12.31-12.31z" fill="#dfd6d4"/><path d="M320.05 200.98c.71-2.97 11.35-49.09 15.67-69.84a7.906 7.906 0 0 0-5.82-9.27c-42.58-10.69-87.31-15.83-133.35-14.63-38.86 1.02-76.55 6.51-112.59 15.96-4.61 1.21-7.1 6.2-5.31 10.62 8.49 20.87 24.3 62.4 25.55 65.75 2.6 6.93 23.51 62.4 27.79 74.5 2.79 7.89 5.5 15.74 8.17 23.57h156.2c1.76-6.56 3.51-13.14 5.22-19.78 3.85-14.94 16.58-69.02 18.46-76.88z" fill="#cfb35f"/><path d="M218.27 30.22c-.11-2.76-.27-6.66-.33-9.42 0-.14-.08-.27-.21-.34-2.59-1.4-4.87-2.22-7.76-3.41a.556.556 0 0 0-.42.01c-2.89 1.26-5.14 1.91-7.73 3.31a.37.37 0 0 0-.21.32c-.05 2.6-.24 6.96-.35 9.56 0 .13.07.26.2.32 2.76 1.29 5.2 2.15 8.08 3.39.14.06.31.08.44.01 2.93-1.35 5.28-2.12 8.09-3.42.13-.06.2-.2.2-.34z" fill="#86a965"/></svg>