<?xml version="1.0" encoding="UTF-8"?><svg xmlns="http://www.w3.org/2000/svg" viewBox="0 0 297.64 419.53"><g id="Karte"><path d="M12.31,419.53h271.16c7.83,0,14.17-6.35,14.17-14.17V12.31C297.64,5.51,292.13,0,285.33,0H12.31C5.51,0,0,5.51,0,12.31v394.91c0,6.8,5.51,12.31,12.31,12.31Z" fill="#dfd6d4"/></g><g id="Gestaltung"><path d="M75.15,56.01c4.26,13.27,8.36,26.54,12.29,39.75,27.21,91.31,42,220.01,52.73,294.65,1.22,8.51,13.25,9.21,15.45.9,17.38-65.74,42.22-177.17,59.54-256.38,2.62-12,5.18-24.16,7.64-36.42,2.99-14.92,12.83-69.84,14.28-77.79.22-1.22,1.71-9.69,3.6-20.71H57.03c8.83,26.99,17.28,53.4,18.12,56.01Z" fill="#86a965"/></g><g id="Symbole"><path id="regardio-system-facet-icon" d="M157.32,30.22c-.11-2.76-.27-6.66-.33-9.42,0-.14-.08-.27-.21-.34-2.59-1.4-4.87-2.22-7.76-3.41-.13-.05-.28-.05-.42.01-2.89,1.26-5.14,1.91-7.73,3.31-.13.07-.21.19-.21.32-.05,2.6-.24,6.96-.35,9.56,0,.13.07.26.2.32,2.76,1.29,5.2,2.15,8.08,3.39.14.06.31.08.44.01,2.93-1.35,5.28-2.12,8.09-3.42.13-.06.2-.2.2-.34Z" fill="#897f7f"/></g></svg>