<svg viewBox="0 0 419.53 297.64" xmlns="http://www.w3.org/2000/svg"><path d="m419.53 285.33v-271.16c0-7.83-6.35-14.17-14.17-14.17h-393.05c-6.8 0-12.31 5.51-12.31 12.31v273.02c0 6.8 5.51 12.31 12.31 12.31h394.91c6.8 0 12.31-5.51 12.31-12.31z" fill="#dfd6d4"/><path d="m320.05 200.98c.71-2.97 11.35-49.09 15.67-69.84.86-4.15-1.71-8.24-5.82-9.27-42.58-10.69-87.31-15.83-133.35-14.63-38.86 1.02-76.55 6.51-112.59 15.96-4.61 1.21-7.1 6.2-5.31 10.62 8.49 20.87 24.3 62.4 25.55 65.75 2.6 6.93 23.51 62.4 27.79 74.5 2.79 7.89 5.5 15.74 8.17 23.57h156.2c1.76-6.56 3.51-13.14 5.22-19.78 3.85-14.94 16.58-69.02 18.46-76.88z" fill="#ba9f40"/><path d="m217.23 29.66c-.1-2.76-.17-5.52-.21-8.29 0-.14-.07-.27-.19-.34-2.27-1.4-4.61-2.75-6.89-3.98-.11-.06-.25-.06-.37.01-2.28 1.39-4.61 2.82-6.89 4.22-.11.07-.18.19-.19.32-.05 2.6-.12 5.2-.21 7.8 0 .13.06.25.18.32 2.27 1.4 4.68 2.84 7.1 4.23.12.07.27.07.39.01 2.42-1.23 4.83-2.58 7.1-3.98.11-.07.18-.2.18-.34z" fill="#897f7f" opacity=".5"/></svg>