<svg viewBox="0 0 297.64 419.53" xmlns="http://www.w3.org/2000/svg"><path d="m12.31 419.53h271.16c7.83 0 14.17-6.35 14.17-14.17v-393.05c-0-6.8-5.51-12.31-12.31-12.31h-273.02c-6.8 0-12.31 5.51-12.31 12.31v394.91c0 6.8 5.51 12.31 12.31 12.31z" fill="#ad9bcb"/><path d="m178.49 290.2c3.77.6 7.34-1.92 8.06-5.67 8.77-45.63 17.29-92.88 23.97-133.03 1.63-9.77 4.71-30.86 6.85-45.65.89-6.13-5.95-10.38-11.06-6.87l-67.34 46.29c-1.07.73-2.32 1.16-3.61 1.23-12.96.76-25.92 2.36-38.78 4.81-4.19.8-6.72 5.14-5.38 9.19 1.59 4.81 3.15 9.6 4.68 14.38 10.4 32.36 19.1 70.91 26.48 109.25.71 3.7 4.21 6.22 7.94 5.68 16.07-2.32 32.32-2.16 48.18.38z" fill="#f2edee"/><path d="m157.32 30.22c-.11-2.76-.27-6.66-.33-9.42 0-.14-.08-.27-.21-.34-2.59-1.4-4.87-2.22-7.76-3.41-.13-.05-.28-.05-.42.01-2.89 1.26-5.14 1.91-7.73 3.31-.13.07-.21.19-.21.32-.05 2.6-.24 6.96-.35 9.56 0 .13.07.26.2.32 2.76 1.29 5.2 2.15 8.08 3.39.14.06.31.08.44.01 2.93-1.35 5.28-2.12 8.09-3.42.13-.06.2-.2.2-.34z" fill="#86a965"/><g fill="#21211f"><path d="m144.5 74.02h-.94v-15.65l-5.93 3.17-.38-.79 6.74-3.62h.5v16.9z"/><path d="m146.87 65.62c0-1.68.15-3.08.46-4.19.3-1.11.73-2 1.28-2.65.55-.66 1.2-1.12 1.96-1.39.75-.27 1.58-.41 2.47-.41s1.7.14 2.46.41 1.41.74 1.96 1.39c.54.66.97 1.54 1.27 2.66s.46 2.51.46 4.18-.15 3.05-.46 4.16-.73 2-1.28 2.65c-.55.66-1.2 1.12-1.96 1.4-.75.28-1.57.42-2.45.42s-1.71-.14-2.46-.41c-.74-.27-1.39-.74-1.94-1.4s-.98-1.55-1.3-2.66c-.31-1.11-.47-2.5-.47-4.16zm.94.02c0 1.52.13 2.79.38 3.8.26 1.02.62 1.81 1.1 2.39s1.04.99 1.67 1.24 1.32.37 2.08.37 1.42-.12 2.05-.37 1.18-.66 1.66-1.24.84-1.37 1.1-2.39.4-2.28.4-3.8-.13-2.82-.4-3.84c-.26-1.02-.63-1.83-1.1-2.41s-1.02-1-1.66-1.24c-.63-.24-1.32-.36-2.05-.36s-1.44.12-2.08.36c-.63.24-1.18.65-1.66 1.24s-.84 1.39-1.1 2.41-.4 2.3-.4 3.84z"/></g></svg>