<?xml version="1.0" encoding="UTF-8"?><svg xmlns="http://www.w3.org/2000/svg" viewBox="0 0 419.53 297.64"><g id="Zugabe"><path d="M158.76,306.14h118.89c.59-2.86,1.17-5.69,1.74-8.5h-122.98c.79,2.8,1.58,5.63,2.35,8.5Z" fill="#57a89f"/></g><g id="Karte"><path d="M419.53,285.33V14.17c0-7.83-6.35-14.17-14.17-14.17H12.31C5.51,0,0,5.51,0,12.31v273.02c0,6.8,5.51,12.31,12.31,12.31h394.91c6.8,0,12.31-5.51,12.31-12.31Z" fill="#dfd6d4"/></g><g id="Gestaltung"><path d="M293.94,220.99c.86-5.09,1.73-10.04,2.59-14.89.58-3.29,15.81-98.83,16.33-104.55,1.87-20.58,2.72-42.88,2.07-69.2-.15-6.16-6.98-9.79-12.16-6.46l-128.11,82.27c-1.09.7-2.34,1.12-3.64,1.22-21.05,1.66-42.07,4.68-62.94,9.09-4.64.98-7.37,5.82-5.82,10.31,6.87,19.88,21.31,63.63,22.37,66.94,2.26,7.05,18.77,57.94,24.13,75.79,2.47,8.24,4.88,16.46,7.23,24.64.14.49.28.99.42,1.48h122.98c1.64-8.02,3.22-15.86,4.73-23.46,3.49-17.55,6.79-35.33,9.81-53.18Z" fill="#57a89f"/></g><g id="Symbole"><path id="regardio-system-facet-icon" d="M218.27,30.22c-.11-2.76-.27-6.66-.33-9.42,0-.14-.08-.27-.21-.34-2.59-1.4-4.87-2.22-7.76-3.41-.13-.05-.28-.05-.42.01-2.89,1.26-5.14,1.91-7.73,3.31-.13.07-.21.19-.21.32-.05,2.6-.24,6.96-.35,9.56,0,.13.07.26.2.32,2.76,1.29,5.2,2.15,8.08,3.39.14.06.31.08.44.01,2.93-1.35,5.28-2.12,8.09-3.42.13-.06.2-.2.2-.34Z" fill="#b4a8a6"/></g></svg>