<svg viewBox="0 0 297.64 419.53" xmlns="http://www.w3.org/2000/svg"><path d="m12.31 419.53h271.16c7.83 0 14.17-6.35 14.17-14.17v-393.05c-0-6.8-5.51-12.31-12.31-12.31h-273.02c-6.8 0-12.31 5.51-12.31 12.31v394.91c0 6.8 5.51 12.31 12.31 12.31z" fill="#babb77"/><path d="m178.49 290.2c3.77.6 7.34-1.92 8.06-5.67 8.77-45.63 17.29-92.88 23.97-133.03 1.63-9.77 4.71-30.86 6.85-45.65.89-6.13-5.95-10.38-11.06-6.87l-67.34 46.29c-1.07.73-2.32 1.16-3.61 1.23-12.96.76-25.92 2.36-38.78 4.81-4.19.8-6.72 5.14-5.38 9.19 1.59 4.81 3.15 9.6 4.68 14.38 10.4 32.36 19.1 70.91 26.48 109.25.71 3.7 4.21 6.22 7.94 5.68 16.07-2.32 32.32-2.16 48.18.38z" fill="#f2edee"/><path d="m156.24 29.66c-.1-2.76-.17-5.52-.21-8.29 0-.14-.07-.27-.19-.34-2.26-1.4-4.58-2.75-6.85-3.98-.11-.06-.25-.06-.37.01-2.26 1.39-4.59 2.82-6.84 4.22-.11.07-.18.19-.19.32-.05 2.6-.12 5.2-.21 7.8 0 .13.06.25.17.32 2.26 1.4 4.65 2.84 7.05 4.23.12.07.27.07.39.01 2.4-1.23 4.8-2.58 7.06-3.98.11-.07.18-.2.17-.34z" fill="#a09392"/></svg>