<svg viewBox="0 0 419.53 297.64" xmlns="http://www.w3.org/2000/svg"><path d="m419.53 285.33v-271.16c0-7.83-6.35-14.17-14.17-14.17h-393.05c-6.8 0-12.31 5.51-12.31 12.31v273.02c0 6.8 5.51 12.31 12.31 12.31h394.91c6.8 0 12.31-5.51 12.31-12.31z" fill="#dfd6d4"/><path d="m298.03 196.46c.55-3 8.69-49.74 11.87-70.58.64-4.2-2.15-8.14-6.32-8.95-27.75-5.41-55.71-8.37-83.57-8.95-1.3-.03-2.57-.37-3.7-1.01l-148.21-83.54c-6.86-3.87-14.54 3.6-10.86 10.56 13.65 25.9 34.29 66.15 41.93 86.28l.13.07s-.06.02-.09.02c8.11 21.38 35.35 106.59 36.89 111.38 4.26 13.27 8.36 26.54 12.29 39.75 2.51 8.41 4.91 17.15 7.21 26.13h123.3c1.65-7.75 3.27-15.54 4.85-23.39 2.99-14.92 12.83-69.84 14.28-77.79z" fill="#9cc07f"/><path d="m218.27 30.22c-.11-2.76-.27-6.66-.33-9.42 0-.14-.08-.27-.21-.34-2.59-1.4-4.87-2.22-7.76-3.41-.13-.05-.28-.05-.42.01-2.89 1.26-5.14 1.91-7.73 3.31-.13.07-.21.19-.21.32-.05 2.6-.24 6.96-.35 9.56 0 .13.07.26.2.32 2.76 1.29 5.2 2.15 8.08 3.39.14.06.31.08.44.01 2.93-1.35 5.28-2.12 8.09-3.42.13-.06.2-.2.2-.34z" fill="#86a965"/><path d="m203.83 72.7.43-.7c.42.27.84.51 1.28.72s.95.37 1.52.49c.58.12 1.26.18 2.04.18 1.25 0 2.26-.17 3.05-.5.78-.34 1.36-.82 1.74-1.46s.56-1.42.56-2.35c0-.64-.08-1.2-.23-1.67s-.4-.86-.73-1.18c-.34-.31-.76-.55-1.28-.71s-1.13-.24-1.83-.24h-5.4l-.26-.26.82-7.8h8.97v.86h-8.21l-.67 6.41 5.11-.02c1.07 0 1.95.17 2.64.5.69.34 1.2.84 1.52 1.52.33.68.49 1.53.49 2.56 0 1.1-.23 2.05-.7 2.83s-1.16 1.38-2.08 1.78-2.08.6-3.47.6c-.82 0-1.54-.06-2.17-.18s-1.2-.3-1.69-.53c-.5-.23-.98-.52-1.46-.85z" fill="#21211f"/></svg>