<svg viewBox="0 0 297.64 419.53" xmlns="http://www.w3.org/2000/svg"><path d="m12.31 419.53h271.16c7.83 0 14.17-6.35 14.17-14.17v-393.05c0-6.8-5.51-12.31-12.31-12.31h-273.02c-6.8 0-12.31 5.51-12.31 12.31v394.91c0 6.8 5.51 12.31 12.31 12.31z" fill="#dfa663"/><path d="m206.95 158.5c.66-3.87-1.95-7.55-5.81-8.2-23.08-3.9-46.31-5.06-69.26-3.59-1.29.08-2.58-.18-3.73-.78l-38.15-19.87c-5.71-2.97-12.1 2.57-9.99 8.65 2.13 6.15 4.22 12.3 6.27 18.43 13.04 38.99 23.77 85.78 32.72 131.31.73 3.72 4.25 6.24 8 5.67 15.94-2.42 32.3-2.45 48.55.09 3.76.59 7.31-1.94 8.03-5.68 6.72-34.99 13.25-70.02 18.76-99.97 1.58-8.61 3.13-17.3 4.62-26.05z" fill="#f2edee"/><path d="m156.29 29.66c-.1-2.76-.17-5.52-.21-8.29 0-.14-.07-.27-.19-.34-2.27-1.4-4.61-2.75-6.89-3.98-.11-.06-.25-.06-.37.01-2.28 1.39-4.61 2.82-6.89 4.22-.11.07-.18.19-.19.32-.05 2.6-.12 5.2-.21 7.8 0 .13.06.25.18.32 2.27 1.4 4.68 2.84 7.1 4.23.12.07.27.07.39.01 2.42-1.23 4.83-2.58 7.1-3.98.11-.07.18-.2.18-.34z" fill="#897f7f" opacity=".5"/></svg>