<svg xmlns="http://www.w3.org/2000/svg" viewBox="0 0 297.64 419.53"><path d="M12.31 419.53h271.16c7.83 0 14.17-6.35 14.17-14.17V12.31c0-6.8-5.51-12.31-12.31-12.31H12.31C5.51 0 0 5.51 0 12.31v394.91c0 6.8 5.51 12.31 12.31 12.31z" fill="#b4a8a6"/><path d="M189.44 311.83c-3.57 19.38-7.79 42.04-12.14 64.68-.47 2.42-2.76 4.06-5.19 3.68-10.51-1.64-21.1-1.63-31.41-.06-2.43.37-4.7-1.26-5.18-3.67-5.79-29.45-12.73-59.73-21.17-84.96-1.33-3.97-2.68-7.94-4.06-11.92-1.36-3.94 2.77-7.52 6.46-5.6l24.68 12.85c.74.39 1.58.56 2.41.51 14.84-.95 29.88-.2 44.81 2.32 2.5.42 4.19 2.8 3.76 5.31-.96 5.67-1.96 11.29-2.99 16.86z" fill="#dfd6d4"/><path d="M157.32 30.22c-.11-2.76-.27-6.66-.33-9.42 0-.14-.08-.27-.21-.34-2.59-1.4-4.87-2.22-7.76-3.41a.556.556 0 0 0-.42.01c-2.89 1.26-5.14 1.91-7.73 3.31a.37.37 0 0 0-.21.32c-.05 2.6-.24 6.96-.35 9.56 0 .13.07.26.2.32 2.76 1.29 5.2 2.15 8.08 3.39.14.06.31.08.44.01 2.93-1.35 5.28-2.12 8.09-3.42.13-.06.2-.2.2-.34z" fill="#86a965"/></svg>