<svg viewBox="0 0 297.64 419.53" xmlns="http://www.w3.org/2000/svg"><path d="m12.31 419.53h271.16c7.83 0 14.17-6.35 14.17-14.17v-393.05c-0-6.8-5.51-12.31-12.31-12.31h-273.02c-6.8 0-12.31 5.51-12.31 12.31v394.91c0 6.8 5.51 12.31 12.31 12.31z" fill="#dfd6d4"/><path d="m75.15 56.01c4.26 13.27 8.36 26.54 12.29 39.75 27.21 91.31 42 220.01 52.73 294.65 1.22 8.51 13.25 9.21 15.45.9 17.38-65.74 42.22-177.17 59.54-256.38 2.62-12 5.18-24.16 7.64-36.42 2.99-14.92 12.83-69.84 14.28-77.79.22-1.22 1.71-9.69 3.6-20.71h-183.65c8.83 26.99 17.28 53.4 18.12 56.01z" fill="#9cc07f"/><path d="m157.32 30.22c-.11-2.76-.27-6.66-.33-9.42 0-.14-.08-.27-.21-.34-2.59-1.4-4.87-2.22-7.76-3.41-.13-.05-.28-.05-.42.01-2.89 1.26-5.14 1.91-7.73 3.31-.13.07-.21.19-.21.32-.05 2.6-.24 6.96-.35 9.56 0 .13.07.26.2.32 2.76 1.29 5.2 2.15 8.08 3.39.14.06.31.08.44.01 2.93-1.35 5.28-2.12 8.09-3.42.13-.06.2-.2.2-.34z" fill="#86a965"/><path d="m142.88 72.7.43-.7c.42.27.84.51 1.28.72s.95.37 1.52.49c.58.12 1.26.18 2.04.18 1.25 0 2.26-.17 3.05-.5.78-.34 1.36-.82 1.74-1.46s.56-1.42.56-2.35c0-.64-.08-1.2-.23-1.67s-.39-.86-.73-1.18c-.34-.31-.77-.55-1.29-.71s-1.13-.24-1.83-.24h-5.4l-.27-.26.82-7.8h8.97v.86h-8.21l-.67 6.41 5.11-.02c1.07 0 1.95.17 2.64.5s1.2.84 1.52 1.52c.33.68.49 1.53.49 2.56 0 1.1-.23 2.05-.7 2.83-.46.78-1.16 1.38-2.08 1.78s-2.07.6-3.47.6c-.82 0-1.54-.06-2.17-.18s-1.2-.3-1.69-.53c-.5-.23-.98-.52-1.46-.85z" fill="#21211f"/></svg>