<?xml version="1.0" encoding="UTF-8"?><svg xmlns="http://www.w3.org/2000/svg" viewBox="0 0 419.53 297.64"><g id="Zugabe"><path d="M143.07,306.14h151.01c.77-2.82,1.53-5.67,2.29-8.5h-156.2c.97,2.84,1.95,5.68,2.9,8.5Z" fill="#ba9f40"/></g><g id="Karte"><path d="M419.53,285.33V14.17c0-7.83-6.35-14.17-14.17-14.17H12.31C5.51,0,0,5.51,0,12.31v273.02c0,6.8,5.51,12.31,12.31,12.31h394.91c6.8,0,12.31-5.51,12.31-12.31Z" fill="#dfd6d4"/></g><g id="Gestaltung"><path d="M320.05,200.98c.71-2.97,11.35-49.09,15.67-69.84.86-4.15-1.71-8.24-5.82-9.27-42.58-10.69-87.31-15.83-133.35-14.63-38.86,1.02-76.55,6.51-112.59,15.96-4.61,1.21-7.1,6.2-5.31,10.62,8.49,20.87,24.3,62.4,25.55,65.75,2.6,6.93,23.51,62.4,27.79,74.5,2.79,7.89,5.5,15.74,8.17,23.57h156.2c1.76-6.56,3.51-13.14,5.22-19.78,3.85-14.94,16.58-69.02,18.46-76.88Z" fill="#ba9f40"/></g><g id="Symbole"><path id="regardio-system-facet-icon" d="M218.27,30.22c-.11-2.76-.27-6.66-.33-9.42,0-.14-.08-.27-.21-.34-2.59-1.4-4.87-2.22-7.76-3.41-.13-.05-.28-.05-.42.01-2.89,1.26-5.14,1.91-7.73,3.31-.13.07-.21.19-.21.32-.05,2.6-.24,6.96-.35,9.56,0,.13.07.26.2.32,2.76,1.29,5.2,2.15,8.08,3.39.14.06.31.08.44.01,2.93-1.35,5.28-2.12,8.09-3.42.13-.06.2-.2.2-.34Z" fill="#b4a8a6"/></g></svg>