<svg viewBox="0 0 297.64 419.53" xmlns="http://www.w3.org/2000/svg"><path d="m12.31 419.53h271.16c7.83 0 14.17-6.35 14.17-14.17v-393.05c-0-6.8-5.51-12.31-12.31-12.31h-273.02c-6.8 0-12.31 5.51-12.31 12.31v394.91c0 6.8 5.51 12.31 12.31 12.31z" fill="#dfa663"/><path d="m206.95 158.5c.66-3.87-1.95-7.55-5.81-8.2-23.08-3.9-46.31-5.06-69.26-3.59-1.29.08-2.58-.18-3.73-.78l-38.15-19.87c-5.71-2.97-12.1 2.57-9.99 8.65 2.13 6.15 4.22 12.3 6.27 18.43 13.04 38.99 23.77 85.78 32.72 131.31.73 3.72 4.25 6.24 8 5.67 15.94-2.42 32.3-2.45 48.55.09 3.76.59 7.31-1.94 8.03-5.68 6.72-34.99 13.25-70.02 18.76-99.97 1.58-8.61 3.13-17.3 4.62-26.05z" fill="#f2edee"/><path d="m157.32 30.22c-.11-2.76-.27-6.66-.33-9.42 0-.14-.08-.27-.21-.34-2.59-1.4-4.87-2.22-7.76-3.41-.13-.05-.28-.05-.42.01-2.89 1.26-5.14 1.91-7.73 3.31-.13.07-.21.19-.21.32-.05 2.6-.24 6.96-.35 9.56 0 .13.07.26.2.32 2.76 1.29 5.2 2.15 8.08 3.39.14.06.31.08.44.01 2.93-1.35 5.28-2.12 8.09-3.42.13-.06.2-.2.2-.34z" fill="#86a965"/><path d="m143.23 73.3c1.42-1.28 2.64-2.42 3.63-3.41 1-.99 1.83-1.87 2.48-2.64.66-.77 1.17-1.47 1.55-2.11s.64-1.23.78-1.76c.14-.54.22-1.07.22-1.6 0-.9-.15-1.63-.46-2.2s-.74-1-1.31-1.28c-.57-.29-1.24-.43-2.03-.43-.72 0-1.43.1-2.14.31s-1.36.53-1.97.96l-.41-.72c.45-.32.92-.59 1.43-.82.5-.22 1.03-.38 1.58-.48s1.1-.14 1.64-.14c.96 0 1.78.18 2.47.53s1.21.88 1.57 1.58.54 1.58.54 2.62c0 .56-.07 1.12-.2 1.68-.14.56-.38 1.16-.73 1.79s-.84 1.33-1.45 2.1c-.62.77-1.4 1.64-2.36 2.6s-2.13 2.07-3.5 3.3h10.1v.84h-11.35l-.1-.72z" fill="#21211f"/></svg>