<svg viewBox="0 0 297.64 419.53" xmlns="http://www.w3.org/2000/svg"><path d="m12.31 419.53h271.16c7.83 0 14.17-6.35 14.17-14.17v-393.05c-0-6.8-5.51-12.31-12.31-12.31h-273.02c-6.8 0-12.31 5.51-12.31 12.31v394.91c0 6.8 5.51 12.31 12.31 12.31z" fill="#dfd6d4"/><path d="m63.69 19.98c2.26 7.05 18.77 57.94 24.13 75.78 2.47 8.24 4.88 16.46 7.23 24.64 23.7 82.56 36.49 200.35 46.18 269.98 1.19 8.53 13.22 9.28 15.45.96 19.53-72.9 48.05-200.09 66.5-292.92 3.49-17.55 6.79-35.33 9.81-53.18.86-5.09 1.73-10.04 2.59-14.89.21-1.17 2.27-14.03 4.86-30.36h-183.34c3.48 10.5 6.16 18.63 6.59 19.98z" fill="#6ebcb4"/><path d="m157.32 30.22c-.11-2.76-.27-6.66-.33-9.42 0-.14-.08-.27-.21-.34-2.59-1.4-4.87-2.22-7.76-3.41-.13-.05-.28-.05-.42.01-2.89 1.26-5.14 1.91-7.73 3.31-.13.07-.21.19-.21.32-.05 2.6-.24 6.96-.35 9.56 0 .13.07.26.2.32 2.76 1.29 5.2 2.15 8.08 3.39.14.06.31.08.44.01 2.93-1.35 5.28-2.12 8.09-3.42.13-.06.2-.2.2-.34z" fill="#86a965"/><path d="m146.99 74.02c0-.85.05-1.65.16-2.4.1-.75.27-1.51.49-2.28s.53-1.58.92-2.44.87-1.8 1.43-2.82l3.41-5.95h-10.29v-.91h11.42v.7l-4.2 7.44c-.53.94-.97 1.88-1.32 2.8s-.62 1.85-.79 2.8c-.18.94-.27 1.97-.29 3.07h-.94z" fill="#21211f"/></svg>