<svg viewBox="0 0 297.64 419.53" xmlns="http://www.w3.org/2000/svg"><path d="m12.31 419.53h271.16c7.83 0 14.17-6.35 14.17-14.17v-393.05c-0-6.8-5.51-12.31-12.31-12.31h-273.02c-6.8 0-12.31 5.51-12.31 12.31v394.91c0 6.8 5.51 12.31 12.31 12.31z" fill="#7fc395"/><path d="m186.42 290.15c3.74.75 7.4-1.61 8.28-5.33 8.15-34.39 16.23-69.37 23.37-100.61 1.84-8.03 3.64-16.14 5.4-24.31.83-3.84-1.62-7.63-5.46-8.45-27.04-5.78-55.33-7.91-84.3-5.89-18.42 1.29-36.33 4.21-53.62 8.6-4.15 1.06-6.4 5.55-4.81 9.53 3.97 9.95 7.83 19.86 11.57 29.68 10.66 27.99 19.99 59.81 28.16 91.57.94 3.64 4.55 5.92 8.24 5.19 6.64-1.33 13.44-2.26 20.37-2.74 14.68-1.03 29.03-.03 42.78 2.74z" fill="#f2edee"/><path d="m157.32 30.22c-.11-2.76-.27-6.66-.33-9.42 0-.14-.08-.27-.21-.34-2.59-1.4-4.87-2.22-7.76-3.41-.13-.05-.28-.05-.42.01-2.89 1.26-5.14 1.91-7.73 3.31-.13.07-.21.19-.21.32-.05 2.6-.24 6.96-.35 9.56 0 .13.07.26.2.32 2.76 1.29 5.2 2.15 8.08 3.39.14.06.31.08.44.01 2.93-1.35 5.28-2.12 8.09-3.42.13-.06.2-.2.2-.34z" fill="#86a965"/><path d="m149.46 74.26c-1.46 0-2.66-.28-3.61-.85s-1.66-1.46-2.12-2.68-.7-2.8-.7-4.75c0-2.1.26-3.81.79-5.14s1.3-2.3 2.3-2.93c1.01-.62 2.25-.94 3.72-.94.58 0 1.13.04 1.67.11s1.06.18 1.56.31c.5.14 1 .3 1.5.49l-.31.72c-.48-.14-.96-.28-1.43-.41s-.95-.22-1.43-.29c-.48-.06-.98-.1-1.51-.1-1.3 0-2.38.3-3.26.89s-1.54 1.49-1.99 2.69-.67 2.72-.67 4.56c0 1.34.12 2.49.35 3.43s.58 1.72 1.03 2.33 1.03 1.05 1.73 1.32 1.5.41 2.41.41c1.49 0 2.65-.4 3.49-1.19s1.26-1.89 1.26-3.3c0-.9-.18-1.66-.54-2.29s-.87-1.11-1.54-1.43c-.66-.32-1.47-.48-2.41-.48-.78 0-1.55.11-2.29.34-.74.22-1.43.54-2.05.94s-1.13.88-1.51 1.44l-.07-.91c.38-.51.9-.96 1.56-1.33.66-.38 1.38-.68 2.16-.9s1.58-.34 2.4-.34c1.09 0 2.02.19 2.79.56.78.38 1.37.92 1.79 1.64s.62 1.62.62 2.69c0 1.66-.5 2.98-1.49 3.94s-2.39 1.44-4.2 1.44z" fill="#21211f"/></svg>