<svg viewBox="0 0 297.64 419.53" xmlns="http://www.w3.org/2000/svg"><path d="M12.31 419.53h271.16c7.83 0 14.17-6.35 14.17-14.17V12.31c0-6.8-5.51-12.31-12.31-12.31H12.31C5.51 0 0 5.51 0 12.31v394.91c0 6.8 5.51 12.31 12.31 12.31z" fill="#77b3dc"/><path d="M178.75 302.69c-19.04-3.41-38.29-3.66-57.04-.98-4.12.59-7.97-2.14-8.87-6.2-7.16-32.3-31.04-129.13-41.69-170.11-1.76-6.75 5.37-12.35 11.52-9.06l42.98 23.05c1.28.69 2.73 1.01 4.19.93 25.65-1.32 51.59.26 77.32 4.89 4.33.78 7.22 4.93 6.45 9.27-4.9 27.74-20.58 114.32-25.64 141.79-.79 4.31-4.91 7.2-9.22 6.43z" fill="#f2edee"/><path d="M157.32 30.22c-.11-2.76-.27-6.66-.33-9.42 0-.14-.08-.27-.21-.34-2.59-1.4-4.87-2.22-7.76-3.41a.556.556 0 0 0-.42.01c-2.89 1.26-5.14 1.91-7.73 3.31a.37.37 0 0 0-.21.32c-.05 2.6-.24 6.96-.35 9.56 0 .13.07.26.2.32 2.76 1.29 5.2 2.15 8.08 3.39.14.06.31.08.44.01 2.93-1.35 5.28-2.12 8.09-3.42.13-.06.2-.2.2-.34z" fill="#86a965"/></svg>