<svg viewBox="0 0 297.64 419.53" xmlns="http://www.w3.org/2000/svg"><path d="m12.31 419.53h271.16c7.83 0 14.17-6.35 14.17-14.17v-393.05c0-6.8-5.51-12.31-12.31-12.31h-273.02c-6.8 0-12.31 5.51-12.31 12.31v394.91c0 6.8 5.51 12.31 12.31 12.31z" fill="#a09392"/><path d="m192.42 294.98c.43-2.5-1.26-4.88-3.76-5.31-14.93-2.53-29.96-3.27-44.81-2.32-.84.05-1.67-.12-2.41-.51l-24.68-12.85c-3.69-1.92-7.83 1.66-6.46 5.6 1.38 3.98 2.73 7.96 4.06 11.92 8.44 25.22 15.38 55.5 21.17 84.96.47 2.41 2.75 4.04 5.18 3.67 10.31-1.56 20.9-1.58 31.41.06 2.43.38 4.73-1.26 5.19-3.68 4.35-22.64 8.57-45.31 12.14-64.68 1.02-5.57 2.02-11.19 2.99-16.86z" fill="#dfd6d4"/><path d="m156.29 29.66c-.1-2.76-.17-5.52-.21-8.29 0-.14-.07-.27-.19-.34-2.27-1.4-4.61-2.75-6.89-3.98-.11-.06-.25-.06-.37.01-2.28 1.39-4.61 2.82-6.89 4.22-.11.07-.18.19-.19.32-.05 2.6-.12 5.2-.21 7.8 0 .13.06.25.18.32 2.27 1.4 4.68 2.84 7.1 4.23.12.07.27.07.39.01 2.42-1.23 4.83-2.58 7.1-3.98.11-.07.18-.2.18-.34z" fill="#897f7f" opacity=".5"/></svg>