<?xml version="1.0" encoding="UTF-8"?><svg xmlns="http://www.w3.org/2000/svg" viewBox="0 0 297.64 419.53"><g id="Karte"><path d="M12.31,419.53h271.16c7.83,0,14.17-6.35,14.17-14.17V12.31C297.64,5.51,292.13,0,285.33,0H12.31C5.51,0,0,5.51,0,12.31v394.91c0,6.8,5.51,12.31,12.31,12.31Z" fill="#dfa663"/></g><g id="Gestaltung"><path id="Menschen" d="M206.95,158.5c.66-3.87-1.95-7.55-5.81-8.2-23.08-3.9-46.31-5.06-69.26-3.59-1.29.08-2.58-.18-3.73-.78l-38.15-19.87c-5.71-2.97-12.1,2.57-9.99,8.65,2.13,6.15,4.22,12.3,6.27,18.43,13.04,38.99,23.77,85.78,32.72,131.31.73,3.72,4.25,6.24,8,5.67,15.94-2.42,32.3-2.45,48.55.09,3.76.59,7.31-1.94,8.03-5.68,6.72-34.99,13.25-70.02,18.76-99.97,1.58-8.61,3.13-17.3,4.62-26.05Z" fill="#f2edee"/></g><g id="Symbole"><path id="regardio-system-facet-icon" d="M157.32,30.22c-.11-2.76-.27-6.66-.33-9.42,0-.14-.08-.27-.21-.34-2.59-1.4-4.87-2.22-7.76-3.41-.13-.05-.28-.05-.42.01-2.89,1.26-5.14,1.91-7.73,3.31-.13.07-.21.19-.21.32-.05,2.6-.24,6.96-.35,9.56,0,.13.07.26.2.32,2.76,1.29,5.2,2.15,8.08,3.39.14.06.31.08.44.01,2.93-1.35,5.28-2.12,8.09-3.42.13-.06.2-.2.2-.34Z" fill="#897f7f"/></g></svg>