<?xml version="1.0" encoding="UTF-8"?><svg xmlns="http://www.w3.org/2000/svg" viewBox="0 0 297.64 419.53"><g id="Zugabe"><path d="M285.83,350.88c-2.84.49-5.67.99-8.5,1.51v17.01c2.83-.52,5.67-1.02,8.5-1.51v-17.01Z" fill="#a09392"/><path d="M285.83,388.23c-2.84-.49-5.67-.99-8.5-1.51v17.01c2.83.52,5.67,1.02,8.5,1.51v-17.01Z" fill="#a09392"/></g><g id="Karte"><path d="M12.31,419.53h271.16c7.83,0,14.17-6.35,14.17-14.17V12.31C297.64,5.51,292.13,0,285.33,0H12.31C5.51,0,0,5.51,0,12.31v394.91c0,6.8,5.51,12.31,12.31,12.31Z" fill="#b4a8a6"/></g><g id="Gestaltung"><path id="Menschen" d="M192.42,294.98c.43-2.5-1.26-4.88-3.76-5.31-14.93-2.53-29.96-3.27-44.81-2.32-.84.05-1.67-.12-2.41-.51l-24.68-12.85c-3.69-1.92-7.83,1.66-6.46,5.6,1.38,3.98,2.73,7.96,4.06,11.92,8.44,25.22,15.38,55.5,21.17,84.96.47,2.41,2.75,4.04,5.18,3.67,10.31-1.56,20.9-1.58,31.41.06,2.43.38,4.73-1.26,5.19-3.68,4.35-22.64,8.57-45.31,12.14-64.68,1.02-5.57,2.02-11.19,2.99-16.86Z" fill="#dfd6d4"/></g><g id="Symbole"><path id="regardio-system-facet-icon" d="M157.32,30.22c-.11-2.76-.27-6.66-.33-9.42,0-.14-.08-.27-.21-.34-2.59-1.4-4.87-2.22-7.76-3.41-.13-.05-.28-.05-.42.01-2.89,1.26-5.14,1.91-7.73,3.31-.13.07-.21.19-.21.32-.05,2.6-.24,6.96-.35,9.56,0,.13.07.26.2.32,2.76,1.29,5.2,2.15,8.08,3.39.14.06.31.08.44.01,2.93-1.35,5.28-2.12,8.09-3.42.13-.06.2-.2.2-.34Z" fill="#897f7f"/></g></svg>