<?xml version="1.0" encoding="UTF-8"?><svg xmlns="http://www.w3.org/2000/svg" viewBox="0 0 297.64 419.53"><g id="Zugabe"><path d="M127.09,367.72c2.84.49,5.67.99,8.5,1.5v-17.01c-2.83-.52-5.67-1.01-8.5-1.5v17.01Z" fill="#a09392"/><path d="M135.59,403.9v-17.01c-2.83.52-5.67,1.02-8.5,1.5v17.01c2.84-.49,5.67-.99,8.5-1.5Z" fill="#a09392"/></g><g id="Karte"><path d="M12.31,419.53h271.16c7.83,0,14.17-6.35,14.17-14.17V12.31C297.64,5.51,292.13,0,285.33,0H12.31C5.51,0,0,5.51,0,12.31v394.91c0,6.8,5.51,12.31,12.31,12.31Z" fill="#cec3c1"/></g><g id="Gestaltung"><path d="M231.24,280.63c-.41-1.75-2.26-2.74-3.95-2.1-7.94,2.99-23.71,8.53-24.98,8.97-2.63.91-23.71,8.23-28.3,9.72-5.34,1.74-10.66,3.4-15.91,4.99-29.71,9-69,13.9-93.24,17.56-4.06.61-4.59,6.25-.71,7.61,23.8,8.36,63.27,20.53,93.95,29.85,4.22,1.28,8.5,2.54,12.81,3.78,5.58,1.6,25.8,6.92,28.74,7.71,1.11.3,18.35,4.76,26.12,6.59,1.56.37,3.12-.56,3.55-2.1,4.44-15.92,6.82-32.7,6.82-50.03,0-14.63-1.69-28.87-4.89-42.53Z" fill="#a09392"/></g><g id="Symbole"><path id="regardio-system-facet-icon" d="M157.32,30.22c-.11-2.76-.27-6.66-.33-9.42,0-.14-.08-.27-.21-.34-2.59-1.4-4.87-2.22-7.76-3.41-.13-.05-.28-.05-.42.01-2.89,1.26-5.14,1.91-7.73,3.31-.13.07-.21.19-.21.32-.05,2.6-.24,6.96-.35,9.56,0,.13.07.26.2.32,2.76,1.29,5.2,2.15,8.08,3.39.14.06.31.08.44.01,2.93-1.35,5.28-2.12,8.09-3.42.13-.06.2-.2.2-.34Z" fill="#a09392"/></g></svg>