<?xml version="1.0" encoding="UTF-8"?><svg xmlns="http://www.w3.org/2000/svg" viewBox="0 0 297.64 419.53"><g id="Karte"><path d="M12.31,419.53h271.16c7.83,0,14.17-6.35,14.17-14.17V12.31C297.64,5.51,292.13,0,285.33,0H12.31C5.51,0,0,5.51,0,12.31v394.91c0,6.8,5.51,12.31,12.31,12.31Z" fill="#ad9bcb"/></g><g id="Gestaltung"><path id="Zeiten" d="M178.49,290.2c3.77.6,7.34-1.92,8.06-5.67,8.77-45.63,17.29-92.88,23.97-133.03,1.63-9.77,4.71-30.86,6.85-45.65.89-6.13-5.95-10.38-11.06-6.87l-67.34,46.29c-1.07.73-2.32,1.16-3.61,1.23-12.96.76-25.92,2.36-38.78,4.81-4.19.8-6.72,5.14-5.38,9.19,1.59,4.81,3.15,9.6,4.68,14.38,10.4,32.36,19.1,70.91,26.48,109.25.71,3.7,4.21,6.22,7.94,5.68,16.07-2.32,32.32-2.16,48.18.38Z" fill="#f2edee"/></g><g id="Symbole"><path id="regardio-system-facet-icon" d="M157.32,30.22c-.11-2.76-.27-6.66-.33-9.42,0-.14-.08-.27-.21-.34-2.59-1.4-4.87-2.22-7.76-3.41-.13-.05-.28-.05-.42.01-2.89,1.26-5.14,1.91-7.73,3.31-.13.07-.21.19-.21.32-.05,2.6-.24,6.96-.35,9.56,0,.13.07.26.2.32,2.76,1.29,5.2,2.15,8.08,3.39.14.06.31.08.44.01,2.93-1.35,5.28-2.12,8.09-3.42.13-.06.2-.2.2-.34Z" fill="#897f7f"/></g></svg>