<svg viewBox="0 0 297.64 419.53" xmlns="http://www.w3.org/2000/svg"><path d="m12.31 419.53h271.16c7.83 0 14.17-6.35 14.17-14.17v-393.05c-0-6.8-5.51-12.31-12.31-12.31h-273.02c-6.8 0-12.31 5.51-12.31 12.31v394.91c0 6.8 5.51 12.31 12.31 12.31z" fill="#7fc395"/><path d="m186.42 290.15c3.74.75 7.4-1.61 8.28-5.33 8.15-34.39 16.23-69.37 23.37-100.61 1.84-8.03 3.64-16.14 5.4-24.31.83-3.84-1.62-7.63-5.46-8.45-27.04-5.78-55.33-7.91-84.3-5.89-18.42 1.29-36.33 4.21-53.62 8.6-4.15 1.06-6.4 5.55-4.81 9.53 3.97 9.95 7.83 19.86 11.57 29.68 10.66 27.99 19.99 59.81 28.16 91.57.94 3.64 4.55 5.92 8.24 5.19 6.64-1.33 13.44-2.26 20.37-2.74 14.68-1.03 29.03-.03 42.78 2.74z" fill="#f2edee"/><path d="m156.24 29.66c-.1-2.76-.17-5.52-.21-8.29 0-.14-.07-.27-.19-.34-2.26-1.4-4.58-2.75-6.85-3.98-.11-.06-.25-.06-.37.01-2.26 1.39-4.59 2.82-6.84 4.22-.11.07-.18.19-.19.32-.05 2.6-.12 5.2-.21 7.8 0 .13.06.25.17.32 2.26 1.4 4.65 2.84 7.05 4.23.12.07.27.07.39.01 2.4-1.23 4.8-2.58 7.06-3.98.11-.07.18-.2.17-.34z" fill="#a09392"/></svg>