<svg viewBox="0 0 419.53 297.64" xmlns="http://www.w3.org/2000/svg"><path d="m419.53 285.33v-271.16c0-7.83-6.35-14.17-14.17-14.17h-393.05c-6.8 0-12.31 5.51-12.31 12.31v273.02c0 6.8 5.51 12.31 12.31 12.31h394.91c6.8 0 12.31-5.51 12.31-12.31z" fill="#dfd6d4"/><path d="m121.66 129.85c.02-.1.04-.21.06-.31-.03.1-.04.21-.06.31z" fill="#57a89f"/><path d="m296.53 206.11c.58-3.29 15.81-98.83 16.33-104.55 1.87-20.58 2.72-42.88 2.07-69.2-.15-6.16-6.98-9.79-12.16-6.46l-128.11 82.27c-1.09.7-2.34 1.12-3.64 1.22-21.05 1.66-42.07 4.68-62.94 9.09-4.64.98-7.37 5.82-5.82 10.31 6.87 19.88 21.31 63.63 22.37 66.94 2.26 7.05 18.77 57.94 24.13 75.78 2.47 8.24 4.88 16.46 7.23 24.64.14.49.28.99.42 1.48h122.98c1.64-8.02 3.22-15.86 4.73-23.46 3.49-17.55 11.54-63.22 12.4-68.07z" fill="#db8665"/><path d="m217.23 29.66c-.1-2.76-.17-5.52-.21-8.29 0-.14-.07-.27-.19-.34-2.27-1.4-4.61-2.75-6.89-3.98-.11-.06-.25-.06-.37.01-2.28 1.39-4.61 2.82-6.89 4.22-.11.07-.18.19-.19.32-.05 2.6-.12 5.2-.21 7.8 0 .13.06.25.18.32 2.27 1.4 4.68 2.84 7.1 4.23.12.07.27.07.39.01 2.42-1.23 4.83-2.58 7.1-3.98.11-.07.18-.2.18-.34z" fill="#897f7f" opacity=".5"/></svg>