<svg viewBox="0 0 297.64 419.53" xmlns="http://www.w3.org/2000/svg"><path d="M12.31 419.53h271.16c7.83 0 14.17-6.35 14.17-14.17V12.31c0-6.8-5.51-12.31-12.31-12.31H12.31C5.51 0 0 5.51 0 12.31v394.91c0 6.8 5.51 12.31 12.31 12.31z" fill="#ad9bcb"/><path d="M219.43 95.57c-6.85 45.9-24.59 164.01-30.43 200.36-.7 4.33-4.76 7.32-9.09 6.64a180.43 180.43 0 0 0-57.09.15c-4.09.67-8-1.98-8.98-6.01-6.57-26.93-28.26-112.45-35.45-139.77-1.17-4.44 1.62-8.96 6.12-9.87 14.68-2.96 29.48-4.94 44.3-5.94 1.46-.1 2.86-.58 4.05-1.42l74.07-51.87c5.76-4.03 13.54.78 12.5 7.73z" fill="#f2edee"/><path d="M157.32 30.22c-.11-2.76-.27-6.66-.33-9.42 0-.14-.08-.27-.21-.34-2.59-1.4-4.87-2.22-7.76-3.41a.556.556 0 0 0-.42.01c-2.89 1.26-5.14 1.91-7.73 3.31a.37.37 0 0 0-.21.32c-.05 2.6-.24 6.96-.35 9.56 0 .13.07.26.2.32 2.76 1.29 5.2 2.15 8.08 3.39.14.06.31.08.44.01 2.93-1.35 5.28-2.12 8.09-3.42.13-.06.2-.2.2-.34z" fill="#86a965"/></svg>