<svg xmlns="http://www.w3.org/2000/svg" viewBox="0 0 419.53 297.64"><path d="M419.53 285.33V14.17c0-7.83-6.35-14.17-14.17-14.17H12.31C5.51 0 0 5.51 0 12.31v273.02c0 6.8 5.51 12.31 12.31 12.31h394.91c6.8 0 12.31-5.51 12.31-12.31z" fill="#dfd6d4"/><path d="M293.94 220.99c.86-5.09 1.73-10.04 2.59-14.89.58-3.29 15.81-98.83 16.33-104.55 1.87-20.58 2.72-42.88 2.07-69.2-.15-6.16-6.98-9.79-12.16-6.46l-128.11 82.27c-1.09.7-2.34 1.12-3.64 1.22a491.15 491.15 0 0 0-62.94 9.09c-4.64.98-7.37 5.82-5.82 10.31 6.87 19.88 21.31 63.63 22.37 66.94 2.26 7.05 18.77 57.94 24.13 75.79 2.47 8.24 4.88 16.46 7.23 24.64l.42 1.48h122.98c1.64-8.02 3.22-15.86 4.73-23.46 3.49-17.55 6.79-35.33 9.81-53.18z" fill="#6ebcb4"/><path d="M218.27 30.22c-.11-2.76-.27-6.66-.33-9.42 0-.14-.08-.27-.21-.34-2.59-1.4-4.87-2.22-7.76-3.41a.556.556 0 0 0-.42.01c-2.89 1.26-5.14 1.91-7.73 3.31a.37.37 0 0 0-.21.32c-.05 2.6-.24 6.96-.35 9.56 0 .13.07.26.2.32 2.76 1.29 5.2 2.15 8.08 3.39.14.06.31.08.44.01 2.93-1.35 5.28-2.12 8.09-3.42.13-.06.2-.2.2-.34z" fill="#86a965"/><path d="M207.94 74.02c0-.85.05-1.65.16-2.4.1-.75.27-1.51.49-2.28.22-.77.53-1.58.92-2.44.39-.86.87-1.8 1.43-2.82l3.41-5.95h-10.29v-.91h11.42v.7l-4.2 7.44c-.53.94-.97 1.88-1.32 2.8-.35.92-.62 1.85-.79 2.8-.18.94-.27 1.97-.29 3.07h-.94z" fill="#21211f"/></svg>