<svg viewBox="0 0 297.64 419.53" xmlns="http://www.w3.org/2000/svg"><path d="m12.31 419.53h271.16c7.83 0 14.17-6.35 14.17-14.17v-393.05c-0-6.8-5.51-12.31-12.31-12.31h-273.02c-6.8 0-12.31 5.51-12.31 12.31v394.91c0 6.8 5.51 12.31 12.31 12.31z" fill="#77b3dc"/><path d="m202.33 184.55c1.58-8.61 3.13-17.3 4.62-26.05.66-3.87-1.95-7.55-5.81-8.2-23.08-3.9-46.31-5.06-69.26-3.59-1.29.08-2.58-.18-3.73-.78l-38.15-19.87c-5.71-2.97-12.1 2.57-9.99 8.65 2.13 6.15 4.22 12.3 6.27 18.43 13.04 38.99 23.77 85.78 32.72 131.31.73 3.72 4.25 6.24 8 5.67 15.94-2.42 32.3-2.45 48.55.09 3.76.59 7.31-1.94 8.03-5.68 6.72-34.99 13.25-70.02 18.76-99.97z" fill="#f2edee"/><path d="m157.32 30.22c-.11-2.76-.27-6.66-.33-9.42 0-.14-.08-.27-.21-.34-2.59-1.4-4.87-2.22-7.76-3.41-.13-.05-.28-.05-.42.01-2.89 1.26-5.14 1.91-7.73 3.31-.13.07-.21.19-.21.32-.05 2.6-.24 6.96-.35 9.56 0 .13.07.26.2.32 2.76 1.29 5.2 2.15 8.08 3.39.14.06.31.08.44.01 2.93-1.35 5.28-2.12 8.09-3.42.13-.06.2-.2.2-.34z" fill="#86a965"/><path d="m150.2 65.23c.83-.4 1.49-.8 1.98-1.2s.84-.84 1.06-1.32.32-1 .32-1.56c0-1.14-.39-1.98-1.18-2.54-.78-.56-1.94-.84-3.48-.84-1.02 0-1.89.12-2.6.37s-1.26.62-1.64 1.1c-.38.49-.58 1.08-.58 1.76 0 .62.13 1.14.38 1.55s.6.74 1.02 1.01c.42.26.92.49 1.48.67s1.14.34 1.75.48 1.21.28 1.81.44 1.18.35 1.74.58c.56.22 1.05.5 1.48.84s.76.76 1.01 1.27.37 1.14.37 1.87c0 .99-.25 1.82-.74 2.5s-1.22 1.18-2.16 1.52-2.11.52-3.5.52c-2.02 0-3.56-.4-4.63-1.21s-1.61-1.93-1.61-3.37c0-.75.13-1.43.4-2.03.26-.6.68-1.15 1.25-1.66.57-.5 1.3-.94 2.2-1.31l.77.36c-1.25.48-2.17 1.09-2.76 1.84-.59.74-.89 1.64-.89 2.68 0 1.23.46 2.19 1.38 2.88s2.24 1.03 3.97 1.03 3.06-.31 3.98-.94 1.39-1.54 1.39-2.74c0-.66-.12-1.21-.37-1.67s-.58-.84-1.01-1.14c-.42-.3-.91-.55-1.46-.74s-1.13-.36-1.74-.5-1.21-.29-1.81-.43-1.18-.32-1.74-.53-1.05-.47-1.46-.78c-.42-.31-.75-.7-1.01-1.18-.26-.47-.38-1.06-.38-1.76 0-1.31.5-2.32 1.51-3.02s2.42-1.06 4.22-1.06 3.2.34 4.14 1.02 1.4 1.7 1.4 3.06c0 .62-.12 1.2-.36 1.74s-.61 1.03-1.12 1.48c-.5.45-1.17.86-2 1.25l-.77-.29z" fill="#21211f"/></svg>