<svg viewBox="0 0 297.64 419.53" xmlns="http://www.w3.org/2000/svg"><path d="M12.31 419.53h271.16c7.83 0 14.17-6.35 14.17-14.17V12.31c0-6.8-5.51-12.31-12.31-12.31H12.31C5.51 0 0 5.51 0 12.31v394.91c0 6.8 5.51 12.31 12.31 12.31z" fill="#7fc395"/><path d="M65.64 159.66c-1.59-4.42.96-9.28 5.52-10.44 19.54-4.98 39.8-8.3 60.63-9.75 32.41-2.27 64.07.09 94.34 6.5 4.31.91 7.06 5.15 6.16 9.46-5.73 27.46-24.04 113.5-29.98 140.95-.93 4.29-5.14 7.05-9.43 6.14-16.02-3.39-32.78-4.64-49.93-3.44-8.63.6-17.07 1.81-25.29 3.57-4.07.87-8.11-1.59-9.28-5.58-6.92-23.66-27.85-93.91-31.09-103.66-3.78-11.38-7.66-22.65-11.66-33.73z" fill="#f2edee"/><path d="M157.32 30.22c-.11-2.76-.27-6.66-.33-9.42 0-.14-.08-.27-.21-.34-2.59-1.4-4.87-2.22-7.76-3.41a.556.556 0 0 0-.42.01c-2.89 1.26-5.14 1.91-7.73 3.31a.37.37 0 0 0-.21.32c-.05 2.6-.24 6.96-.35 9.56 0 .13.07.26.2.32 2.76 1.29 5.2 2.15 8.08 3.39.14.06.31.08.44.01 2.93-1.35 5.28-2.12 8.09-3.42.13-.06.2-.2.2-.34z" fill="#86a965"/></svg>