<svg xmlns="http://www.w3.org/2000/svg" viewBox="0 0 419.53 297.64"><path d="M419.53 285.33V14.17c0-7.83-6.35-14.17-14.17-14.17H12.31C5.51 0 0 5.51 0 12.31v273.02c0 6.8 5.51 12.31 12.31 12.31h394.91c6.8 0 12.31-5.51 12.31-12.31z" fill="#dfd6d4"/><path d="M298.03 196.46c.55-3 8.69-49.74 11.87-70.58.64-4.2-2.15-8.14-6.32-8.95a490.003 490.003 0 0 0-83.57-8.95c-1.3-.03-2.57-.37-3.7-1.01L68.1 23.43c-6.86-3.87-14.54 3.6-10.86 10.56 13.65 25.9 34.29 66.15 41.93 86.28l.13.07s-.06.02-.09.02c8.11 21.38 35.35 106.59 36.89 111.38 4.26 13.27 8.36 26.54 12.29 39.75 2.51 8.41 4.91 17.15 7.21 26.13h123.3c1.65-7.75 3.27-15.54 4.85-23.39 2.99-14.92 12.83-69.84 14.28-77.79z" fill="#9cc07f"/><path d="M218.27 30.22c-.11-2.76-.27-6.66-.33-9.42 0-.14-.08-.27-.21-.34-2.59-1.4-4.87-2.22-7.76-3.41a.556.556 0 0 0-.42.01c-2.89 1.26-5.14 1.91-7.73 3.31a.37.37 0 0 0-.21.32c-.05 2.6-.24 6.96-.35 9.56 0 .13.07.26.2.32 2.76 1.29 5.2 2.15 8.08 3.39.14.06.31.08.44.01 2.93-1.35 5.28-2.12 8.09-3.42.13-.06.2-.2.2-.34z" fill="#86a965"/></svg>