<svg viewBox="0 0 297.64 419.53" xmlns="http://www.w3.org/2000/svg"><path d="m12.31 419.53h271.16c7.83 0 14.17-6.35 14.17-14.17v-393.05c0-6.8-5.51-12.31-12.31-12.31h-273.02c-6.8 0-12.31 5.51-12.31 12.31v394.91c0 6.8 5.51 12.31 12.31 12.31z" fill="#dfd6d4"/><path d="m75.15 55.95c4.26 13.27 8.36 26.54 12.29 39.75 27.21 91.31 42 220.01 52.73 294.65 1.22 8.51 13.25 9.21 15.45.9 17.38-65.74 42.22-177.17 59.53-256.38 2.62-12 5.18-24.16 7.64-36.42 2.99-14.92 12.83-69.84 14.28-77.79.22-1.22 1.7-9.66 3.59-20.66h-183.61c8.83 26.97 17.26 53.35 18.1 55.95z" fill="#c780ab"/><path d="m156.29 29.66c-.1-2.76-.17-5.52-.21-8.29 0-.14-.07-.27-.19-.34-2.27-1.4-4.61-2.75-6.89-3.98-.11-.06-.25-.06-.37.01-2.28 1.39-4.61 2.82-6.89 4.22-.11.07-.18.19-.19.32-.05 2.6-.12 5.2-.21 7.8 0 .13.06.25.18.32 2.27 1.4 4.68 2.84 7.1 4.23.12.07.27.07.39.01 2.42-1.23 4.83-2.58 7.1-3.98.11-.07.18-.2.18-.34z" fill="#897f7f" opacity=".5"/></svg>