<svg viewBox="0 0 297.64 419.53" xmlns="http://www.w3.org/2000/svg"><path d="m12.31 419.53h271.16c7.83 0 14.17-6.35 14.17-14.17v-393.05c-0-6.8-5.51-12.31-12.31-12.31h-273.02c-6.8 0-12.31 5.51-12.31 12.31v394.91c0 6.8 5.51 12.31 12.31 12.31z" fill="#dfd6d4"/><path d="m43.26 23.81c2.6 6.93 23.51 62.4 27.79 74.5 4.98 14.07 9.77 28.07 14.36 41.91 26.29 79.25 42.1 184.87 53.53 248.8 1.81 10.12 15.94 11.08 19.11 1.3 20.57-63.53 50.58-170.77 73.46-253.92 3.11-11.3 6.16-22.74 9.14-34.29 3.85-14.94 16.58-69.02 18.46-76.88.33-1.38 2.81-12.09 5.8-25.23h-230.76c4.73 12.29 8.52 22.25 9.11 23.81z" fill="#ba9f40"/><path d="m156.24 29.66c-.1-2.76-.17-5.52-.21-8.29 0-.14-.07-.27-.19-.34-2.26-1.4-4.58-2.75-6.85-3.98-.11-.06-.25-.06-.37.01-2.26 1.39-4.59 2.82-6.84 4.22-.11.07-.18.19-.19.32-.05 2.6-.12 5.2-.21 7.8 0 .13.06.25.17.32 2.26 1.4 4.65 2.84 7.05 4.23.12.07.27.07.39.01 2.4-1.23 4.8-2.58 7.06-3.98.11-.07.18-.2.17-.34z" fill="#897f7f"/></svg>