<svg xmlns="http://www.w3.org/2000/svg" viewBox="0 0 297.64 419.53"><path d="M12.31 419.53h271.16c7.83 0 14.17-6.35 14.17-14.17V12.31c0-6.8-5.51-12.31-12.31-12.31H12.31C5.51 0 0 5.51 0 12.31v394.91c0 6.8 5.51 12.31 12.31 12.31z" fill="#7fc395"/><path d="M186.42 290.15c3.74.75 7.4-1.61 8.28-5.33 8.15-34.39 16.23-69.37 23.37-100.61 1.84-8.03 3.64-16.14 5.4-24.31a7.11 7.11 0 0 0-5.46-8.45c-27.04-5.78-55.33-7.91-84.3-5.89a304.002 304.002 0 0 0-53.62 8.6c-4.15 1.06-6.4 5.55-4.81 9.53 3.97 9.95 7.83 19.86 11.57 29.68 10.66 27.99 19.99 59.81 28.16 91.57a7.09 7.09 0 0 0 8.24 5.19 159.98 159.98 0 0 1 20.37-2.74c14.68-1.03 29.03-.03 42.78 2.74z" fill="#f2edee"/><path d="M157.32 30.22c-.11-2.76-.27-6.66-.33-9.42 0-.14-.08-.27-.21-.34-2.59-1.4-4.87-2.22-7.76-3.41a.556.556 0 0 0-.42.01c-2.89 1.26-5.14 1.91-7.73 3.31a.37.37 0 0 0-.21.32c-.05 2.6-.24 6.96-.35 9.56 0 .13.07.26.2.32 2.76 1.29 5.2 2.15 8.08 3.39.14.06.31.08.44.01 2.93-1.35 5.28-2.12 8.09-3.42.13-.06.2-.2.2-.34z" fill="#86a965"/></svg>