<svg viewBox="0 0 297.64 419.53" xmlns="http://www.w3.org/2000/svg"><path d="M12.31 419.53h271.16c7.83 0 14.17-6.35 14.17-14.17V12.31c0-6.8-5.51-12.31-12.31-12.31H12.31C5.51 0 0 5.51 0 12.31v394.91c0 6.8 5.51 12.31 12.31 12.31z" fill="#babb77"/><path d="M114.19 296.72c-6.62-26.92-28.49-112.39-35.74-139.7-1.18-4.43 1.6-8.96 6.1-9.88 14.68-2.99 29.47-5 44.28-6.03a8.02 8.02 0 0 0 4.05-1.43l73.97-52.02c5.75-4.04 13.54.75 12.52 7.7-6.75 45.91-24.24 164.06-30.02 200.43-.69 4.33-4.74 7.33-9.08 6.66a180.445 180.445 0 0 0-57.09.27c-4.09.68-8-1.96-8.99-5.99z" fill="#f2edee"/><path d="M157.32 30.22c-.11-2.76-.27-6.66-.33-9.42 0-.14-.08-.27-.21-.34-2.59-1.4-4.87-2.22-7.76-3.41a.556.556 0 0 0-.42.01c-2.89 1.26-5.14 1.91-7.73 3.31a.37.37 0 0 0-.21.32c-.05 2.6-.24 6.96-.35 9.56 0 .13.07.26.2.32 2.76 1.29 5.2 2.15 8.08 3.39.14.06.31.08.44.01 2.93-1.35 5.28-2.12 8.09-3.42.13-.06.2-.2.2-.34z" fill="#86a965"/></svg>