<svg viewBox="0 0 297.64 419.53" xmlns="http://www.w3.org/2000/svg"><path d="m12.31 419.53h271.16c7.83 0 14.17-6.35 14.17-14.17v-393.05c-0-6.8-5.51-12.31-12.31-12.31h-273.02c-6.8 0-12.31 5.51-12.31 12.31v394.91c0 6.8 5.51 12.31 12.31 12.31z" fill="#dfd6d4"/><path d="m63.69 19.98c2.26 7.05 18.77 57.94 24.13 75.78 2.47 8.24 4.88 16.46 7.23 24.64 23.7 82.56 36.49 200.35 46.18 269.98 1.19 8.53 13.22 9.28 15.45.96 19.53-72.9 48.05-200.09 66.5-292.92 3.49-17.55 11.54-63.22 12.4-68.07.21-1.17 2.27-14.03 4.86-30.36h-183.34c3.48 10.5 6.16 18.63 6.59 19.98z" fill="#db8665"/><path d="m156.24 29.66c-.1-2.76-.17-5.52-.21-8.29 0-.14-.07-.27-.19-.34-2.26-1.4-4.58-2.75-6.85-3.98-.11-.06-.25-.06-.37.01-2.26 1.39-4.59 2.82-6.84 4.22-.11.07-.18.19-.19.32-.05 2.6-.12 5.2-.21 7.8 0 .13.06.25.17.32 2.26 1.4 4.65 2.84 7.05 4.23.12.07.27.07.39.01 2.4-1.23 4.8-2.58 7.06-3.98.11-.07.18-.2.17-.34z" fill="#897f7f"/></svg>