<svg viewBox="0 0 419.53 297.64" xmlns="http://www.w3.org/2000/svg"><path d="m419.53 285.33v-271.16c0-7.83-6.35-14.17-14.17-14.17h-393.05c-6.8 0-12.31 5.51-12.31 12.31v273.02c0 6.8 5.51 12.31 12.31 12.31h394.91c6.8 0 12.31-5.51 12.31-12.31z" fill="#dfd6d4"/><path d="m320.05 200.98c.71-2.97 11.35-49.09 15.67-69.84.86-4.15-1.71-8.24-5.82-9.27-42.58-10.69-87.31-15.83-133.35-14.63-38.86 1.02-76.55 6.51-112.59 15.96-4.61 1.21-7.1 6.2-5.31 10.62 8.49 20.87 24.3 62.4 25.55 65.75 2.6 6.93 23.51 62.4 27.79 74.5 2.79 7.89 5.5 15.74 8.17 23.57h156.2c1.76-6.56 3.51-13.14 5.22-19.78 3.85-14.94 16.58-69.02 18.46-76.88z" fill="#cfb35f"/><path d="m218.27 30.22c-.11-2.76-.27-6.66-.33-9.42 0-.14-.08-.27-.21-.34-2.59-1.4-4.87-2.22-7.76-3.41-.13-.05-.28-.05-.42.01-2.89 1.26-5.14 1.91-7.73 3.31-.13.07-.21.19-.21.32-.05 2.6-.24 6.96-.35 9.56 0 .13.07.26.2.32 2.76 1.29 5.2 2.15 8.08 3.39.14.06.31.08.44.01 2.93-1.35 5.28-2.12 8.09-3.42.13-.06.2-.2.2-.34z" fill="#86a965"/><path d="m203.56 72.75.38-.7c.51.32 1.02.58 1.51.78.5.2 1.03.35 1.61.44.58.1 1.21.14 1.9.14 1.15 0 2.13-.17 2.94-.52.81-.34 1.43-.83 1.86-1.48.43-.64.65-1.42.65-2.33 0-1.18-.4-2.06-1.2-2.63s-2.01-.85-3.62-.85h-2.83v-.79h3.09c.8 0 1.47-.14 2.02-.43s.96-.69 1.25-1.2.43-1.12.43-1.82c0-1.1-.36-1.97-1.08-2.59s-1.84-.94-3.36-.94c-.75 0-1.5.07-2.24.22-.74.14-1.46.34-2.15.6l-.31-.74c.45-.19.94-.36 1.46-.5.53-.14 1.07-.25 1.63-.32s1.13-.11 1.7-.11c1.18 0 2.16.17 2.94.52.78.34 1.36.84 1.75 1.48s.59 1.41.59 2.3c0 .98-.24 1.8-.72 2.48s-1.16 1.14-2.04 1.38c1.18.13 2.09.55 2.71 1.27s.94 1.62.94 2.71-.26 1.99-.77 2.76-1.24 1.36-2.18 1.76c-.94.41-2.08.61-3.41.61-.77 0-1.46-.06-2.09-.17-.62-.11-1.21-.28-1.75-.5s-1.08-.5-1.61-.84z" fill="#21211f"/></svg>