<svg viewBox="0 0 419.53 297.64" xmlns="http://www.w3.org/2000/svg"><path d="m419.53 285.33v-271.16c0-7.83-6.35-14.17-14.17-14.17h-393.05c-6.8 0-12.31 5.51-12.31 12.31v273.02c0 6.8 5.51 12.31 12.31 12.31h394.91c6.8 0 12.31-5.51 12.31-12.31z" fill="#4a4645"/><path d="m345.11 250.04c-6.62-16.29-17.7-45.15-22.85-58.64l-220.76 1.05c-3.52 15.29-10.24 44.81-13.46 60.27-.86 4.15 1.71 8.24 5.82 9.27 12.02 3.02 24.21 5.57 36.55 7.69l173.47-1.04c12.14-2.23 24.12-4.89 35.92-7.98 4.61-1.21 7.1-6.2 5.31-10.62z" fill="#cfb35f"/><path d="m329.9 121.87c-42.58-10.69-87.31-15.83-133.35-14.63-38.86 1.02-76.55 6.51-112.59 15.96-4.61 1.21-7.1 6.2-5.31 10.62 6.62 16.29 17.7 45.15 22.85 58.64 1.45 3.8 2.43 6.38 2.7 7.11 2.36 6.29 19.8 52.58 26.21 70.11.65 1.78 1.19 3.27 1.58 4.39 2.79 7.89 5.5 15.74 8.17 23.57h156.2c1.76-6.56 3.51-13.14 5.22-19.78.58-2.27 1.37-5.44 2.3-9.22 5.17-21.09 14.57-61 16.16-67.66.18-.76 1.01-4.33 2.22-9.57 3.52-15.29 10.24-44.81 13.46-60.27.86-4.15-1.71-8.24-5.82-9.27z" fill="#ba9f40"/><path d="m209.79 17.14c3.85 7.14 3.05 6.3 8.44 16.45.1.19-.02.44-.21.43l-8.24-.39s-.01 0-.02 0l-8.25.21c-.19 0-.31-.23-.21-.43 4.21-8.25 3.45-6.79 8.07-16.24.1-.2.32-.22.43-.02z" fill="#ba9f40"/><path d="m203.56 72.75.38-.7c.51.32 1.02.58 1.51.78.5.2 1.03.35 1.61.44.58.1 1.21.14 1.9.14 1.15 0 2.13-.17 2.94-.52.81-.34 1.43-.84 1.86-1.48s.65-1.42.65-2.33c0-1.18-.4-2.06-1.2-2.63s-2.01-.85-3.62-.85h-2.83v-.79h3.09c.8 0 1.47-.14 2.02-.43s.96-.69 1.25-1.2.43-1.12.43-1.82c0-1.1-.36-1.97-1.08-2.59s-1.84-.94-3.36-.94c-.75 0-1.5.07-2.24.22-.74.14-1.46.34-2.15.6l-.31-.74c.45-.19.94-.36 1.46-.5.53-.14 1.07-.25 1.63-.32s1.13-.11 1.7-.11c1.18 0 2.16.17 2.94.52.78.34 1.36.84 1.75 1.48s.59 1.41.59 2.3c0 .98-.24 1.8-.72 2.48s-1.16 1.14-2.04 1.38c1.18.13 2.09.55 2.71 1.27s.94 1.62.94 2.71-.26 1.99-.77 2.76-1.24 1.36-2.18 1.76c-.94.41-2.08.61-3.41.61-.77 0-1.46-.06-2.09-.17-.62-.11-1.21-.28-1.75-.5s-1.08-.5-1.61-.84z" fill="#fff"/></svg>