<svg xmlns="http://www.w3.org/2000/svg" viewBox="0 0 297.64 419.53"><path d="M12.31 419.53h271.16c7.83 0 14.17-6.35 14.17-14.17V12.31c0-6.8-5.51-12.31-12.31-12.31H12.31C5.51 0 0 5.51 0 12.31v394.91c0 6.8 5.51 12.31 12.31 12.31z" fill="#f2edee"/><path d="M140.03 329.98h-17.01c-.21 30.25-1.99 60.11-5.22 89.55h17.01c3.23-29.43 5.02-59.3 5.22-89.55zm40.76-42.64h-17.01a876.25 876.25 0 0 0-6.18 98.05h17.01c.23-33.16 2.33-65.88 6.18-98.05z" fill="#a09392"/><g><path d="M148.85 17.14c3.85 7.14 3.05 6.3 8.44 16.45.1.19-.02.44-.21.43l-8.24-.39h-.02l-8.25.21c-.19 0-.31-.23-.21-.43 4.21-8.25 3.45-6.79 8.07-16.24.1-.2.32-.22.43-.02z" fill="#ba9f40"/></g></svg>