<svg viewBox="0 0 419.53 297.64" xmlns="http://www.w3.org/2000/svg"><path d="m419.53 285.33v-271.16c0-7.83-6.35-14.17-14.17-14.17h-393.05c-6.8 0-12.31 5.51-12.31 12.31v273.02c0 6.8 5.51 12.31 12.31 12.31h394.91c6.8 0 12.31-5.51 12.31-12.31z" fill="#4a4645"/><path d="m86.92 200.59c3.02 8.21 27.3 73.92 32.27 88.25 1.02 2.94 2.15 5.87 3.33 8.8h192.49c.37-1.44.74-2.86 1.1-4.3 4.47-17.7 19.26-81.76 21.44-91.07.83-3.52 13.19-58.15 18.2-82.73 1-4.92-1.98-9.76-6.76-10.98-49.45-12.66-101.39-18.76-154.84-17.33-45.12 1.21-88.89 7.71-130.74 18.9-5.35 1.43-8.25 7.35-6.16 12.58 9.86 24.72 28.22 73.92 29.67 77.88z" fill="#91aad9"/><path d="m131.99 274.07c2.79 7.89 5.5 15.74 8.17 23.57h156.2c1.76-6.56 3.51-13.14 5.22-19.78 3.85-14.94 16.58-69.02 18.46-76.88.71-2.97 11.35-49.09 15.67-69.84.86-4.15-1.71-8.24-5.82-9.27-42.58-10.69-87.31-15.83-133.35-14.63-38.86 1.02-76.55 6.51-112.59 15.96-4.61 1.21-7.1 6.2-5.31 10.62 8.49 20.87 24.3 62.4 25.55 65.75 2.6 6.93 23.51 62.4 27.79 74.5z" fill="#7993cb"/><path d="m209.79 17.14c3.85 7.14 3.05 6.3 8.44 16.45.1.19-.02.44-.21.43l-8.24-.39s-.01 0-.02 0l-8.25.21c-.19 0-.31-.23-.21-.43 4.21-8.25 3.45-6.79 8.07-16.24.1-.2.32-.22.43-.02z" fill="#ba9f40"/><path d="m208.73 74.26c-.56 0-1.11-.04-1.64-.11-.54-.07-1.06-.18-1.58-.31-.52-.14-1.04-.3-1.55-.49l.34-.7c.48.13.96.26 1.44.4s.96.24 1.45.3 1 .1 1.52.1c1.31 0 2.4-.3 3.28-.9s1.52-1.5 1.94-2.71.64-2.72.64-4.55c0-1.34-.11-2.49-.32-3.43-.22-.94-.54-1.72-.97-2.32s-.97-1.04-1.61-1.33-1.4-.43-2.28-.43c-1.01 0-1.89.18-2.65.53s-1.36.86-1.79 1.52-.65 1.48-.65 2.44c0 .9.19 1.66.58 2.29.38.63.92 1.11 1.6 1.44s1.46.49 2.34.49c.8 0 1.58-.12 2.34-.36s1.46-.57 2.09-.98c.63-.42 1.13-.93 1.5-1.54l-.02 1.08c-.38.48-.9.92-1.54 1.32s-1.36.71-2.15.92c-.79.22-1.6.32-2.41.32-1.09 0-2.02-.19-2.79-.58-.78-.38-1.38-.94-1.8-1.68s-.64-1.62-.64-2.66c0-1.14.25-2.1.74-2.9.5-.8 1.19-1.41 2.09-1.82.9-.42 1.97-.62 3.21-.62 1.36 0 2.49.28 3.38.85.9.57 1.57 1.46 2.01 2.66.45 1.21.67 2.8.67 4.79s-.25 3.78-.74 5.11c-.5 1.33-1.24 2.3-2.24 2.93-1 .62-2.26.94-3.78.94z" fill="#fff"/></svg>