<svg xmlns="http://www.w3.org/2000/svg" viewBox="0 0 297.64 419.53"><path d="M12.31 419.53h271.16c7.83 0 14.17-6.35 14.17-14.17V12.31c0-6.8-5.51-12.31-12.31-12.31H12.31C5.51 0 0 5.51 0 12.31v394.91c0 6.8 5.51 12.31 12.31 12.31z" fill="#f2edee"/><path d="M252.73 296.08l-14.96-8.09c-13.19 40.63-29.54 80.75-49.15 120.04h18.94c17.85-36.71 32.89-74.11 45.17-111.95zm-192.86-8.09l-14.96 8.09c12.28 37.84 27.32 75.25 45.17 111.95h18.94c-19.61-39.29-35.96-79.41-49.15-120.04z" fill="#a09392"/><g><path d="M148.85 17.14c3.85 7.14 3.05 6.3 8.44 16.45.1.19-.02.44-.21.43l-8.24-.39h-.02l-8.25.21c-.19 0-.31-.23-.21-.43 4.21-8.25 3.45-6.79 8.07-16.24.1-.2.32-.22.43-.02z" fill="#ba9f40"/></g></svg>