<svg xmlns="http://www.w3.org/2000/svg" viewBox="0 0 419.53 297.64"><path d="M419.53 285.33V14.17c0-7.83-6.35-14.17-14.17-14.17H12.31C5.51 0 0 5.51 0 12.31v273.02c0 6.8 5.51 12.31 12.31 12.31h394.91c6.8 0 12.31-5.51 12.31-12.31z" fill="#4a4645"/><path d="M86.92 200.59c3.02 8.21 27.3 73.92 32.27 88.25 1.02 2.94 2.15 5.87 3.33 8.8h192.49c.37-1.44.74-2.86 1.1-4.3 4.47-17.7 19.26-81.76 21.44-91.07.83-3.52 13.19-58.15 18.2-82.73 1-4.92-1.98-9.76-6.76-10.98C299.54 95.9 247.6 89.8 194.15 91.23c-45.12 1.21-88.89 7.71-130.74 18.9-5.35 1.43-8.25 7.35-6.16 12.58 9.86 24.72 28.22 73.92 29.67 77.88z" fill="#91aad9"/><path d="M131.99 274.07c2.79 7.89 5.5 15.74 8.17 23.57h156.2c1.76-6.56 3.51-13.14 5.22-19.78 3.85-14.94 16.58-69.02 18.46-76.88.71-2.97 11.35-49.09 15.67-69.84a7.906 7.906 0 0 0-5.82-9.27c-42.58-10.69-87.31-15.83-133.35-14.63-38.86 1.02-76.55 6.51-112.59 15.96-4.61 1.21-7.1 6.2-5.31 10.62 8.49 20.87 24.3 62.4 25.55 65.75 2.6 6.93 23.51 62.4 27.79 74.5z" fill="#7993cb"/><g><path d="M209.79 17.14c3.85 7.14 3.05 6.3 8.44 16.45.1.19-.02.44-.21.43l-8.24-.39h-.02l-8.25.21c-.19 0-.31-.23-.21-.43 4.21-8.25 3.45-6.79 8.07-16.24.1-.2.32-.22.43-.02z" fill="#ba9f40"/></g></svg>