<svg viewBox="0 0 419.53 297.64" xmlns="http://www.w3.org/2000/svg"><path d="m419.53 285.33v-271.16c0-7.83-6.35-14.17-14.17-14.17h-393.05c-6.8 0-12.31 5.51-12.31 12.31v273.02c0 6.8 5.51 12.31 12.31 12.31h394.91c6.8 0 12.31-5.51 12.31-12.31z" fill="#4a4645"/><path d="m365.81 23.43-148.22 83.54c-.21.12-.42.21-.64.31-.96.43-2 .68-3.06.7-27.86.58-55.82 3.54-83.57 8.95-4.17.81-6.96 4.75-6.32 8.95 3.18 20.84 11.32 67.58 11.87 70.58 1.45 7.95 11.29 62.87 14.28 77.79.85 4.23 1.72 8.43 2.59 12.63.96 3.54 1.91 7.14 2.84 10.76h122.73c.93-3.62 1.88-7.22 2.84-10.76 1.42-5.22 2.87-10.36 4.36-15.37 3.94-13.21 8.04-26.48 12.29-39.75 1.54-4.79 28.78-90.01 36.89-111.38-.03 0-.06-.02-.09-.02l.13-.07c7.64-20.13 28.28-60.39 41.93-86.28 3.67-6.97-4-14.43-10.86-10.56z" fill="#9cc07f"/><path d="m303.58 116.93c-27.75-5.41-55.71-8.37-83.57-8.95-1.06-.02-2.1-.27-3.06-.7-.22-.1-.43-.19-.64-.31l-148.21-83.54c-6.86-3.87-14.54 3.6-10.86 10.56 13.65 25.9 34.29 66.15 41.93 86.28l.13.07s-.06.02-.09.02c8.11 21.38 35.35 106.59 36.89 111.38 4.26 13.27 8.36 26.54 12.29 39.75 1.49 5.01 2.94 10.15 4.36 15.37.96 3.54 1.91 7.14 2.84 10.76h122.73c.93-3.62 1.88-7.22 2.84-10.76.87-4.2 1.74-8.4 2.59-12.63 2.99-14.92 12.83-69.84 14.28-77.79.55-3 8.69-49.74 11.87-70.58.64-4.2-2.15-8.14-6.32-8.95z" fill="#86a965"/><path d="m209.79 17.14c3.85 7.14 3.05 6.3 8.44 16.45.1.19-.02.44-.21.43l-8.24-.39s-.01 0-.02 0l-8.25.21c-.19 0-.31-.23-.21-.43 4.21-8.25 3.45-6.79 8.07-16.24.1-.2.32-.22.43-.02z" fill="#ba9f40"/><path d="m203.83 72.7.43-.7c.42.27.84.51 1.28.72s.95.37 1.52.49c.58.12 1.26.18 2.04.18 1.25 0 2.26-.17 3.05-.5.78-.34 1.36-.82 1.74-1.46s.56-1.42.56-2.35c0-.64-.08-1.2-.23-1.67s-.4-.86-.73-1.18-.76-.55-1.28-.71-1.13-.24-1.83-.24h-5.4l-.26-.26.82-7.8h8.97v.86h-8.21l-.67 6.41 5.11-.02c1.07 0 1.95.17 2.64.5.69.34 1.2.84 1.52 1.52s.49 1.53.49 2.56c0 1.1-.23 2.05-.7 2.83-.46.78-1.16 1.38-2.08 1.78s-2.08.6-3.47.6c-.82 0-1.54-.06-2.17-.18s-1.2-.3-1.69-.53-.98-.52-1.46-.85z" fill="#fff"/></svg>