<svg xmlns="http://www.w3.org/2000/svg" viewBox="0 0 297.64 419.53"><path d="M12.31 419.53h271.16c7.83 0 14.17-6.35 14.17-14.17V12.31c0-6.8-5.51-12.31-12.31-12.31H12.31C5.51 0 0 5.51 0 12.31v394.91c0 6.8 5.51 12.31 12.31 12.31z" fill="#f2edee"/><path d="M146.77 344.37l2.05-17.48C99.97 329.95 50.25 329.85 0 325.3v17.1c49.55 4.43 98.59 5 146.77 1.97zm2.46-34.49l-.41 17c48.82-7.29 98.02-10.99 148.82-10.81v-17.01c-50.74-.16-99.71 3.54-148.41 10.81z" fill="#a09392"/><g><path d="M148.85 17.14c3.85 7.14 3.05 6.3 8.44 16.45.1.19-.02.44-.21.43l-8.24-.39h-.02l-8.25.21c-.19 0-.31-.23-.21-.43 4.21-8.25 3.45-6.79 8.07-16.24.1-.2.32-.22.43-.02z" fill="#ba9f40"/></g></svg>