<svg xmlns="http://www.w3.org/2000/svg" viewBox="0 0 297.64 419.53"><path d="M12.31 419.53h271.16c7.83 0 14.17-6.35 14.17-14.17V12.31c0-6.8-5.51-12.31-12.31-12.31H12.31C5.51 0 0 5.51 0 12.31v394.91c0 6.8 5.51 12.31 12.31 12.31z" fill="#f2edee"/><path d="M149.31 298.84c50.57 0 100.13 4.35 148.33 12.66v-17.01c-48.2-8.31-97.76-12.66-148.33-12.66S48.51 286.24 0 294.67v17.01c48.51-8.42 98.39-12.83 149.31-12.83zM0 332.01v17.01c48.51 8.42 98.39 12.83 149.31 12.83s100.13-4.35 148.33-12.66v-17.01c-48.2 8.31-97.76 12.66-148.33 12.66S48.51 340.44 0 332.01z" fill="#a09392"/><g><path d="M148.85 17.14c3.85 7.14 3.05 6.3 8.44 16.45.1.19-.02.44-.21.43l-8.24-.39h-.02l-8.25.21c-.19 0-.31-.23-.21-.43 4.21-8.25 3.45-6.79 8.07-16.24.1-.2.32-.22.43-.02z" fill="#ba9f40"/></g></svg>