<svg xmlns="http://www.w3.org/2000/svg" viewBox="0 0 297.64 419.53"><path d="M12.31 419.53h271.16c7.83 0 14.17-6.35 14.17-14.17V12.31c0-6.8-5.51-12.31-12.31-12.31H12.31C5.51 0 0 5.51 0 12.31v394.91c0 6.8 5.51 12.31 12.31 12.31z" fill="#f2edee"/><path d="M250.94 300.84l-.1-17.01c-50.64 9.57-102.85 14.75-156.22 15.1L94 315.94c53.6-.3 106.08-5.49 156.94-15.1zm-38.35 32.46l.66-16.99c-51.02 7.28-103.41 10.11-156.74 8.06l-1.39 16.97c53.56 2.11 106.22-.72 157.46-8.03z" fill="#a09392"/><g><path d="M148.85 17.14c3.85 7.14 3.05 6.3 8.44 16.45.1.19-.02.44-.21.43l-8.24-.39h-.02l-8.25.21c-.19 0-.31-.23-.21-.43 4.21-8.25 3.45-6.79 8.07-16.24.1-.2.32-.22.43-.02z" fill="#ba9f40"/></g></svg>