<svg viewBox="0 0 297.64 841.89" xmlns="http://www.w3.org/2000/svg"><path d="m285.33 0h-273.02c-6.8 0-12.31 5.51-12.31 12.31v817.26c0 6.8 5.51 12.31 12.31 12.31h271.16c7.83 0 14.17-6.35 14.17-14.18v-815.39c-0-6.8-5.51-12.31-12.31-12.31z" fill="#f2edee"/><path d="m149.31 632.64c-50.92 0-100.8-4.41-149.31-12.83v209.77c0 6.8 5.51 12.31 12.31 12.31h271.16c7.83 0 14.17-6.35 14.17-14.18v-207.73c-48.2 8.31-97.76 12.66-148.33 12.66z" fill="#a09392"/><path d="m149.31 649.8c-50.92 0-100.8-4.4-149.31-12.82v192.6c0 6.8 5.51 12.31 12.31 12.31h271.16c7.83 0 14.17-6.35 14.17-14.18v-190.57c-48.2 8.31-97.76 12.66-148.33 12.66z" fill="#19201f"/><path d="m148.82 311.81c-60.18 0-109.13 48.96-109.13 109.13s48.96 109.13 109.13 109.13 109.13-48.96 109.13-109.13-48.96-109.13-109.13-109.13z" fill="#19201f"/><path d="m148.82 294.8c-69.55 0-126.14 56.59-126.14 126.14s56.59 126.14 126.14 126.14 126.14-56.59 126.14-126.14-56.59-126.14-126.14-126.14zm-109.13 126.14c0-60.18 48.96-109.13 109.13-109.13s109.13 48.96 109.13 109.13-48.96 109.13-109.13 109.13-109.13-48.96-109.13-109.13z" fill="#a09392"/><path d="m273.52 208.72-9.66-15.28c2.43 6.27-3.11 13.17-10.42 11.97-34.34-5.62-68.96-11.59-105.06-11.59-35.86 0-70.1 5.93-104.17 11.48-7.34 1.19-12.85-5.89-10.26-12.2l-9.74 15.45c-4.55 7.2 1.77 16.28 10.39 14.88 37.2-6.05 74.58-12.53 113.72-12.53 39.41 0 77.21 6.52 114.7 12.66 8.67 1.42 15.07-7.6 10.49-14.84z" fill="#a09392"/><path d="m263.86 193.44c-.21-.54-.47-1.09-.81-1.62l-106.99-169.14c-3.49-5.47-11.09-5.47-14.58 0l-106.79 168.99c-.3.47-.54.95-.74 1.43-2.6 6.3 2.92 13.39 10.26 12.2 34.07-5.55 68.31-11.48 104.17-11.48 36.1 0 70.72 5.97 105.06 11.59 7.31 1.2 12.84-5.7 10.42-11.97z" fill="#19201f"/><path d="m156.74 824.88c-2.63-.14-7.86-.82-7.86-.82s-5.35.52-8.02.66c-.2.01-.37-.18-.36-.38.34-5.5.03-10.62-.18-15.93 0-.2.15-.38.36-.38 2.73.05 8.04.62 8.04.62s5.42-.68 8.24-.79c.21 0 .37.17.36.38-.21 5.41-.22 10.83-.23 16.25 0 .21-.16.38-.36.38z" fill="#5d5959"/></svg>