<svg viewBox="0 0 419.53 297.64" xmlns="http://www.w3.org/2000/svg"><path d="m419.53 285.33v-271.16c0-7.83-6.35-14.17-14.17-14.17h-393.05c-6.8 0-12.31 5.51-12.31 12.31v273.02c0 6.8 5.51 12.31 12.31 12.31h394.91c6.8 0 12.31-5.51 12.31-12.31z" fill="#19201f"/><path d="m262.66 291.14-40.14-63.46-.02-.03c-2.84-4.45-7.61-7.1-12.77-7.1-5.15 0-9.92 2.65-12.78 7.13l-42.81 67.75-1.39 2.2h114.02l-4.11-6.5z" fill="#a09392"/><path d="m217.03 231.16c-3.49-5.47-11.09-5.47-14.58 0l-42.01 66.48h98.64z" fill="#cec3c1"/><path d="m217.91 17.01c-2.82.1-8.24.79-8.24.79s-5.32-.58-8.04-.62c-.21 0-.37.18-.36.38.21 5.3.51 10.43.18 15.93-.01.2.16.39.36.38 2.67-.14 8.02-.66 8.02-.66s5.23.68 7.86.82c.2 0 .36-.17.36-.38 0-5.42.01-10.84.23-16.25 0-.21-.15-.39-.36-.38z" fill="#db8665"/></svg>