<svg xmlns="http://www.w3.org/2000/svg" viewBox="0 0 297.64 841.89"><path d="M285.33 0H12.31C5.51 0 0 5.51 0 12.31v817.26c0 6.8 5.51 12.31 12.31 12.31h271.16c7.83 0 14.17-6.35 14.17-14.18V12.31c0-6.8-5.51-12.31-12.31-12.31z" fill="#f2edee"/><path d="M149.31 632.64c-50.92 0-100.8-4.41-149.31-12.83v209.77c0 6.8 5.51 12.31 12.31 12.31h271.16c7.83 0 14.17-6.35 14.17-14.18V619.98c-48.2 8.31-97.76 12.66-148.33 12.66z" fill="#a09392"/><path d="M149.31 649.8c-50.92 0-100.8-4.4-149.31-12.82v192.6c0 6.8 5.51 12.31 12.31 12.31h271.16c7.83 0 14.17-6.35 14.17-14.18V637.14c-48.2 8.31-97.76 12.66-148.33 12.66z" fill="#19201f"/><g><path d="M148.82 312.58c-62.88 0-114.04 51.16-114.04 114.04s51.16 114.04 114.04 114.04 114.04-51.16 114.04-114.04-51.16-114.04-114.04-114.04z" fill="#19201f"/><path d="M148.82 294.8c-72.68 0-131.81 59.13-131.81 131.81s59.13 131.81 131.81 131.81 131.81-59.13 131.81-131.81S221.5 294.8 148.82 294.8zM34.78 426.61c0-62.88 51.16-114.04 114.04-114.04s114.04 51.16 114.04 114.04-51.16 114.04-114.04 114.04S34.78 489.49 34.78 426.61zm244.26-210.97l-10.09-15.96c2.53 6.55-3.25 13.76-10.88 12.51-35.88-5.87-72.04-12.11-109.76-12.11-37.46 0-73.23 6.2-108.82 11.99-7.67 1.25-13.43-6.16-10.71-12.74l-10.17 16.14c-4.76 7.52 1.85 17.01 10.86 15.54 38.86-6.32 77.91-13.09 118.81-13.09 41.17 0 80.66 6.81 119.82 13.22 9.06 1.48 15.74-7.94 10.96-15.5z" fill="#a09392"/><path d="M268.95 199.69c-.22-.57-.5-1.13-.85-1.69L156.33 21.29c-3.65-5.71-11.58-5.71-15.23 0L29.54 197.84c-.31.49-.56.99-.77 1.49-2.71 6.58 3.05 13.99 10.71 12.74 35.59-5.79 71.36-11.99 108.82-11.99 37.71 0 73.88 6.24 109.76 12.11 7.63 1.25 13.42-5.96 10.88-12.51z" fill="#19201f"/></g><g><path d="M156.96 807.87c-2.82.1-8.24.79-8.24.79s-5.32-.58-8.04-.62c-.21 0-.37.18-.36.38.21 5.3.51 10.43.18 15.93-.01.2.16.39.36.38 2.67-.14 8.02-.66 8.02-.66s5.23.68 7.86.82c.2 0 .36-.17.36-.38 0-5.42.01-10.84.23-16.25 0-.21-.15-.39-.36-.38z" fill="#a58924"/></g></svg>