<?xml version="1.0" encoding="UTF-8"?><svg xmlns="http://www.w3.org/2000/svg" viewBox="0 0 419.53 297.64"><g id="Karte"><path d="M419.53,285.33V14.17c0-7.83-6.35-14.17-14.17-14.17H12.31C5.51,0,0,5.51,0,12.31v273.02c0,6.8,5.51,12.31,12.31,12.31h394.91c6.8,0,12.31-5.51,12.31-12.31Z" fill="#19201f"/></g><g id="Gestaltung"><path d="M262.66,291.14h0l-40.14-63.46-.02-.03c-2.84-4.45-7.61-7.1-12.77-7.1h0c-5.15,0-9.92,2.65-12.78,7.13l-42.81,67.75-1.39,2.2h114.02l-4.11-6.5Z" fill="#a09392"/><path d="M217.03,231.16c-3.49-5.47-11.09-5.47-14.58,0l-42.01,66.48h98.64l-42.05-66.48Z" fill="#cec3c1"/></g><g id="Symbole"><path id="regardio-system-pursuit-icon" d="M217.91,17.01c-2.82.1-8.24.79-8.24.79,0,0-5.32-.58-8.04-.62-.21,0-.37.18-.36.38.21,5.3.51,10.43.18,15.93-.01.2.16.39.36.38,2.67-.14,8.02-.66,8.02-.66,0,0,5.23.68,7.86.82.2,0,.36-.17.36-.38,0-5.42.01-10.84.23-16.25,0-.21-.15-.39-.36-.38Z" fill="#716c6b"/></g></svg>