<svg viewBox="0 0 419.53 297.64" xmlns="http://www.w3.org/2000/svg"><path d="m419.53 285.33v-271.16c0-7.83-6.35-14.17-14.17-14.17h-393.05c-6.8 0-12.31 5.51-12.31 12.31v273.02c0 6.8 5.51 12.31 12.31 12.31h394.91c6.8 0 12.31-5.51 12.31-12.31z" fill="#19201f"/><path d="m262.66 291.14-40.14-63.46-.02-.03c-2.84-4.45-7.61-7.1-12.77-7.1-5.15 0-9.92 2.65-12.78 7.13l-42.81 67.75-1.39 2.2h114.02l-4.11-6.5z" fill="#a09392"/><path d="m217.03 231.16c-3.49-5.47-11.09-5.47-14.58 0l-42.01 66.48h98.64z" fill="#cec3c1"/><path d="m217 33.27c-2.4-.12-7.19-.96-7.19-.96s-4.89.69-7.33.82c-.18 0-.34-.16-.33-.35.31-5.02.03-9.7-.16-14.54 0-.19.14-.35.33-.35 2.49.04 7.36.57 7.36.57s4.96-.62 7.53-.72c.19 0 .34.16.33.35-.19 4.94-.2 9.88-.21 14.83 0 .19-.15.34-.33.35z" fill="#897f7f" opacity=".5"/></svg>