<?xml version="1.0" encoding="UTF-8"?><svg xmlns="http://www.w3.org/2000/svg" viewBox="0 0 297.64 841.89"><g id="Karte"><path d="M285.33,0H12.31C5.51,0,0,5.51,0,12.31v817.26c0,6.8,5.51,12.31,12.31,12.31h271.16c7.83,0,14.17-6.35,14.17-14.18V12.31C297.64,5.51,292.13,0,285.33,0Z" fill="#f2edee"/><path d="M149.31,632.64C98.39,632.64,48.51,628.23,0,619.81v209.77c0,6.8,5.51,12.31,12.31,12.31h271.16c7.83,0,14.17-6.35,14.17-14.18v-207.73c-48.2,8.31-97.76,12.66-148.33,12.66Z" fill="#a09392"/><path d="M149.31,649.8C98.39,649.8,48.51,645.4,0,636.98v192.6c0,6.8,5.51,12.31,12.31,12.31h271.16c7.83,0,14.17-6.35,14.17-14.18v-190.57c-48.2,8.31-97.76,12.66-148.33,12.66Z" fill="#19201f"/></g><g id="Gestaltung"><path d="M148.82,311.81c-60.18,0-109.13,48.96-109.13,109.13s48.96,109.13,109.13,109.13,109.13-48.96,109.13-109.13-48.96-109.13-109.13-109.13Z" fill="#19201f"/><path d="M148.82,294.8c-69.55,0-126.14,56.59-126.14,126.14s56.59,126.14,126.14,126.14,126.14-56.59,126.14-126.14-56.59-126.14-126.14-126.14ZM39.69,420.94c0-60.18,48.96-109.13,109.13-109.13s109.13,48.96,109.13,109.13-48.96,109.13-109.13,109.13-109.13-48.96-109.13-109.13Z" fill="#a09392"/><path d="M273.52,208.72l-9.66-15.28c2.43,6.27-3.11,13.17-10.42,11.97-34.34-5.62-68.96-11.59-105.06-11.59-35.86,0-70.1,5.93-104.17,11.48-7.34,1.19-12.85-5.89-10.26-12.2l-9.74,15.45c-4.55,7.2,1.77,16.28,10.39,14.88,37.2-6.05,74.58-12.53,113.72-12.53,39.41,0,77.21,6.52,114.7,12.66,8.67,1.42,15.07-7.6,10.49-14.84Z" fill="#a09392"/><path d="M263.86,193.44c-.21-.54-.47-1.09-.81-1.62L156.06,22.68c-3.49-5.47-11.09-5.47-14.58,0L34.69,191.67c-.3.47-.54.95-.74,1.43-2.6,6.3,2.92,13.39,10.26,12.2,34.07-5.55,68.31-11.48,104.17-11.48,36.1,0,70.72,5.97,105.06,11.59,7.31,1.2,12.84-5.7,10.42-11.97Z" fill="#19201f"/></g><g id="Symbole"><path id="regardio-system-pursuit-icon" d="M156.96,807.87c-2.82.1-8.24.79-8.24.79,0,0-5.32-.58-8.04-.62-.21,0-.37.18-.36.38.21,5.3.51,10.43.18,15.93-.01.2.16.39.36.38,2.67-.14,8.02-.66,8.02-.66,0,0,5.23.68,7.86.82.2,0,.36-.17.36-.38,0-5.42.01-10.84.23-16.25,0-.21-.15-.39-.36-.38Z" fill="#716c6b"/></g></svg>