<svg viewBox="0 0 419.53 297.64" xmlns="http://www.w3.org/2000/svg"><path d="m419.53 285.33v-271.16c0-7.83-6.35-14.17-14.17-14.17h-393.05c-6.8 0-12.31 5.51-12.31 12.31v273.02c0 6.8 5.51 12.31 12.31 12.31h394.91c6.8 0 12.31-5.51 12.31-12.31z" fill="#19201f"/><path d="m262.66 291.14-40.14-63.46-.02-.03c-2.84-4.45-7.61-7.1-12.77-7.1-5.15 0-9.92 2.65-12.78 7.13l-42.81 67.75-1.39 2.2h114.02l-4.11-6.5z" fill="#a09392"/><path d="m217.03 231.16c-3.49-5.47-11.09-5.47-14.58 0l-42.01 66.48h98.64z" fill="#cec3c1"/><path d="m217.68 34.02c-2.63-.14-7.86-.82-7.86-.82s-5.35.52-8.02.66c-.2.01-.37-.18-.36-.38.34-5.5.03-10.62-.18-15.93 0-.2.15-.38.36-.38 2.73.05 8.04.62 8.04.62s5.42-.68 8.24-.79c.21 0 .37.17.36.38-.21 5.41-.22 10.83-.23 16.25 0 .21-.16.38-.36.38z" fill="#5d5959"/></svg>