<svg xmlns="http://www.w3.org/2000/svg" viewBox="0 0 297.64 419.53"><path d="M12.31 419.53h271.16c7.83 0 14.17-6.35 14.17-14.17V12.31c0-6.8-5.51-12.31-12.31-12.31H12.31C5.51 0 0 5.51 0 12.31v394.91c0 6.8 5.51 12.31 12.31 12.31z" fill="#cec3c1"/><path d="M231.24 280.63a2.969 2.969 0 0 0-3.95-2.1c-7.94 2.99-23.71 8.53-24.98 8.97-2.63.91-23.71 8.23-28.3 9.72-5.34 1.74-10.66 3.4-15.91 4.99-29.71 9-69 13.9-93.24 17.56-4.06.61-4.59 6.25-.71 7.61 23.8 8.36 63.27 20.53 93.95 29.85 4.22 1.28 8.5 2.54 12.81 3.78 5.58 1.6 25.8 6.92 28.74 7.71 1.11.3 18.35 4.76 26.12 6.59 1.56.37 3.12-.56 3.55-2.1 4.44-15.92 6.82-32.7 6.82-50.03 0-14.63-1.69-28.87-4.89-42.53z" fill="#a09392"/><path d="M157.32 30.22c-.11-2.76-.27-6.66-.33-9.42 0-.14-.08-.27-.21-.34-2.59-1.4-4.87-2.22-7.76-3.41a.556.556 0 0 0-.42.01c-2.89 1.26-5.14 1.91-7.73 3.31a.37.37 0 0 0-.21.32c-.05 2.6-.24 6.96-.35 9.56 0 .13.07.26.2.32 2.76 1.29 5.2 2.15 8.08 3.39.14.06.31.08.44.01 2.93-1.35 5.28-2.12 8.09-3.42.13-.06.2-.2.2-.34z" fill="#86a965"/></svg>