<?xml version="1.0" encoding="UTF-8"?><svg xmlns="http://www.w3.org/2000/svg" viewBox="0 0 297.64 419.53"><g id="Karte"><path d="M12.31,419.53h271.16c7.83,0,14.17-6.35,14.17-14.17V12.31c0-6.8-5.51-12.31-12.31-12.31H12.31C5.51,0,0,5.51,0,12.31v394.91C0,414.02,5.51,419.53,12.31,419.53Z" fill="#f2edee"/></g><g id="Gestaltung"><path d="M149.31,298.95c50.57,0,100.13,4.35,148.33,12.66v-17.01c-48.2-8.31-97.76-12.66-148.33-12.66S48.51,286.35,0,294.77v17.01c48.51-8.42,98.39-12.83,149.31-12.83Z" fill="#a09392"/><path d="M0,332.12v17.01c48.51,8.42,98.39,12.83,149.31,12.83s100.13-4.35,148.33-12.66v-17.01c-48.2,8.31-97.76,12.66-148.33,12.66S48.51,340.54,0,332.12Z" fill="#a09392"/></g><g id="Symbole"><path d="M157.29,33.59c-3.93-8.63-4.83-10.25-8.36-16.41-.13-.23-.44-.22-.57.01-3.06,5.37-4.59,8.12-8.01,16.22-.08.2.02.44.21.43l8.25-.22s.01,0,.02,0l8.25.4c.19,0,.3-.23.21-.43Z" fill="#f7b6a0"/></g></svg>