<svg xmlns="http://www.w3.org/2000/svg" viewBox="0 0 297.64 419.53"><path d="M12.31 419.53h271.16c7.83 0 14.17-6.35 14.17-14.17V12.31c0-6.8-5.51-12.31-12.31-12.31H12.31C5.51 0 0 5.51 0 12.31v394.91c0 6.8 5.51 12.31 12.31 12.31z" fill="#f2edee"/><path d="M130.78 317.88l-1.94-16.9c-42.34-2.83-85.37-2.57-128.84.98v17.07c44.13-3.7 87.81-4.01 130.78-1.15zm36.04 7.56l1.94 16.9c42.35 2.83 85.39 2.57 128.88-.98v-17.07c-44.14 3.7-87.84 4.02-130.81 1.15z" fill="#a09392"/><g><path d="M157.29 33.59c-3.93-8.63-4.83-10.25-8.36-16.41-.13-.23-.44-.22-.57.01-3.06 5.37-4.59 8.12-8.01 16.22-.08.2.02.44.21.43l8.25-.22h.02l8.25.4c.19 0 .3-.23.21-.43z" fill="#f7b6a0"/></g></svg>