<svg viewBox="0 0 297.64 419.53" xmlns="http://www.w3.org/2000/svg"><path d="M12.31 419.53h271.16c7.83 0 14.17-6.35 14.17-14.17V12.31c0-6.8-5.51-12.31-12.31-12.31H12.31C5.51 0 0 5.51 0 12.31v394.91c0 6.8 5.51 12.31 12.31 12.31z" fill="#f2edee"/><path d="M156.18 316.84c-34.05 25.05-95.13 81.13-118.04 102.69h23.38c20.78-19.4 72.44-66.77 102.99-89.17l-8.33-13.51zm72.69 0c-34.05 25.05-95.13 81.13-118.04 102.69h23.38c20.78-19.4 72.44-66.77 102.99-89.17l-8.33-13.51z" fill="#a09392"/><path d="M157.29 33.59c-3.93-8.63-4.83-10.25-8.36-16.41-.13-.23-.44-.22-.57.01-3.06 5.37-4.59 8.12-8.01 16.22-.08.2.02.44.21.43l8.25-.22h.02l8.25.4c.19 0 .3-.23.21-.43z" fill="#f7b6a0"/></svg>