<?xml version="1.0" encoding="UTF-8"?><svg xmlns="http://www.w3.org/2000/svg" viewBox="0 0 297.64 419.53"><g id="Karte"><path d="M12.31,419.53h271.16c7.83,0,14.17-6.35,14.17-14.17V12.31c0-6.8-5.51-12.31-12.31-12.31H12.31C5.51,0,0,5.51,0,12.31v394.91c0,6.8,5.51,12.31,12.31,12.31Z" fill="#f2edee"/></g><g id="Gestaltung"><path d="M148.9,309.25C100.55,318.08,50.8,326.52,0,327.33v17.01c50.78-.81,100.56-9.25,148.9-18.08,48.3,8.82,98.01,17.26,148.74,18.08v-17.01c-50.74-.83-100.44-9.26-148.74-18.08Z" fill="#a09392"/></g><g id="Symbole"><path d="M157.29,33.59c-3.93-8.63-4.83-10.25-8.36-16.41-.13-.23-.44-.22-.57.01-3.06,5.37-4.59,8.12-8.01,16.22-.08.2.02.44.21.43l8.25-.22s.01,0,.02,0l8.25.4c.19,0,.3-.23.21-.43Z" fill="#f7b6a0"/></g></svg>