<svg xmlns="http://www.w3.org/2000/svg" viewBox="0 0 297.64 419.53"><path d="M12.31 419.53h271.16c7.83 0 14.17-6.35 14.17-14.17V12.31c0-6.8-5.51-12.31-12.31-12.31H12.31C5.51 0 0 5.51 0 12.31v394.91c0 6.8 5.51 12.31 12.31 12.31z" fill="#f2edee"/><path d="M157.32 355.03v-17.01C106.3 328.64 53.73 323.71 0 323.68v17.01c53.73.03 106.3 4.96 157.32 14.34zm0-65.67C106.3 279.98 53.73 275.05 0 275.02v17.01c53.73.03 106.3 4.96 157.32 14.34v-17.01z" fill="#a09392"/><g><path d="M157.29 33.59c-3.93-8.63-4.83-10.25-8.36-16.41-.13-.23-.44-.22-.57.01-3.06 5.37-4.59 8.12-8.01 16.22-.08.2.02.44.21.43l8.25-.22h.02l8.25.4c.19 0 .3-.23.21-.43z" fill="#f7b6a0"/></g></svg>