<?xml version="1.0" encoding="UTF-8"?><svg xmlns="http://www.w3.org/2000/svg" viewBox="0 0 297.64 419.53"><g id="Karte"><path d="M12.31,419.53h271.16c7.83,0,14.17-6.35,14.17-14.17V12.31c0-6.8-5.51-12.31-12.31-12.31H12.31C5.51,0,0,5.51,0,12.31v394.91c0,6.8,5.51,12.31,12.31,12.31Z" fill="#f2edee"/></g><g id="Gestaltung"><path d="M198.12,339.1c32.57-5.99,65.79-10.14,99.52-12.38v-17.01c-33.74,2.24-66.95,6.39-99.52,12.38v17.01Z" fill="#a09392"/><path d="M98.73,338.92v-17.01C66.41,316.01,33.46,311.91,0,309.7v17.01c33.46,2.22,66.41,6.31,98.73,12.22Z" fill="#a09392"/></g><g id="Symbole"><path d="M157.29,33.59c-3.93-8.63-4.83-10.25-8.36-16.41-.13-.23-.44-.22-.57.01-3.06,5.37-4.59,8.12-8.01,16.22-.08.2.02.44.21.43l8.25-.22s.01,0,.02,0l8.25.4c.19,0,.3-.23.21-.43Z" fill="#f7b6a0"/></g></svg>