<?xml version="1.0" encoding="UTF-8"?><svg xmlns="http://www.w3.org/2000/svg" viewBox="0 0 297.64 419.53"><g id="Karte"><path d="M12.31,419.53h271.16c7.83,0,14.17-6.35,14.17-14.17V12.31c0-6.8-5.51-12.31-12.31-12.31H12.31C5.51,0,0,5.51,0,12.31v394.91c0,6.8,5.51,12.31,12.31,12.31Z" fill="#f2edee"/></g><g id="Gestaltung"><path d="M140.03,329.98h-17.01c-.21,30.25-1.99,60.11-5.22,89.55h17.01c3.23-29.43,5.02-59.3,5.22-89.55Z" fill="#a09392"/><path d="M180.79,287.34h-17.01c-3.85,32.18-5.95,64.89-6.18,98.05h17.01c.23-33.16,2.33-65.88,6.18-98.05Z" fill="#a09392"/></g><g id="Symbole"><path d="M157.29,33.59c-3.93-8.63-4.83-10.25-8.36-16.41-.13-.23-.44-.22-.57.01-3.06,5.37-4.59,8.12-8.01,16.22-.08.2.02.44.21.43l8.25-.22s.01,0,.02,0l8.25.4c.19,0,.3-.23.21-.43Z" fill="#f7b6a0"/></g></svg>