<svg xmlns="http://www.w3.org/2000/svg" viewBox="0 0 419.53 297.64"><path d="M419.53 285.33V14.17c0-7.83-6.35-14.17-14.17-14.17H12.31C5.51 0 0 5.51 0 12.31v273.02c0 6.8 5.51 12.31 12.31 12.31h394.91c6.8 0 12.31-5.51 12.31-12.31z" fill="#4a4645"/><path d="M365.81 23.43l-148.22 83.54c-.21.12-.42.21-.64.31-.96.43-2 .68-3.06.7-27.86.58-55.82 3.54-83.57 8.95-4.17.81-6.96 4.75-6.32 8.95 3.18 20.84 11.32 67.58 11.87 70.58 1.45 7.95 11.29 62.87 14.28 77.79.85 4.23 1.72 8.43 2.59 12.63.96 3.54 1.91 7.14 2.84 10.76h122.73c.93-3.62 1.88-7.22 2.84-10.76 1.42-5.22 2.87-10.36 4.36-15.37 3.94-13.21 8.04-26.48 12.29-39.75 1.54-4.79 28.78-90.01 36.89-111.38-.03 0-.06-.02-.09-.02l.13-.07c7.64-20.13 28.28-60.39 41.93-86.28 3.67-6.97-4-14.43-10.86-10.56z" fill="#9cc07f"/><path d="M303.58 116.93a490.003 490.003 0 0 0-83.57-8.95c-1.06-.02-2.1-.27-3.06-.7-.22-.1-.43-.19-.64-.31L68.1 23.43c-6.86-3.87-14.54 3.6-10.86 10.56 13.65 25.9 34.29 66.15 41.93 86.28l.13.07s-.06.02-.09.02c8.11 21.38 35.35 106.59 36.89 111.38 4.26 13.27 8.36 26.54 12.29 39.75 1.49 5.01 2.94 10.15 4.36 15.37.96 3.54 1.91 7.14 2.84 10.76h122.73c.93-3.62 1.88-7.22 2.84-10.76.87-4.2 1.74-8.4 2.59-12.63 2.99-14.92 12.83-69.84 14.28-77.79.55-3 8.69-49.74 11.87-70.58.64-4.2-2.15-8.14-6.32-8.95z" fill="#86a965"/><g><path d="M218.24 33.59c-3.93-8.63-4.83-10.25-8.36-16.41-.13-.23-.44-.22-.57.01-3.06 5.37-4.59 8.12-8.01 16.22-.08.2.02.44.21.43l8.25-.22h.02l8.25.4c.19 0 .3-.23.21-.43z" fill="#c17352"/></g></svg>