<svg xmlns="http://www.w3.org/2000/svg" viewBox="0 0 419.53 297.64"><path d="M419.53 285.33V14.17c0-7.83-6.35-14.17-14.17-14.17H12.31C5.51 0 0 5.51 0 12.31v273.02c0 6.8 5.51 12.31 12.31 12.31h394.91c6.8 0 12.31-5.51 12.31-12.31z" fill="#4a4645"/><path d="M255.28 239.3c-.19-.08-.4-.15-.61-.19-9-1.9-18.07-3.21-27.15-3.92a3.27 3.27 0 0 1-1.57-.53l-14.6-9.37-40.67-26.12c-2.24-1.44-5.18.13-5.25 2.79-.28 11.35.09 20.97.9 29.85.05.6.48 3.47 1.1 7.5.78 5.05 1.85 11.92 2.88 18.41 1.53 9.7 2.95 18.56 3.07 19.2.27 1.5 2.13 12.08 3.72 20.73h62.42c2.96-9.31 7.37-23.2 8.01-25.21.27-.83 2.48-7.55 4.87-14.72 1.72-5.17 3.54-10.56 4.78-14.16.6-1.73-.28-3.57-1.9-4.25z" fill="#a09392"/><path d="M257.28 201.95c-.07-2.66-3.01-4.22-5.25-2.79l-40.67 26.12-14.6 9.37c-.47.3-1.01.48-1.57.53-9.08.72-18.15 2.02-27.15 3.92-.21.05-.42.11-.61.19-1.62.68-2.5 2.52-1.9 4.25 1.24 3.59 3.05 8.99 4.78 14.16 2.39 7.17 4.61 13.89 4.87 14.72.64 2.01 5.06 15.9 8.01 25.21h62.42c1.59-8.65 3.45-19.23 3.72-20.73.11-.64 1.53-9.5 3.07-19.2 1.03-6.49 2.1-13.36 2.88-18.41.62-4.03 1.05-6.9 1.1-7.5.81-8.88 1.18-18.5.9-29.85z" fill="#cec3c1"/><g><path d="M218.24 33.59c-3.93-8.63-4.83-10.25-8.36-16.41-.13-.23-.44-.22-.57.01-3.06 5.37-4.59 8.12-8.01 16.22-.08.2.02.44.21.43l8.25-.22h.02l8.25.4c.19 0 .3-.23.21-.43z" fill="#c17352"/></g></svg>