<?xml version="1.0" encoding="UTF-8"?><svg xmlns="http://www.w3.org/2000/svg" viewBox="0 0 419.53 297.64"><g id="Karte"><path d="M419.53,285.33V14.17c0-7.83-6.35-14.17-14.17-14.17H12.31C5.51,0,0,5.51,0,12.31v273.02c0,6.8,5.51,12.31,12.31,12.31h394.91c6.8,0,12.31-5.51,12.31-12.31Z" fill="#4a4645"/></g><g id="Gestaltung"><path d="M139.21,297.64h160.65c1.56-9.62,7.36-46.03,11.3-71.37,2.06-13.29,3.62-23.54,3.77-25.25,1.77-19.48,2.58-40.59,1.96-65.49-.14-5.83-6.61-9.26-11.51-6.11l-121.25,77.86c-1.03.66-2.22,1.06-3.44,1.15-19.92,1.57-39.82,4.43-59.56,8.6-4.39.93-6.97,5.51-5.51,9.75,6.5,18.82,20.17,60.22,21.18,63.36.39,1.23,1.25,3.89,2.42,7.49Z" fill="#6ebcb4"/><path d="M130.88,215.08c5.95,18.46,14.35,44.65,17.89,56.44,2.47,8.24,4.88,16.46,7.23,24.64.14.49.28.99.42,1.48h122.98c1.64-8.02,3.22-15.86,4.73-23.46,3.49-17.55,6.79-35.33,9.81-53.18.86-5.09,1.73-10.04,2.59-14.89.4-2.25,7.63-47.56,12.34-77.87,2.18-14.05,3.82-24.87,3.99-26.68,1.87-20.58,2.72-42.88,2.07-69.2-.15-6.16-6.98-9.79-12.16-6.46l-128.11,82.27c-1.09.7-2.34,1.12-3.64,1.22-21.05,1.66-42.07,4.68-62.94,9.09-4.64.98-7.37,5.82-5.82,10.31,6.87,19.88,21.31,63.63,22.37,66.94.77,2.4,3.18,9.85,6.24,19.35Z" fill="#57a89f"/></g><g id="Symbole"><path d="M218.24,33.59c-3.93-8.63-4.83-10.25-8.36-16.41-.13-.23-.44-.22-.57.01-3.06,5.37-4.59,8.12-8.01,16.22-.08.2.02.44.21.43l8.25-.22s.01,0,.02,0l8.25.4c.19,0,.3-.23.21-.43Z" fill="#c17352"/></g></svg>