<svg xmlns="http://www.w3.org/2000/svg" viewBox="0 0 297.64 419.53"><path d="M12.31 419.53h271.16c7.83 0 14.17-6.35 14.17-14.17V12.31c0-6.8-5.51-12.31-12.31-12.31H12.31C5.51 0 0 5.51 0 12.31v394.91c0 6.8 5.51 12.31 12.31 12.31z" fill="#cec3c1"/><path d="M232.87 322.28c0 19.24-2.64 37.87-7.57 55.54a3.3 3.3 0 0 1-3.94 2.33c-8.62-2.03-27.76-6.98-28.99-7.31-3.26-.87-25.71-6.78-31.9-8.55-4.79-1.37-9.53-2.77-14.22-4.19-34.07-10.34-77.88-23.85-104.29-33.13-4.3-1.51-3.71-7.77.79-8.45 26.91-4.06 70.52-9.5 103.5-19.49 5.83-1.77 11.73-3.61 17.66-5.54 5.1-1.66 28.49-9.78 31.42-10.79 1.41-.49 18.92-6.64 27.73-9.95 1.87-.7 3.93.39 4.38 2.33 3.55 15.16 5.43 30.96 5.43 47.21z" fill="#a09392"/><path d="M157.32 30.22c-.11-2.76-.27-6.66-.33-9.42 0-.14-.08-.27-.21-.34-2.59-1.4-4.87-2.22-7.76-3.41a.556.556 0 0 0-.42.01c-2.89 1.26-5.14 1.91-7.73 3.31a.37.37 0 0 0-.21.32c-.05 2.6-.24 6.96-.35 9.56 0 .13.07.26.2.32 2.76 1.29 5.2 2.15 8.08 3.39.14.06.31.08.44.01 2.93-1.35 5.28-2.12 8.09-3.42.13-.06.2-.2.2-.34z" fill="#86a965"/></svg>