<svg xmlns="http://www.w3.org/2000/svg" viewBox="0 0 297.64 419.53"><path d="M12.31 419.53h271.16c7.83 0 14.17-6.35 14.17-14.17V12.31c0-6.8-5.51-12.31-12.31-12.31H12.31C5.51 0 0 5.51 0 12.31v394.91c0 6.8 5.51 12.31 12.31 12.31z" fill="#f2edee"/><path d="M198.12 339.1c32.57-5.99 65.79-10.14 99.52-12.38v-17.01c-33.74 2.24-66.95 6.39-99.52 12.38v17.01zm-99.39-.18v-17.01c-32.32-5.9-65.27-10-98.73-12.21v17.01c33.46 2.22 66.41 6.31 98.73 12.22z" fill="#a09392"/><g><path d="M157.29 33.59c-3.93-8.63-4.83-10.25-8.36-16.41-.13-.23-.44-.22-.57.01-3.06 5.37-4.59 8.12-8.01 16.22-.08.2.02.44.21.43l8.25-.22h.02l8.25.4c.19 0 .3-.23.21-.43z" fill="#f7b6a0"/></g></svg>