<svg viewBox="0 0 419.53 297.64" xmlns="http://www.w3.org/2000/svg"><path d="M419.53 285.33V14.17c0-7.83-6.35-14.17-14.17-14.17H12.31C5.51 0 0 5.51 0 12.31v273.02c0 6.8 5.51 12.31 12.31 12.31h394.91c6.8 0 12.31-5.51 12.31-12.31z" fill="#4a4645"/><path d="M117.59 231.7c4.26 13.27 8.36 26.54 12.29 39.75 2.51 8.43 4.92 17.19 7.23 26.19h123.27a2103.9 2103.9 0 0 0 4.86-23.45c2.99-14.92 12.83-69.84 14.28-77.79.55-3 8.69-49.74 11.87-70.58.64-4.2-2.15-8.14-6.32-8.95a490.003 490.003 0 0 0-83.57-8.95c-1.3-.03-2.57-.37-3.7-1.01L49.59 23.37c-4.65-2.62-9.67-.04-11.28 4.07-.77 1.95-.77 4.25.42 6.49 13.65 25.9 34.29 66.15 41.93 86.28l.13.07s-.06.01-.09.02c8.11 21.38 35.35 106.59 36.89 111.38z" fill="#d897bd"/><path d="M99.3 120.29s-.06.01-.09.02c8.11 21.38 35.35 106.59 36.89 111.38 4.26 13.27 8.36 26.54 12.29 39.75 2.51 8.43 4.92 17.19 7.23 26.19h123.27a2103.9 2103.9 0 0 0 4.86-23.45c2.99-14.92 12.83-69.84 14.28-77.79.55-3 8.69-49.74 11.87-70.58.64-4.2-2.15-8.14-6.32-8.95a490.003 490.003 0 0 0-83.57-8.95c-1.3-.03-2.57-.37-3.7-1.01L68.1 23.37c-4.65-2.62-9.67-.04-11.28 4.07-.77 1.95-.77 4.25.42 6.49 13.65 25.9 34.29 66.15 41.93 86.28l.13.07z" fill="#c780ab"/><path d="M218.24 33.59c-3.93-8.63-4.83-10.25-8.36-16.41-.13-.23-.44-.22-.57.01-3.06 5.37-4.59 8.12-8.01 16.22-.08.2.02.44.21.43l8.25-.22h.02l8.25.4c.19 0 .3-.23.21-.43z" fill="#c17352"/></svg>