<?xml version="1.0" encoding="UTF-8"?><svg xmlns="http://www.w3.org/2000/svg" viewBox="0 0 297.64 419.53"><g id="Karte"><path d="M12.31,419.53h271.16c7.83,0,14.17-6.35,14.17-14.17V12.31c0-6.8-5.51-12.31-12.31-12.31H12.31C5.51,0,0,5.51,0,12.31v394.91c0,6.8,5.51,12.31,12.31,12.31Z" fill="#f2edee"/></g><g id="Gestaltung"><path d="M250.94,300.84s-.1-17.01-.1-17.01c-50.64,9.57-102.85,14.75-156.22,15.1l-.62,17.01c53.6-.3,106.08-5.49,156.94-15.1Z" fill="#a09392"/><path d="M212.59,333.3s.66-17,.66-16.99c-51.02,7.28-103.41,10.11-156.74,8.06l-1.39,16.97c53.56,2.11,106.22-.72,157.46-8.03Z" fill="#a09392"/></g><g id="Symbole"><path d="M157.29,33.59c-3.93-8.63-4.83-10.25-8.36-16.41-.13-.23-.44-.22-.57.01-3.06,5.37-4.59,8.12-8.01,16.22-.08.2.02.44.21.43l8.25-.22s.01,0,.02,0l8.25.4c.19,0,.3-.23.21-.43Z" fill="#f7b6a0"/></g></svg>