<svg viewBox="0 0 419.53 297.64" xmlns="http://www.w3.org/2000/svg"><path d="M419.53 285.33V14.17c0-7.83-6.35-14.17-14.17-14.17H12.31C5.51 0 0 5.51 0 12.31v273.02c0 6.8 5.51 12.31 12.31 12.31h394.91c6.8 0 12.31-5.51 12.31-12.31z" fill="#4a4645"/><path d="M306.84 220.45c.71-2.23 6.66-20.27 13.08-39.51 4.62-13.86 9.49-28.35 12.82-37.99 1.6-4.64-.75-9.59-5.1-11.41-.52-.22-1.06-.4-1.64-.52-24.16-5.11-48.49-8.6-72.86-10.52a9.17 9.17 0 0 1-4.21-1.41l-39.17-25.15-109.15-70.11c-6-3.85-13.91.35-14.08 7.48-.75 30.46.24 56.28 2.4 80.11.15 1.6 1.29 9.31 2.95 20.12 2.08 13.55 4.97 31.98 7.73 49.4 4.12 26.04 7.92 49.8 8.23 51.53.82 4.61 7.24 41.03 11.75 65.18h162.56c7.94-25.45 22.44-70.15 24.69-77.19z" fill="#ee9e81"/><path d="M311.69 232.46c.31-1.73 4.11-25.48 8.23-51.53 2.75-17.42 5.64-35.84 7.73-49.4 1.66-10.81 2.8-18.51 2.95-20.12 2.16-23.83 3.15-49.65 2.4-80.11-.18-7.13-8.08-11.33-14.08-7.48L209.77 93.91l-39.17 25.15a9.132 9.132 0 0 1-4.21 1.41 568.863 568.863 0 0 0-72.86 10.52c-.57.12-1.12.3-1.64.52-4.35 1.82-6.7 6.77-5.1 11.41 3.33 9.64 8.2 24.12 12.82 37.99 6.42 19.24 12.37 37.29 13.08 39.51 2.25 7.03 16.76 51.73 24.69 77.19h162.56c4.51-24.15 10.93-60.57 11.75-65.18z" fill="#db8665"/><path d="M218.24 33.59c-3.93-8.63-4.83-10.25-8.36-16.41-.13-.23-.44-.22-.57.01-3.06 5.37-4.59 8.12-8.01 16.22-.08.2.02.44.21.43l8.25-.22h.02l8.25.4c.19 0 .3-.23.21-.43z" fill="#c17352"/></svg>