<svg xmlns="http://www.w3.org/2000/svg" viewBox="0 0 419.53 297.64"><path d="M419.53 285.33V14.17c0-7.83-6.35-14.17-14.17-14.17H12.31C5.51 0 0 5.51 0 12.31v273.02c0 6.8 5.51 12.31 12.31 12.31h394.91c6.8 0 12.31-5.51 12.31-12.31z" fill="#4a4645"/><path d="M345.11 250.04c-6.62-16.29-17.7-45.15-22.85-58.64l-220.76 1.05c-3.52 15.29-10.24 44.81-13.46 60.27a7.906 7.906 0 0 0 5.82 9.27c12.02 3.02 24.21 5.57 36.55 7.69l173.47-1.04c12.14-2.23 24.12-4.89 35.92-7.98 4.61-1.21 7.1-6.2 5.31-10.62z" fill="#cfb35f"/><path d="M329.9 121.87c-42.58-10.69-87.31-15.83-133.35-14.63-38.86 1.02-76.55 6.51-112.59 15.96-4.61 1.21-7.1 6.2-5.31 10.62 6.62 16.29 17.7 45.15 22.85 58.64 1.45 3.8 2.43 6.38 2.7 7.11 2.36 6.29 19.8 52.58 26.21 70.11a338.9 338.9 0 0 1 1.58 4.39c2.79 7.89 5.5 15.74 8.17 23.57h156.2c1.76-6.56 3.51-13.14 5.22-19.78.58-2.27 1.37-5.44 2.3-9.22 5.17-21.09 14.57-61 16.16-67.66.18-.76 1.01-4.33 2.22-9.57 3.52-15.29 10.24-44.81 13.46-60.27a7.906 7.906 0 0 0-5.82-9.27z" fill="#ba9f40"/><g><path d="M218.24 33.59c-3.93-8.63-4.83-10.25-8.36-16.41-.13-.23-.44-.22-.57.01-3.06 5.37-4.59 8.12-8.01 16.22-.08.2.02.44.21.43l8.25-.22h.02l8.25.4c.19 0 .3-.23.21-.43z" fill="#c17352"/></g></svg>