<svg viewBox="0 0 419.53 297.64" xmlns="http://www.w3.org/2000/svg"><path d="m419.53 285.33v-271.16c0-7.83-6.35-14.17-14.17-14.17h-393.05c-6.8 0-12.31 5.51-12.31 12.31v273.02c0 6.8 5.51 12.31 12.31 12.31h394.91c6.8 0 12.31-5.51 12.31-12.31z" fill="#4a4645"/><path d="m365.81 23.43-148.22 83.54c-.21.12-.42.21-.64.31-.96.43-2 .68-3.06.7-27.86.58-55.82 3.54-83.57 8.95-4.17.81-6.96 4.75-6.32 8.95 3.18 20.84 11.32 67.58 11.87 70.58 1.45 7.95 11.29 62.87 14.28 77.79.85 4.23 1.72 8.43 2.59 12.63.96 3.54 1.91 7.14 2.84 10.76h122.73c.93-3.62 1.88-7.22 2.84-10.76 1.42-5.22 2.87-10.36 4.36-15.37 3.94-13.21 8.04-26.48 12.29-39.75 1.54-4.79 28.78-90.01 36.89-111.38-.03 0-.06-.02-.09-.02l.13-.07c7.64-20.13 28.28-60.39 41.93-86.28 3.67-6.97-4-14.43-10.86-10.56z" fill="#9cc07f"/><path d="m303.58 116.93c-27.75-5.41-55.71-8.37-83.57-8.95-1.06-.02-2.1-.27-3.06-.7-.22-.1-.43-.19-.64-.31l-148.21-83.54c-6.86-3.87-14.54 3.6-10.86 10.56 13.65 25.9 34.29 66.15 41.93 86.28l.13.07s-.06.02-.09.02c8.11 21.38 35.35 106.59 36.89 111.38 4.26 13.27 8.36 26.54 12.29 39.75 1.49 5.01 2.94 10.15 4.36 15.37.96 3.54 1.91 7.14 2.84 10.76h122.73c.93-3.62 1.88-7.22 2.84-10.76.87-4.2 1.74-8.4 2.59-12.63 2.99-14.92 12.83-69.84 14.28-77.79.55-3 8.69-49.74 11.87-70.58.64-4.2-2.15-8.14-6.32-8.95z" fill="#86a965"/><path d="m215.66 23.7c-.85 0-1.71 0-2.58.02-.1 0-.16-.11-.11-.2.47-.77.95-1.54 1.44-2.31.04-.07.03-.15-.04-.19-.94-.53-1.92-1.03-2.91-1.5-.07-.03-.15 0-.19.06-.48.75-.94 1.5-1.39 2.26-.05.09-.19.09-.24 0-.45-.72-.92-1.42-1.39-2.09-.04-.06-.13-.07-.19-.03-.99.57-1.96 1.14-2.9 1.7-.06.04-.08.12-.04.17.49.67.97 1.35 1.43 2.06.06.08 0 .19-.11.2-.87.02-1.73.05-2.57.07-.07 0-.12.06-.12.13.09.99.17 1.98.25 2.97 0 .07.06.12.13.13.81.02 1.63.05 2.46.06.1 0 .16.11.12.2-.38.71-.75 1.39-1.11 2.07-.03.06 0 .14.05.18.9.56 1.79 1.12 2.65 1.69.06.04.13.02.16-.04.38-.68.78-1.38 1.18-2.1.05-.09.17-.08.22 0 .41.75.8 1.5 1.18 2.25.03.06.11.09.16.06.87-.48 1.76-.98 2.65-1.51.06-.04.09-.12.05-.19-.36-.77-.73-1.54-1.11-2.3-.05-.09.02-.21.12-.2.83 0 1.65.01 2.46.02.07 0 .13-.06.13-.14.08-1.12.17-2.23.26-3.35 0-.08-.05-.14-.12-.14z" fill="#897f7f" opacity=".5"/></svg>