<svg viewBox="0 0 419.53 297.64" xmlns="http://www.w3.org/2000/svg"><path d="m419.53 285.33v-271.16c0-7.83-6.35-14.17-14.17-14.17h-393.05c-6.8 0-12.31 5.51-12.31 12.31v273.02c0 6.8 5.51 12.31 12.31 12.31h394.91c6.8 0 12.31-5.51 12.31-12.31z" fill="#4a4645"/><path d="m117.59 231.7c4.26 13.27 8.36 26.54 12.29 39.75 2.51 8.43 4.92 17.19 7.23 26.19h123.27c1.65-7.77 3.28-15.57 4.86-23.45 2.99-14.92 12.83-69.84 14.28-77.79.55-3 8.69-49.74 11.87-70.58.64-4.2-2.15-8.14-6.32-8.95-27.75-5.41-55.71-8.37-83.57-8.95-1.3-.03-2.57-.37-3.7-1.01l-148.21-83.54c-4.65-2.62-9.67-.04-11.28 4.07-.77 1.95-.77 4.25.42 6.49 13.65 25.9 34.29 66.15 41.93 86.28l.13.07s-.06.01-.09.02c8.11 21.38 35.35 106.59 36.89 111.38z" fill="#d897bd"/><path d="m99.3 120.29s-.06.01-.09.02c8.11 21.38 35.35 106.59 36.89 111.38 4.26 13.27 8.36 26.54 12.29 39.75 2.51 8.43 4.92 17.19 7.23 26.19h123.27c1.65-7.77 3.28-15.57 4.86-23.45 2.99-14.92 12.83-69.84 14.28-77.79.55-3 8.69-49.74 11.87-70.58.64-4.2-2.15-8.14-6.32-8.95-27.75-5.41-55.71-8.37-83.57-8.95-1.3-.03-2.57-.37-3.7-1.01l-148.21-83.53c-4.65-2.62-9.67-.04-11.28 4.07-.77 1.95-.77 4.25.42 6.49 13.65 25.9 34.29 66.15 41.93 86.28l.13.07z" fill="#c780ab"/><path d="m215.66 23.7c-.85 0-1.71 0-2.58.02-.1 0-.16-.11-.11-.2.47-.77.95-1.54 1.44-2.31.04-.07.03-.15-.04-.19-.94-.53-1.92-1.03-2.91-1.5-.07-.03-.15 0-.19.06-.48.75-.94 1.5-1.39 2.26-.05.09-.19.09-.24 0-.45-.72-.92-1.42-1.39-2.09-.04-.06-.13-.07-.19-.03-.99.57-1.96 1.14-2.9 1.7-.06.04-.08.12-.04.17.49.67.97 1.35 1.43 2.06.06.08 0 .19-.11.2-.87.02-1.73.05-2.57.07-.07 0-.12.06-.12.13.09.99.17 1.98.25 2.97 0 .07.06.12.13.13.81.02 1.63.05 2.46.06.1 0 .16.11.12.2-.38.71-.75 1.39-1.11 2.07-.03.06 0 .14.05.18.9.56 1.79 1.12 2.65 1.69.06.04.13.02.16-.04.38-.68.78-1.38 1.18-2.1.05-.09.17-.08.22 0 .41.75.8 1.5 1.18 2.25.03.06.11.09.16.06.87-.48 1.76-.98 2.65-1.51.06-.04.09-.12.05-.19-.36-.77-.73-1.54-1.11-2.3-.05-.09.02-.21.12-.2.83 0 1.65.01 2.46.02.07 0 .13-.06.13-.14.08-1.12.17-2.23.26-3.35 0-.08-.05-.14-.12-.14z" fill="#897f7f" opacity=".5"/></svg>