<svg viewBox="0 0 419.53 297.64" xmlns="http://www.w3.org/2000/svg"><path d="m419.53 285.33v-271.16c0-7.83-6.35-14.17-14.17-14.17h-393.05c-6.8 0-12.31 5.51-12.31 12.31v273.02c0 6.8 5.51 12.31 12.31 12.31h394.91c6.8 0 12.31-5.51 12.31-12.31z" fill="#4a4645"/><path d="m139.21 297.64h160.65c1.56-9.62 7.36-46.03 11.3-71.37 2.06-13.29 3.62-23.54 3.77-25.25 1.77-19.48 2.58-40.59 1.96-65.49-.14-5.83-6.61-9.26-11.51-6.11l-121.25 77.86c-1.03.66-2.22 1.06-3.44 1.15-19.92 1.57-39.82 4.43-59.56 8.6-4.39.93-6.97 5.51-5.51 9.75 6.5 18.82 20.17 60.22 21.18 63.36.39 1.23 1.25 3.89 2.42 7.49z" fill="#6ebcb4"/><path d="m130.88 215.08c5.95 18.46 14.35 44.65 17.89 56.44 2.47 8.24 4.88 16.46 7.23 24.64.14.49.28.99.42 1.48h122.98c1.64-8.02 3.22-15.86 4.73-23.46 3.49-17.55 6.79-35.33 9.81-53.18.86-5.09 1.73-10.04 2.59-14.89.4-2.25 7.63-47.56 12.34-77.87 2.18-14.05 3.82-24.87 3.99-26.68 1.87-20.58 2.72-42.88 2.07-69.2-.15-6.16-6.98-9.79-12.16-6.46l-128.11 82.27c-1.09.7-2.34 1.12-3.64 1.22-21.05 1.66-42.07 4.68-62.94 9.09-4.64.98-7.37 5.82-5.82 10.31 6.87 19.88 21.31 63.63 22.37 66.94.77 2.4 3.18 9.85 6.24 19.35z" fill="#57a89f"/><path d="m215.66 23.7c-.85 0-1.71 0-2.58.02-.1 0-.16-.11-.11-.2.47-.77.95-1.54 1.44-2.31.04-.07.03-.15-.04-.19-.94-.53-1.92-1.03-2.91-1.5-.07-.03-.15 0-.19.06-.48.75-.94 1.5-1.39 2.26-.05.09-.19.09-.24 0-.45-.72-.92-1.42-1.39-2.09-.04-.06-.13-.07-.19-.03-.99.57-1.96 1.14-2.9 1.7-.06.04-.08.12-.04.17.49.67.97 1.35 1.43 2.06.06.08 0 .19-.11.2-.87.02-1.73.05-2.57.07-.07 0-.12.06-.12.13.09.99.17 1.98.25 2.97 0 .07.06.12.13.13.81.02 1.63.05 2.46.06.1 0 .16.11.12.2-.38.71-.75 1.39-1.11 2.07-.03.06 0 .14.05.18.9.56 1.79 1.12 2.65 1.69.06.04.13.02.16-.04.38-.68.78-1.38 1.18-2.1.05-.09.17-.08.22 0 .41.75.8 1.5 1.18 2.25.03.06.11.09.16.06.87-.48 1.76-.98 2.65-1.51.06-.04.09-.12.05-.19-.36-.77-.73-1.54-1.11-2.3-.05-.09.02-.21.12-.2.83 0 1.65.01 2.46.02.07 0 .13-.06.13-.14.08-1.12.17-2.23.26-3.35 0-.08-.05-.14-.12-.14z" fill="#897f7f"/></svg>