<svg viewBox="0 0 419.53 297.64" xmlns="http://www.w3.org/2000/svg"><path d="m419.53 285.33v-271.16c0-7.83-6.35-14.17-14.17-14.17h-393.05c-6.8 0-12.31 5.51-12.31 12.31v273.02c0 6.8 5.51 12.31 12.31 12.31h394.91c6.8 0 12.31-5.51 12.31-12.31z" fill="#4a4645"/><path d="m255.28 239.3c-.19-.08-.4-.15-.61-.19-9-1.9-18.07-3.21-27.15-3.92-.56-.04-1.1-.22-1.57-.53l-14.6-9.37-40.67-26.12c-2.24-1.44-5.18.13-5.25 2.79-.28 11.35.09 20.97.9 29.85.05.6.48 3.47 1.1 7.5.78 5.05 1.85 11.92 2.88 18.41 1.53 9.7 2.95 18.56 3.07 19.2.27 1.5 2.13 12.08 3.72 20.73h62.42c2.96-9.31 7.37-23.2 8.01-25.21.27-.83 2.48-7.55 4.87-14.72 1.72-5.17 3.54-10.56 4.78-14.16.6-1.73-.28-3.57-1.9-4.25z" fill="#a09392"/><path d="m257.28 201.95c-.07-2.66-3.01-4.22-5.25-2.79l-40.67 26.12-14.6 9.37c-.47.3-1.01.48-1.57.53-9.08.72-18.15 2.02-27.15 3.92-.21.05-.42.11-.61.19-1.62.68-2.5 2.52-1.9 4.25 1.24 3.59 3.05 8.99 4.78 14.16 2.39 7.17 4.61 13.89 4.87 14.72.64 2.01 5.06 15.9 8.01 25.21h62.42c1.59-8.65 3.45-19.23 3.72-20.73.11-.64 1.53-9.5 3.07-19.2 1.03-6.49 2.1-13.36 2.88-18.41.62-4.03 1.05-6.9 1.1-7.5.81-8.88 1.18-18.5.9-29.85z" fill="#cec3c1"/><path d="m215.66 23.7c-.85 0-1.71 0-2.58.02-.1 0-.16-.11-.11-.2.47-.77.95-1.54 1.44-2.31.04-.07.03-.15-.04-.19-.94-.53-1.92-1.03-2.91-1.5-.07-.03-.15 0-.19.06-.48.75-.94 1.5-1.39 2.26-.05.09-.19.09-.24 0-.45-.72-.92-1.42-1.39-2.09-.04-.06-.13-.07-.19-.03-.99.57-1.96 1.14-2.9 1.7-.06.04-.08.12-.04.17.49.67.97 1.35 1.43 2.06.06.08 0 .19-.11.2-.87.02-1.73.05-2.57.07-.07 0-.12.06-.12.13.09.99.17 1.98.25 2.97 0 .07.06.12.13.13.81.02 1.63.05 2.46.06.1 0 .16.11.12.2-.38.71-.75 1.39-1.11 2.07-.03.06 0 .14.05.18.9.56 1.79 1.12 2.65 1.69.06.04.13.02.16-.04.38-.68.78-1.38 1.18-2.1.05-.09.17-.08.22 0 .41.75.8 1.5 1.18 2.25.03.06.11.09.16.06.87-.48 1.76-.98 2.65-1.51.06-.04.09-.12.05-.19-.36-.77-.73-1.54-1.11-2.3-.05-.09.02-.21.12-.2.83 0 1.65.01 2.46.02.07 0 .13-.06.13-.14.08-1.12.17-2.23.26-3.35 0-.08-.05-.14-.12-.14z" fill="#897f7f"/></svg>