<svg viewBox="0 0 419.53 297.64" xmlns="http://www.w3.org/2000/svg"><path d="m419.53 285.33v-271.16c0-7.83-6.35-14.17-14.17-14.17h-393.05c-6.8 0-12.31 5.51-12.31 12.31v273.02c0 6.8 5.51 12.31 12.31 12.31h394.91c6.8 0 12.31-5.51 12.31-12.31z" fill="#4a4645"/><path d="m306.84 220.45c.71-2.23 6.66-20.27 13.08-39.51 4.62-13.86 9.49-28.35 12.82-37.99 1.6-4.64-.75-9.59-5.1-11.41-.52-.22-1.06-.4-1.64-.52-24.16-5.11-48.49-8.6-72.86-10.52-1.5-.12-2.94-.6-4.21-1.41l-39.17-25.15-109.15-70.11c-6-3.85-13.91.35-14.08 7.48-.75 30.46.24 56.28 2.4 80.11.15 1.6 1.29 9.31 2.95 20.12 2.08 13.55 4.97 31.98 7.73 49.4 4.12 26.04 7.92 49.8 8.23 51.53.82 4.61 7.24 41.03 11.75 65.18h162.56c7.94-25.45 22.44-70.15 24.69-77.19z" fill="#ee9e81"/><path d="m311.69 232.46c.31-1.73 4.11-25.48 8.23-51.53 2.75-17.42 5.64-35.84 7.73-49.4 1.66-10.81 2.8-18.51 2.95-20.12 2.16-23.83 3.15-49.65 2.4-80.11-.18-7.13-8.08-11.33-14.08-7.48l-109.15 70.09-39.17 25.15c-1.26.81-2.71 1.29-4.21 1.41-24.37 1.92-48.71 5.42-72.86 10.52-.57.12-1.12.3-1.64.52-4.35 1.82-6.7 6.77-5.1 11.41 3.33 9.64 8.2 24.12 12.82 37.99 6.42 19.24 12.37 37.29 13.08 39.51 2.25 7.03 16.76 51.73 24.69 77.19h162.56c4.51-24.15 10.93-60.57 11.75-65.18z" fill="#db8665"/><path d="m215.66 23.7c-.85 0-1.71 0-2.58.02-.1 0-.16-.11-.11-.2.47-.77.95-1.54 1.44-2.31.04-.07.03-.15-.04-.19-.94-.53-1.92-1.03-2.91-1.5-.07-.03-.15 0-.19.06-.48.75-.94 1.5-1.39 2.26-.05.09-.19.09-.24 0-.45-.72-.92-1.42-1.39-2.09-.04-.06-.13-.07-.19-.03-.99.57-1.96 1.14-2.9 1.7-.06.04-.08.12-.04.17.49.67.97 1.35 1.43 2.06.06.08 0 .19-.11.2-.87.02-1.73.05-2.57.07-.07 0-.12.06-.12.13.09.99.17 1.98.25 2.97 0 .07.06.12.13.13.81.02 1.63.05 2.46.06.1 0 .16.11.12.2-.38.71-.75 1.39-1.11 2.07-.03.06 0 .14.05.18.9.56 1.79 1.12 2.65 1.69.06.04.13.02.16-.04.38-.68.78-1.38 1.18-2.1.05-.09.17-.08.22 0 .41.75.8 1.5 1.18 2.25.03.06.11.09.16.06.87-.48 1.76-.98 2.65-1.51.06-.04.09-.12.05-.19-.36-.77-.73-1.54-1.11-2.3-.05-.09.02-.21.12-.2.83 0 1.65.01 2.46.02.07 0 .13-.06.13-.14.08-1.12.17-2.23.26-3.35 0-.08-.05-.14-.12-.14z" fill="#897f7f"/></svg>