<svg viewBox="0 0 419.53 297.64" xmlns="http://www.w3.org/2000/svg"><path d="m419.53 285.33v-271.16c0-7.83-6.35-14.17-14.17-14.17h-393.05c-6.8 0-12.31 5.51-12.31 12.31v273.02c0 6.8 5.51 12.31 12.31 12.31h394.91c6.8 0 12.31-5.51 12.31-12.31z" fill="#4a4645"/><path d="m345.11 250.04c-6.62-16.29-17.7-45.15-22.85-58.64l-220.76 1.05c-3.52 15.29-10.24 44.81-13.46 60.27-.86 4.15 1.71 8.24 5.82 9.27 12.02 3.02 24.21 5.57 36.55 7.69l173.47-1.04c12.14-2.23 24.12-4.89 35.92-7.98 4.61-1.21 7.1-6.2 5.31-10.62z" fill="#cfb35f"/><path d="m329.9 121.87c-42.58-10.69-87.31-15.83-133.35-14.63-38.86 1.02-76.55 6.51-112.59 15.96-4.61 1.21-7.1 6.2-5.31 10.62 6.62 16.29 17.7 45.15 22.85 58.64 1.45 3.8 2.43 6.38 2.7 7.11 2.36 6.29 19.8 52.58 26.21 70.11.65 1.78 1.19 3.27 1.58 4.39 2.79 7.89 5.5 15.74 8.17 23.57h156.2c1.76-6.56 3.51-13.14 5.22-19.78.58-2.27 1.37-5.44 2.3-9.22 5.17-21.09 14.57-61 16.16-67.66.18-.76 1.01-4.33 2.22-9.57 3.52-15.29 10.24-44.81 13.46-60.27.86-4.15-1.71-8.24-5.82-9.27z" fill="#ba9f40"/><path d="m215.66 23.7c-.85 0-1.71 0-2.58.02-.1 0-.16-.11-.11-.2.47-.77.95-1.54 1.44-2.31.04-.07.03-.15-.04-.19-.94-.53-1.92-1.03-2.91-1.5-.07-.03-.15 0-.19.06-.48.75-.94 1.5-1.39 2.26-.05.09-.19.09-.24 0-.45-.72-.92-1.42-1.39-2.09-.04-.06-.13-.07-.19-.03-.99.57-1.96 1.14-2.9 1.7-.06.04-.08.12-.04.17.49.67.97 1.35 1.43 2.06.06.08 0 .19-.11.2-.87.02-1.73.05-2.57.07-.07 0-.12.06-.12.13.09.99.17 1.98.25 2.97 0 .07.06.12.13.13.81.02 1.63.05 2.46.06.1 0 .16.11.12.2-.38.71-.75 1.39-1.11 2.07-.03.06 0 .14.05.18.9.56 1.79 1.12 2.65 1.69.06.04.13.02.16-.04.38-.68.78-1.38 1.18-2.1.05-.09.17-.08.22 0 .41.75.8 1.5 1.18 2.25.03.06.11.09.16.06.87-.48 1.76-.98 2.65-1.51.06-.04.09-.12.05-.19-.36-.77-.73-1.54-1.11-2.3-.05-.09.02-.21.12-.2.83 0 1.65.01 2.46.02.07 0 .13-.06.13-.14.08-1.12.17-2.23.26-3.35 0-.08-.05-.14-.12-.14z" fill="#897f7f"/></svg>