<svg viewBox="0 0 297.64 419.53" xmlns="http://www.w3.org/2000/svg"><path d="m12.31 419.53h271.16c7.83 0 14.17-6.35 14.17-14.17v-393.05c0-6.8-5.51-12.31-12.31-12.31h-273.02c-6.8 0-12.31 5.51-12.31 12.31v394.91c0 6.8 5.51 12.31 12.31 12.31z" fill="#f2edee"/><path d="m130.78 317.88s-1.94-16.9-1.94-16.9c-42.34-2.83-85.37-2.57-128.84.98v17.07c44.13-3.7 87.81-4.01 130.78-1.15z" fill="#a09392"/><path d="m166.82 325.44 1.94 16.9c42.35 2.83 85.39 2.57 128.88-.98v-17.07c-44.14 3.7-87.84 4.02-130.81 1.15z" fill="#a09392"/><path d="m154.71 23.7c-.85 0-1.71 0-2.58.02-.1 0-.16-.11-.11-.2.47-.77.95-1.54 1.44-2.31.04-.07.03-.15-.04-.19-.94-.53-1.92-1.03-2.91-1.5-.07-.03-.15 0-.19.06-.48.75-.94 1.5-1.39 2.26-.05.09-.19.09-.24 0-.45-.72-.92-1.42-1.39-2.09-.04-.06-.13-.07-.19-.03-.99.57-1.96 1.14-2.9 1.7-.06.04-.08.12-.04.17.49.67.97 1.35 1.43 2.06.06.08 0 .19-.11.2-.87.02-1.73.05-2.57.07-.07 0-.12.06-.12.13.09.99.17 1.98.25 2.97 0 .07.06.12.13.13.81.02 1.63.05 2.46.06.1 0 .16.11.12.2-.38.71-.75 1.39-1.11 2.07-.03.06 0 .14.05.18.9.56 1.79 1.12 2.65 1.69.06.04.13.02.16-.04.38-.68.78-1.38 1.18-2.1.05-.09.17-.08.22 0 .41.75.8 1.5 1.18 2.25.03.06.11.09.16.06.87-.48 1.76-.98 2.65-1.51.06-.04.09-.12.05-.19-.36-.77-.73-1.54-1.11-2.3-.05-.09.02-.21.12-.2.83 0 1.65.01 2.46.02.07 0 .13-.06.13-.14.08-1.12.17-2.23.26-3.35 0-.08-.05-.14-.12-.14z" fill="#fff"/></svg>