<svg xmlns="http://www.w3.org/2000/svg" viewBox="0 0 419.53 297.64"><path d="M419.53 285.33V14.17c0-7.83-6.35-14.17-14.17-14.17H12.31C5.51 0 0 5.51 0 12.31v273.02c0 6.8 5.51 12.31 12.31 12.31h394.91c6.8 0 12.31-5.51 12.31-12.31z" fill="#4a4645"/><path d="M139.21 297.64h160.65c1.56-9.62 7.36-46.03 11.3-71.37 2.06-13.29 3.62-23.54 3.77-25.25 1.77-19.48 2.58-40.59 1.96-65.49-.14-5.83-6.61-9.26-11.51-6.11l-121.25 77.86a7.411 7.411 0 0 1-3.44 1.15 464.933 464.933 0 0 0-59.56 8.6c-4.39.93-6.97 5.51-5.51 9.75 6.5 18.82 20.17 60.22 21.18 63.36.39 1.23 1.25 3.89 2.42 7.49z" fill="#6ebcb4"/><path d="M130.88 215.08c5.95 18.46 14.35 44.65 17.89 56.44 2.47 8.24 4.88 16.46 7.23 24.64l.42 1.48H279.4c1.64-8.02 3.22-15.86 4.73-23.46 3.49-17.55 6.79-35.33 9.81-53.18.86-5.09 1.73-10.04 2.59-14.89.4-2.25 7.63-47.56 12.34-77.87 2.18-14.05 3.82-24.87 3.99-26.68 1.87-20.58 2.72-42.88 2.07-69.2-.15-6.16-6.98-9.79-12.16-6.46l-128.11 82.27c-1.09.7-2.34 1.12-3.64 1.22a491.15 491.15 0 0 0-62.94 9.09c-4.64.98-7.37 5.82-5.82 10.31 6.87 19.88 21.31 63.63 22.37 66.94.77 2.4 3.18 9.85 6.24 19.35z" fill="#57a89f"/><g><path d="M217.05 17.06c-.03-.06-.1-.08-.15-.03-3.72 3.47-9.53 2.67-13.19 6.82-2.78 3.16-2.5 5.5-2.38 6.11.38 1.89 2.2 3.49 4.75 3.93 1.09.19 2.19.14 3.2-.1.48-.11.94-.27 1.37-.47 5.9-2.36 9.69-8.69 6.39-16.27z" fill="#e5cb82"/></g></svg>