<?xml version="1.0" encoding="UTF-8"?><svg xmlns="http://www.w3.org/2000/svg" viewBox="0 0 419.53 297.64"><g id="Zugabe"><path d="M122.52,297.64c1.14,2.84,2.34,5.67,3.54,8.5h17.01c-.95-2.83-1.93-5.67-2.9-8.5h-17.65Z" fill="#91aad9"/><path d="M294.07,306.14h18.75c.73-2.83,1.46-5.67,2.18-8.5h-18.64c-.76,2.84-1.52,5.68-2.29,8.5Z" fill="#91aad9"/><path d="M140.17,297.64c.97,2.84,1.95,5.68,2.9,8.5h151.01c.77-2.82,1.53-5.67,2.29-8.5h-156.2Z" fill="#7993cb"/></g><g id="Karte"><path d="M419.53,285.33V14.17c0-7.83-6.35-14.17-14.17-14.17H12.31C5.51,0,0,5.51,0,12.31v273.02c0,6.8,5.51,12.31,12.31,12.31h394.91c6.8,0,12.31-5.51,12.31-12.31Z" fill="#4a4645"/></g><g id="Gestaltung"><path d="M86.92,200.59c3.02,8.21,27.3,73.92,32.27,88.25,1.02,2.94,2.15,5.87,3.33,8.8h192.49c.37-1.44.74-2.86,1.1-4.3,4.47-17.7,19.26-81.76,21.44-91.07.83-3.52,13.19-58.15,18.2-82.73,1-4.92-1.98-9.76-6.76-10.98-49.45-12.66-101.39-18.76-154.84-17.33-45.12,1.21-88.89,7.71-130.74,18.9-5.35,1.43-8.25,7.35-6.16,12.58,9.86,24.72,28.22,73.92,29.67,77.88Z" fill="#91aad9"/><path d="M131.99,274.07c2.79,7.89,5.5,15.74,8.17,23.57h156.2c1.76-6.56,3.51-13.14,5.22-19.78,3.85-14.94,16.58-69.02,18.46-76.88.71-2.97,11.35-49.09,15.67-69.84.86-4.15-1.71-8.24-5.82-9.27-42.58-10.69-87.31-15.83-133.35-14.63-38.86,1.02-76.55,6.51-112.59,15.96-4.61,1.21-7.1,6.2-5.31,10.62,8.49,20.87,24.3,62.4,25.55,65.75,2.6,6.93,23.51,62.4,27.79,74.5Z" fill="#7993cb"/></g><g id="Symbole"><path id="regardio-system-zest-icon" d="M217.05,17.06c-.03-.06-.1-.08-.15-.03-3.72,3.47-9.53,2.67-13.19,6.82-2.78,3.16-2.5,5.5-2.38,6.11.38,1.89,2.2,3.49,4.75,3.93,1.09.19,2.19.14,3.2-.1.48-.11.94-.27,1.37-.47,5.9-2.36,9.69-8.69,6.39-16.27Z" fill="#a09392"/></g></svg>