<svg xmlns="http://www.w3.org/2000/svg" viewBox="0 0 297.64 419.53"><path d="M12.31 419.53h271.16c7.83 0 14.17-6.35 14.17-14.17V12.31c0-6.8-5.51-12.31-12.31-12.31H12.31C5.51 0 0 5.51 0 12.31v394.91c0 6.8 5.51 12.31 12.31 12.31z" fill="#f2edee"/><path d="M252.73 296.08l-14.96-8.09c-13.19 40.63-29.54 80.75-49.15 120.04h18.94c17.85-36.71 32.89-74.11 45.17-111.95zm-192.86-8.09l-14.96 8.09c12.28 37.84 27.32 75.25 45.17 111.95h18.94c-19.61-39.29-35.96-79.41-49.15-120.04z" fill="#a09392"/><g><path d="M156.1 17.06c-.03-.06-.1-.08-.15-.03-3.72 3.47-9.53 2.67-13.19 6.82-2.78 3.16-2.5 5.5-2.38 6.11.38 1.89 2.2 3.49 4.75 3.93 1.09.19 2.19.14 3.2-.1.48-.11.94-.27 1.37-.47 5.9-2.36 9.69-8.69 6.39-16.27z" fill="#e5cb82"/></g></svg>