<?xml version="1.0" encoding="UTF-8"?><svg xmlns="http://www.w3.org/2000/svg" viewBox="0 0 419.53 297.64"><g id="Zugabe"><path d="M157.74,306.14h118.44c.7-2.86,1.42-5.69,2.14-8.5h-122.73c.72,2.81,1.44,5.64,2.14,8.5Z" fill="#86a965"/></g><g id="Karte"><path d="M419.53,285.33V14.17c0-7.83-6.35-14.17-14.17-14.17H12.31C5.51,0,0,5.51,0,12.31v273.02c0,6.8,5.51,12.31,12.31,12.31h394.91c6.8,0,12.31-5.51,12.31-12.31Z" fill="#4a4645"/></g><g id="Gestaltung"><path d="M365.81,23.43l-148.22,83.54c-.21.12-.42.21-.64.31-.96.43-2,.68-3.06.7-27.86.58-55.82,3.54-83.57,8.95-4.17.81-6.96,4.75-6.32,8.95,3.18,20.84,11.32,67.58,11.87,70.58,1.45,7.95,11.29,62.87,14.28,77.79.85,4.23,1.72,8.43,2.59,12.63.96,3.54,1.91,7.14,2.84,10.76h122.73c.93-3.62,1.88-7.22,2.84-10.76,1.42-5.22,2.87-10.36,4.36-15.37,3.94-13.21,8.04-26.48,12.29-39.75,1.54-4.79,28.78-90.01,36.89-111.38-.03,0-.06-.02-.09-.02l.13-.07c7.64-20.13,28.28-60.39,41.93-86.28,3.67-6.97-4-14.43-10.86-10.56Z" fill="#9cc07f"/><path d="M303.58,116.93c-27.75-5.41-55.71-8.37-83.57-8.95-1.06-.02-2.1-.27-3.06-.7-.22-.1-.43-.19-.64-.31L68.1,23.43c-6.86-3.87-14.54,3.6-10.86,10.56,13.65,25.9,34.29,66.15,41.93,86.28l.13.07s-.06.02-.09.02c8.11,21.38,35.35,106.59,36.89,111.38,4.26,13.27,8.36,26.54,12.29,39.75,1.49,5.01,2.94,10.15,4.36,15.37.96,3.54,1.91,7.14,2.84,10.76h122.73c.93-3.62,1.88-7.22,2.84-10.76.87-4.2,1.74-8.4,2.59-12.63,2.99-14.92,12.83-69.84,14.28-77.79.55-3,8.69-49.74,11.87-70.58.64-4.2-2.15-8.14-6.32-8.95Z" fill="#86a965"/></g><g id="Symbole"><path id="regardio-system-zest-icon" d="M217.05,17.06c-.03-.06-.1-.08-.15-.03-3.72,3.47-9.53,2.67-13.19,6.82-2.78,3.16-2.5,5.5-2.38,6.11.38,1.89,2.2,3.49,4.75,3.93,1.09.19,2.19.14,3.2-.1.48-.11.94-.27,1.37-.47,5.9-2.36,9.69-8.69,6.39-16.27Z" fill="#a09392"/></g></svg>