<?xml version="1.0" encoding="UTF-8"?><svg xmlns="http://www.w3.org/2000/svg" viewBox="0 0 297.64 419.53"><g id="Zugabe"><path d="M297.64,327.33v17.01c2.83.05,5.67.08,8.5.08v-4.03c-.11-5.03-.29-12.98-.4-12.98-2.7,0-5.4-.04-8.1-.08Z" fill="#a09392"/></g><g id="Karte"><path d="M12.31,419.53h271.16c7.83,0,14.17-6.35,14.17-14.17V12.31c0-6.8-5.51-12.31-12.31-12.31H12.31C5.51,0,0,5.51,0,12.31v394.91c0,6.8,5.51,12.31,12.31,12.31Z" fill="#f2edee"/></g><g id="Gestaltung"><path d="M148.9,309.25C100.55,318.08,50.8,326.52,0,327.33v17.01c50.78-.81,100.56-9.25,148.9-18.08,48.3,8.82,98.01,17.26,148.74,18.08v-17.01c-50.74-.83-100.44-9.26-148.74-18.08Z" fill="#a09392"/></g><g id="Symbole"><path id="regardio-system-zest-icon" d="M156.1,17.06c-.03-.06-.1-.08-.15-.03-3.72,3.47-9.53,2.67-13.19,6.82-2.78,3.16-2.5,5.5-2.38,6.11.38,1.89,2.2,3.49,4.75,3.93,1.09.19,2.19.14,3.2-.1.48-.11.94-.27,1.37-.47,5.9-2.36,9.69-8.69,6.39-16.27Z" fill="#cec3c1"/></g></svg>