<?xml version="1.0" encoding="UTF-8"?><svg xmlns="http://www.w3.org/2000/svg" viewBox="0 0 419.53 297.64"><g id="Zugabe"><path d="M119.59,297.64c.57,3.06,1.11,5.93,1.61,8.5h18.81c-.75-2.46-1.63-5.33-2.62-8.5h-17.8Z" fill="#ee9e81"/><path d="M279.52,306.14h18.81c.5-2.58,1.04-5.44,1.61-8.5h-17.8c-.99,3.17-1.87,6.04-2.62,8.5Z" fill="#db8665"/><path d="M137.38,297.64c.99,3.17,1.87,6.04,2.62,8.5h139.52c.75-2.46,1.63-5.33,2.62-8.5h-144.76Z" fill="#db8665"/></g><g id="Karte"><path d="M419.53,285.33V14.17c0-7.83-6.35-14.17-14.17-14.17H12.31C5.51,0,0,5.51,0,12.31v273.02c0,6.8,5.51,12.31,12.31,12.31h394.91c6.8,0,12.31-5.51,12.31-12.31Z" fill="#4a4645"/></g><g id="Gestaltung"><path d="M306.84,220.45c.71-2.23,6.66-20.27,13.08-39.51,4.62-13.86,9.49-28.35,12.82-37.99,1.6-4.64-.75-9.59-5.1-11.41-.52-.22-1.06-.4-1.64-.52-24.16-5.11-48.49-8.6-72.86-10.52-1.5-.12-2.94-.6-4.21-1.41l-39.17-25.15L100.61,23.83c-6-3.85-13.91.35-14.08,7.48-.75,30.46.24,56.28,2.4,80.11.15,1.6,1.29,9.31,2.95,20.12,2.08,13.55,4.97,31.98,7.73,49.4,4.12,26.04,7.92,49.8,8.23,51.53.82,4.61,7.24,41.03,11.75,65.18h162.56c7.94-25.45,22.44-70.15,24.69-77.19Z" fill="#ee9e81"/><path d="M311.69,232.46c.31-1.73,4.11-25.48,8.23-51.53,2.75-17.42,5.64-35.84,7.73-49.4,1.66-10.81,2.8-18.51,2.95-20.12,2.16-23.83,3.15-49.65,2.4-80.11-.18-7.13-8.08-11.33-14.08-7.48l-109.15,70.09-39.17,25.15c-1.26.81-2.71,1.29-4.21,1.41-24.37,1.92-48.71,5.42-72.86,10.52-.57.12-1.12.3-1.64.52-4.35,1.82-6.7,6.77-5.1,11.41,3.33,9.64,8.2,24.12,12.82,37.99,6.42,19.24,12.37,37.29,13.08,39.51,2.25,7.03,16.76,51.73,24.69,77.19h162.56c4.51-24.15,10.93-60.57,11.75-65.18Z" fill="#db8665"/></g><g id="Symbole"><path id="regardio-system-zest-icon" d="M217.05,17.06c-.03-.06-.1-.08-.15-.03-3.72,3.47-9.53,2.67-13.19,6.82-2.78,3.16-2.5,5.5-2.38,6.11.38,1.89,2.2,3.49,4.75,3.93,1.09.19,2.19.14,3.2-.1.48-.11.94-.27,1.37-.47,5.9-2.36,9.69-8.69,6.39-16.27Z" fill="#a09392"/></g></svg>