<?xml version="1.0" encoding="UTF-8"?><svg xmlns="http://www.w3.org/2000/svg" viewBox="0 0 297.64 419.53"><g id="Karte"><path d="M12.31,419.53h271.16c7.83,0,14.17-6.35,14.17-14.17V12.31c0-6.8-5.51-12.31-12.31-12.31H12.31C5.51,0,0,5.51,0,12.31v394.91c0,6.8,5.51,12.31,12.31,12.31Z" fill="#f2edee"/></g><g id="Gestaltung"><path d="M140.03,329.98h-17.01c-.21,30.25-1.99,60.11-5.22,89.55h17.01c3.23-29.43,5.02-59.3,5.22-89.55Z" fill="#a09392"/><path d="M180.79,287.34h-17.01c-3.85,32.18-5.95,64.89-6.18,98.05h17.01c.23-33.16,2.33-65.88,6.18-98.05Z" fill="#a09392"/></g><g id="Symbole"><path id="regardio-system-zest-icon" d="M156.1,17.06c-.03-.06-.1-.08-.15-.03-3.72,3.47-9.53,2.67-13.19,6.82-2.78,3.16-2.5,5.5-2.38,6.11.38,1.89,2.2,3.49,4.75,3.93,1.09.19,2.19.14,3.2-.1.48-.11.94-.27,1.37-.47,5.9-2.36,9.69-8.69,6.39-16.27Z" fill="#cec3c1"/></g></svg>