<?xml version="1.0" encoding="UTF-8"?><svg xmlns="http://www.w3.org/2000/svg" viewBox="0 0 419.53 297.64"><g id="Zugabe"><path d="M143.07,306.14h151.01c.77-2.82,1.53-5.67,2.29-8.5h-156.2c.97,2.84,1.95,5.68,2.9,8.5Z" fill="#ba9f40"/></g><g id="Karte"><path d="M419.53,285.33V14.17c0-7.83-6.35-14.17-14.17-14.17H12.31C5.51,0,0,5.51,0,12.31v273.02c0,6.8,5.51,12.31,12.31,12.31h394.91c6.8,0,12.31-5.51,12.31-12.31Z" fill="#4a4645"/></g><g id="Gestaltung"><path d="M345.11,250.04c-6.62-16.29-17.7-45.15-22.85-58.64l-220.76,1.05c-3.52,15.29-10.24,44.81-13.46,60.27-.86,4.15,1.71,8.24,5.82,9.27,12.02,3.02,24.21,5.57,36.55,7.69l173.47-1.04c12.14-2.23,24.12-4.89,35.92-7.98,4.61-1.21,7.1-6.2,5.31-10.62Z" fill="#cfb35f"/><path d="M329.9,121.87c-42.58-10.69-87.31-15.83-133.35-14.63-38.86,1.02-76.55,6.51-112.59,15.96-4.61,1.21-7.1,6.2-5.31,10.62,6.62,16.29,17.7,45.15,22.85,58.64,1.45,3.8,2.43,6.38,2.7,7.11,2.36,6.29,19.8,52.58,26.21,70.11.65,1.78,1.19,3.27,1.58,4.39,2.79,7.89,5.5,15.74,8.17,23.57h156.2c1.76-6.56,3.51-13.14,5.22-19.78.58-2.27,1.37-5.44,2.3-9.22,5.17-21.09,14.57-61,16.16-67.66.18-.76,1.01-4.33,2.22-9.57,3.52-15.29,10.24-44.81,13.46-60.27.86-4.15-1.71-8.24-5.82-9.27Z" fill="#ba9f40"/></g><g id="Symbole"><path id="regardio-system-zest-icon" d="M217.05,17.06c-.03-.06-.1-.08-.15-.03-3.72,3.47-9.53,2.67-13.19,6.82-2.78,3.16-2.5,5.5-2.38,6.11.38,1.89,2.2,3.49,4.75,3.93,1.09.19,2.19.14,3.2-.1.48-.11.94-.27,1.37-.47,5.9-2.36,9.69-8.69,6.39-16.27Z" fill="#a09392"/></g></svg>