<?xml version="1.0" encoding="UTF-8"?><svg xmlns="http://www.w3.org/2000/svg" viewBox="0 0 297.64 419.53"><g id="Zugabe"><path d="M306.14,326.17v-17.01c-2.84.16-5.67.36-8.5.55v17.01c2.83-.19,5.66-.39,8.5-.55Z" fill="#a09392"/></g><g id="Karte"><path d="M12.31,419.53h271.16c7.83,0,14.17-6.35,14.17-14.17V12.31c0-6.8-5.51-12.31-12.31-12.31H12.31C5.51,0,0,5.51,0,12.31v394.91c0,6.8,5.51,12.31,12.31,12.31Z" fill="#f2edee"/></g><g id="Gestaltung"><path d="M198.12,339.1c32.57-5.99,65.79-10.14,99.52-12.38v-17.01c-33.74,2.24-66.95,6.39-99.52,12.38v17.01Z" fill="#a09392"/><path d="M98.73,338.92v-17.01C66.41,316.01,33.46,311.91,0,309.7v17.01c33.46,2.22,66.41,6.31,98.73,12.22Z" fill="#a09392"/></g><g id="Symbole"><path id="regardio-system-zest-icon" d="M156.1,17.06c-.03-.06-.1-.08-.15-.03-3.72,3.47-9.53,2.67-13.19,6.82-2.78,3.16-2.5,5.5-2.38,6.11.38,1.89,2.2,3.49,4.75,3.93,1.09.19,2.19.14,3.2-.1.48-.11.94-.27,1.37-.47,5.9-2.36,9.69-8.69,6.39-16.27Z" fill="#cec3c1"/></g></svg>