<?xml version="1.0" encoding="UTF-8"?><svg xmlns="http://www.w3.org/2000/svg" viewBox="0 0 419.53 297.64"><g id="Zugabe"><path d="M137.11,297.64c.72,2.81,1.43,5.65,2.14,8.5h18.51c-.7-2.86-1.41-5.69-2.14-8.5h-18.51Z" fill="#d897bd"/><path d="M258.57,306.14h18.51c.61-2.82,1.21-5.67,1.81-8.5h-18.51c-.6,2.84-1.2,5.68-1.81,8.5Z" fill="#c780ab"/><path d="M155.62,297.64c.72,2.81,1.43,5.65,2.14,8.5h100.82c.61-2.82,1.21-5.67,1.81-8.5h-104.76Z" fill="#c780ab"/><path d="M135.59,141.25l-8.5.58v53.19c2.84-.5,5.68-.98,8.5-1.5v-52.27Z" fill="#629fc5"/></g><g id="Karte"><path d="M419.53,285.33V14.17c0-7.83-6.35-14.17-14.17-14.17H12.31C5.51,0,0,5.51,0,12.31v273.02c0,6.8,5.51,12.31,12.31,12.31h394.91c6.8,0,12.31-5.51,12.31-12.31Z" fill="#4a4645"/></g><g id="Gestaltung"><path d="M117.59,231.7c4.26,13.27,8.36,26.54,12.29,39.75,2.51,8.43,4.92,17.19,7.23,26.19h123.27c1.65-7.77,3.28-15.57,4.86-23.45,2.99-14.92,12.83-69.84,14.28-77.79.55-3,8.69-49.74,11.87-70.58.64-4.2-2.15-8.14-6.32-8.95-27.75-5.41-55.71-8.37-83.57-8.95-1.3-.03-2.57-.37-3.7-1.01L49.59,23.37c-4.65-2.62-9.67-.04-11.28,4.07-.77,1.95-.77,4.25.42,6.49,13.65,25.9,34.29,66.15,41.93,86.28l.13.07s-.06.01-.09.02c8.11,21.38,35.35,106.59,36.89,111.38Z" fill="#d897bd"/><path d="M99.3,120.29s-.06.01-.09.02c8.11,21.38,35.35,106.59,36.89,111.38,4.26,13.27,8.36,26.54,12.29,39.75,2.51,8.43,4.92,17.19,7.23,26.19h123.27c1.65-7.77,3.28-15.57,4.86-23.45,2.99-14.92,12.83-69.84,14.28-77.79.55-3,8.69-49.74,11.87-70.58.64-4.2-2.15-8.14-6.32-8.95-27.75-5.41-55.71-8.37-83.57-8.95-1.3-.03-2.57-.37-3.7-1.01L68.1,23.37c-4.65-2.62-9.67-.04-11.28,4.07-.77,1.95-.77,4.25.42,6.49,13.65,25.9,34.29,66.15,41.93,86.28l.13.07Z" fill="#c780ab"/></g><g id="Symbole"><path id="regardio-system-zest-icon" d="M217.05,17.06c-.03-.06-.1-.08-.15-.03-3.72,3.47-9.53,2.67-13.19,6.82-2.78,3.16-2.5,5.5-2.38,6.11.38,1.89,2.2,3.49,4.75,3.93,1.09.19,2.19.14,3.2-.1.48-.11.94-.27,1.37-.47,5.9-2.36,9.69-8.69,6.39-16.27Z" fill="#a09392"/></g></svg>