<?xml version="1.0" encoding="UTF-8"?><svg xmlns="http://www.w3.org/2000/svg" viewBox="0 0 419.53 297.64"><g id="Zugabe"><path d="M139.21,297.64c.79,2.45,1.72,5.32,2.74,8.5h16.8c-.77-2.87-1.55-5.71-2.35-8.5h-17.2Z" fill="#6ebcb4"/><path d="M277.65,306.14h20.74c.36-2.08.73-4.14,1.09-6.18.04-.25.18-1.06.38-2.33h-20.46c-.57,2.81-1.16,5.65-1.74,8.5Z" fill="#6ebcb4"/><path d="M156.41,297.64c.79,2.8,1.58,5.63,2.35,8.5h118.89c.59-2.86,1.17-5.69,1.74-8.5h-122.98Z" fill="#57a89f"/></g><g id="Karte"><path d="M419.53,285.33V14.17c0-7.83-6.35-14.17-14.17-14.17H12.31C5.51,0,0,5.51,0,12.31v273.02c0,6.8,5.51,12.31,12.31,12.31h394.91c6.8,0,12.31-5.51,12.31-12.31Z" fill="#4a4645"/></g><g id="Gestaltung"><path d="M139.21,297.64h160.65c1.56-9.62,7.36-46.03,11.3-71.37,2.06-13.29,3.62-23.54,3.77-25.25,1.77-19.48,2.58-40.59,1.96-65.49-.14-5.83-6.61-9.26-11.51-6.11l-121.25,77.86c-1.03.66-2.22,1.06-3.44,1.15-19.92,1.57-39.82,4.43-59.56,8.6-4.39.93-6.97,5.51-5.51,9.75,6.5,18.82,20.17,60.22,21.18,63.36.39,1.23,1.25,3.89,2.42,7.49Z" fill="#6ebcb4"/><path d="M130.88,215.08c5.95,18.46,14.35,44.65,17.89,56.44,2.47,8.24,4.88,16.46,7.23,24.64.14.49.28.99.42,1.48h122.98c1.64-8.02,3.22-15.86,4.73-23.46,3.49-17.55,6.79-35.33,9.81-53.18.86-5.09,1.73-10.04,2.59-14.89.4-2.25,7.63-47.56,12.34-77.87,2.18-14.05,3.82-24.87,3.99-26.68,1.87-20.58,2.72-42.88,2.07-69.2-.15-6.16-6.98-9.79-12.16-6.46l-128.11,82.27c-1.09.7-2.34,1.12-3.64,1.22-21.05,1.66-42.07,4.68-62.94,9.09-4.64.98-7.37,5.82-5.82,10.31,6.87,19.88,21.31,63.63,22.37,66.94.77,2.4,3.18,9.85,6.24,19.35Z" fill="#57a89f"/></g><g id="Symbole"><path id="regardio-system-zest-icon" d="M217.05,17.06c-.03-.06-.1-.08-.15-.03-3.72,3.47-9.53,2.67-13.19,6.82-2.78,3.16-2.5,5.5-2.38,6.11.38,1.89,2.2,3.49,4.75,3.93,1.09.19,2.19.14,3.2-.1.48-.11.94-.27,1.37-.47,5.9-2.36,9.69-8.69,6.39-16.27Z" fill="#a09392"/></g></svg>