<?xml version="1.0" encoding="UTF-8"?><svg xmlns="http://www.w3.org/2000/svg" viewBox="0 0 297.64 419.53"><g id="Karte"><path d="M12.31,419.53h271.16c7.83,0,14.17-6.35,14.17-14.17V12.31c0-6.8-5.51-12.31-12.31-12.31H12.31C5.51,0,0,5.51,0,12.31v394.91C0,414.02,5.51,419.53,12.31,419.53Z" fill="#f2edee"/></g><g id="Gestaltung"><path d="M149.31,298.84c50.57,0,100.13,4.35,148.33,12.66v-17.01c-48.2-8.31-97.76-12.66-148.33-12.66S48.51,286.24,0,294.67v17.01c48.51-8.42,98.39-12.83,149.31-12.83Z" fill="#a09392"/><path d="M0,332.01v17.01c48.51,8.42,98.39,12.83,149.31,12.83s100.13-4.35,148.33-12.66v-17.01c-48.2,8.31-97.76,12.66-148.33,12.66S48.51,340.44,0,332.01Z" fill="#a09392"/></g><g id="Symbole"><path id="regardio-system-zest-icon" d="M156.1,17.06c-.03-.06-.1-.08-.15-.03-3.72,3.47-9.53,2.67-13.19,6.82-2.78,3.16-2.5,5.5-2.38,6.11.38,1.89,2.2,3.49,4.75,3.93,1.09.19,2.19.14,3.2-.1.48-.11.94-.27,1.37-.47,5.9-2.36,9.69-8.69,6.39-16.27Z" fill="#cec3c1"/></g></svg>